Atma-Bold.ufo
<glyph name="exclam" format="1">
  <advance width="283"/>
  <unicode hex="0021"/>
  <outline>
    <contour>
      <point x="46" y="686"/>
      <point x="45" y="667"/>
      <point x="45" y="648" type="curve" smooth="yes"/>
      <point x="45" y="522"/>
      <point x="49" y="399"/>
      <point x="68" y="250" type="curve"/>
      <point x="97" y="244"/>
      <point x="132" y="240"/>
      <point x="165" y="240" type="curve" smooth="yes"/>
      <point x="189" y="240"/>
      <point x="207" y="241"/>
      <point x="221" y="245" type="curve"/>
      <point x="217" y="377"/>
      <point x="235" y="593"/>
      <point x="264" y="723" type="curve"/>
      <point x="240" y="732"/>
      <point x="212" y="737"/>
      <point x="180" y="737" type="curve"/>
      <point x="129" y="737"/>
      <point x="86" y="725"/>
      <point x="47" y="705" type="curve"/>
    </contour>
    <contour>
      <point x="58" y="103"/>
      <point x="57" y="52"/>
      <point x="61" y="-10" type="curve"/>
      <point x="83" y="-21"/>
      <point x="121" y="-30"/>
      <point x="162" y="-30" type="curve" smooth="yes"/>
      <point x="193" y="-30"/>
      <point x="217" y="-28"/>
      <point x="251" y="-21" type="curve"/>
      <point x="245" y="37"/>
      <point x="242" y="85"/>
      <point x="239" y="147" type="curve"/>
      <point x="177" y="149"/>
      <point x="132" y="152"/>
      <point x="61" y="153" type="curve"/>
    </contour>
  </outline>
</glyph>
<glyph name="quotesingle" format="1">
  <advance width="221"/>
  <unicode hex="0027"/>
  <outline>
    <contour>
      <point x="77" y="472"/>
      <point x="124" y="474"/>
      <point x="145" y="481" type="curve"/>
      <point x="167" y="573"/>
      <point x="180" y="656"/>
      <point x="190" y="723" type="curve"/>
      <point x="159" y="733"/>
      <point x="124" y="737"/>
      <point x="100" y="737" type="curve" smooth="yes"/>
      <point x="71" y="737"/>
      <point x="45" y="732"/>
      <point x="31" y="723" type="curve"/>
      <point x="34" y="641"/>
      <point x="37" y="568"/>
      <point x="43" y="474" type="curve"/>
    </contour>
  </outline>
</glyph>
<glyph name="five" format="1">
  <advance width="602"/>
  <unicode hex="0035"/>
  <outline>
    <contour>
      <point x="263" y="-37" type="curve" smooth="yes"/>
      <point x="428" y="-37"/>
      <point x="528" y="83"/>
      <point x="528" y="221" type="curve" smooth="yes"/>
      <point x="528" y="340"/>
      <point x="444" y="425"/>
      <point x="320" y="425" type="curve" smooth="yes"/>
      <point x="302" y="425"/>
      <point x="273" y="423"/>
      <point x="253" y="419" type="curve"/>
      <point x="253" y="442"/>
      <point x="254" y="472"/>
      <point x="256" y="502" type="curve"/>
      <point x="352" y="487"/>
      <point x="470" y="478"/>
      <point x="557" y="477" type="curve"/>
      <point x="576" y="523"/>
      <point x="586" y="582"/>
      <point x="586" y="644" type="curve"/>
      <point x="440" y="644"/>
      <point x="278" y="653"/>
      <point x="94" y="692" type="curve"/>
      <point x="78" y="588"/>
      <point x="69" y="495"/>
      <point x="69" y="411" type="curve" smooth="yes"/>
      <point x="69" y="387"/>
      <point x="69" y="364"/>
      <point x="71" y="341" type="curve"/>
      <point x="83" y="323"/>
      <point x="121" y="289"/>
      <point x="139" y="277" type="curve"/>
      <point x="164" y="285"/>
      <point x="186" y="289"/>
      <point x="206" y="289" type="curve" smooth="yes"/>
      <point x="286" y="289"/>
      <point x="322" y="225"/>
      <point x="322" y="163" type="curve" smooth="yes"/>
      <point x="322" y="99"/>
      <point x="299" y="72"/>
      <point x="261" y="72" type="curve" smooth="yes"/>
      <point x="227" y="72"/>
      <point x="200" y="104"/>
      <point x="200" y="180" type="curve"/>
      <point x="150" y="192"/>
      <point x="82" y="204"/>
      <point x="6" y="204" type="curve"/>
      <point x="15" y="31"/>
      <point x="127" y="-37"/>
    </contour>
  </outline>
</glyph>
<glyph name="A" format="1">
  <advance width="673"/>
  <unicode hex="0041"/>
  <outline>
    <contour>
      <point x="486" y="-117" type="curve"/>
      <point x="567" y="-107"/>
      <point x="634" y="-89"/>
      <point x="685" y="-55" type="curve"/>
      <point x="642" y="210"/>
      <point x="562" y="484"/>
      <point x="433" y="689" type="curve"/>
      <point x="376" y="703"/>
      <point x="312" y="710"/>
      <point x="239" y="710" type="curve"/>
      <point x="170" y="466"/>
      <point x="106" y="278"/>
      <point x="-14" y="55" type="curve"/>
      <point x="19" y="13"/>
      <point x="80" y="-21"/>
      <point x="147" y="-32" type="curve"/>
      <point x="216" y="109"/>
      <point x="287" y="351"/>
      <point x="325" y="503" type="curve"/>
      <point x="396" y="342"/>
      <point x="464" y="99"/>
    </contour>
    <contour>
      <point x="471" y="279" type="line"/>
      <point x="366" y="279"/>
      <point x="272" y="269"/>
      <point x="174" y="250" type="curve"/>
      <point x="180" y="124" type="line"/>
      <point x="279" y="139"/>
      <point x="382" y="142"/>
      <point x="481" y="142" type="curve"/>
    </contour>
  </outline>
</glyph>
<glyph name="C" format="1">
  <advance width="648"/>
  <unicode hex="0043"/>
  <outline>
    <contour>
      <point x="524" y="219" type="curve"/>
      <point x="484" y="129"/>
      <point x="438" y="85"/>
      <point x="373" y="85" type="curve" smooth="yes"/>
      <point x="286" y="85"/>
      <point x="255" y="202"/>
      <point x="255" y="281" type="curve" smooth="yes"/>
      <point x="255" y="448"/>
      <point x="301" y="573"/>
      <point x="365" y="573" type="curve" smooth="yes"/>
      <point x="406" y="573"/>
      <point x="446" y="543"/>
      <point x="446" y="438" type="curve"/>
      <point x="540" y="438"/>
      <point x="576" y="450"/>
      <point x="633" y="475" type="curve"/>
      <point x="621" y="614"/>
      <point x="534" y="693"/>
      <point x="402" y="693" type="curve" smooth="yes"/>
      <point x="180" y="693"/>
      <point x="35" y="490"/>
      <point x="35" y="261" type="curve" smooth="yes"/>
      <point x="35" y="51"/>
      <point x="159" y="-35"/>
      <point x="324" y="-35" type="curve" smooth="yes"/>
      <point x="448" y="-35"/>
      <point x="552" y="16"/>
      <point x="624" y="135" type="curve"/>
      <point x="604" y="174"/>
      <point x="570" y="200"/>
    </contour>
  </outline>
</glyph>
<glyph name="G" format="1">
  <advance width="661"/>
  <unicode hex="0047"/>
  <outline>
    <contour>
      <point x="469" y="266" type="line"/>
      <point x="449" y="173"/>
      <point x="410" y="115"/>
      <point x="346" y="115" type="curve"/>
      <point x="273" y="115"/>
      <point x="240" y="181"/>
      <point x="240" y="323" type="curve" smooth="yes"/>
      <point x="240" y="497"/>
      <point x="282" y="604"/>
      <point x="340" y="604" type="curve" smooth="yes"/>
      <point x="378" y="604"/>
      <point x="401" y="567"/>
      <point x="416" y="478" type="curve"/>
      <point x="491" y="478"/>
      <point x="556" y="486"/>
      <point x="618" y="506" type="curve"/>
      <point x="607" y="637"/>
      <point x="523" y="724"/>
      <point x="377" y="724" type="curve" smooth="yes"/>
      <point x="167" y="724"/>
      <point x="30" y="506"/>
      <point x="30" y="261" type="curve" smooth="yes"/>
      <point x="30" y="84"/>
      <point x="129" y="-15"/>
      <point x="272" y="-15" type="curve" smooth="yes"/>
      <point x="398" y="-15"/>
      <point x="494" y="49"/>
      <point x="559" y="217" type="curve"/>
    </contour>
    <contour>
      <point x="427" y="330" type="curve"/>
      <point x="435" y="203"/>
      <point x="465" y="81"/>
      <point x="519" y="-34" type="curve"/>
      <point x="575" y="-31"/>
      <point x="624" y="-25"/>
      <point x="667" y="-14" type="curve"/>
      <point x="637" y="103"/>
      <point x="623" y="225"/>
      <point x="625" y="352" type="curve"/>
      <point x="545" y="352"/>
      <point x="483" y="346"/>
    </contour>
  </outline>
</glyph>
<glyph name="H" format="1">
  <advance width="714"/>
  <unicode hex="0048"/>
  <outline>
    <contour>
      <point x="48" y="472"/>
      <point x="71" y="186"/>
      <point x="86" y="4" type="curve"/>
      <point x="145" y="4"/>
      <point x="228" y="14"/>
      <point x="262" y="24" type="curve"/>
      <point x="262" y="190"/>
      <point x="265" y="550"/>
      <point x="279" y="702" type="curve"/>
      <point x="244" y="711"/>
      <point x="213" y="714"/>
      <point x="177" y="714" type="curve" smooth="yes"/>
      <point x="122" y="714"/>
      <point x="75" y="698"/>
      <point x="48" y="680" type="curve"/>
    </contour>
    <contour>
      <point x="666" y="142"/>
      <point x="659" y="473"/>
      <point x="647" y="710" type="curve"/>
      <point x="625" y="725"/>
      <point x="591" y="742"/>
      <point x="549" y="742" type="curve" smooth="yes"/>
      <point x="513" y="742"/>
      <point x="482" y="739"/>
      <point x="447" y="730" type="curve"/>
      <point x="463" y="557"/>
      <point x="467" y="146"/>
      <point x="467" y="-42" type="curve"/>
      <point x="505" y="-53"/>
      <point x="599" y="-60"/>
      <point x="666" y="-60" type="curve"/>
    </contour>
    <contour>
      <point x="502" y="445" type="line"/>
      <point x="397" y="445"/>
      <point x="303" y="435"/>
      <point x="205" y="416" type="curve"/>
      <point x="217" y="269" type="line"/>
      <point x="316" y="284"/>
      <point x="419" y="287"/>
      <point x="518" y="287" type="curve"/>
    </contour>
  </outline>
</glyph>
<glyph name="I" format="1">
  <advance width="326"/>
  <unicode hex="0049"/>
  <outline>
    <contour>
      <point x="81" y="-32" type="curve"/>
      <point x="140" y="-32"/>
      <point x="223" y="-22"/>
      <point x="257" y="-12" type="curve"/>
      <point x="271" y="136"/>
      <point x="279" y="355"/>
      <point x="279" y="526" type="curve" smooth="yes"/>
      <point x="279" y="583"/>
      <point x="278" y="635"/>
      <point x="276" y="677" type="curve"/>
      <point x="241" y="686"/>
      <point x="210" y="689"/>
      <point x="174" y="689" type="curve" smooth="yes"/>
      <point x="119" y="689"/>
      <point x="72" y="673"/>
      <point x="45" y="655" type="curve"/>
      <point x="74" y="436"/>
      <point x="81" y="183"/>
    </contour>
  </outline>
</glyph>
<glyph name="J" format="1">
  <advance width="544"/>
  <unicode hex="004A"/>
  <outline>
    <contour>
      <point x="231" y="-88" type="curve" smooth="yes"/>
      <point x="348" y="-88"/>
      <point x="442" y="-15"/>
      <point x="473" y="163" type="curve" smooth="yes"/>
      <point x="492" y="274"/>
      <point x="502" y="376"/>
      <point x="502" y="563" type="curve" smooth="yes"/>
      <point x="502" y="620"/>
      <point x="501" y="672"/>
      <point x="499" y="714" type="curve"/>
      <point x="466" y="723"/>
      <point x="436" y="726"/>
      <point x="402" y="726" type="curve" smooth="yes"/>
      <point x="344" y="726"/>
      <point x="293" y="711"/>
      <point x="265" y="692" type="curve"/>
      <point x="288" y="514"/>
      <point x="295" y="316"/>
      <point x="295" y="218" type="curve" smooth="yes"/>
      <point x="295" y="68"/>
      <point x="259" y="41"/>
      <point x="223" y="41" type="curve" smooth="yes"/>
      <point x="188" y="41"/>
      <point x="169" y="82"/>
      <point x="152" y="190" type="curve"/>
      <point x="97" y="183"/>
      <point x="46" y="164"/>
      <point x="3" y="127" type="curve"/>
      <point x="10" y="37"/>
      <point x="97" y="-88"/>
    </contour>
  </outline>
</glyph>
<glyph name="L" format="1">
  <advance width="553"/>
  <unicode hex="004C"/>
  <outline>
    <contour>
      <point x="123" y="-106" type="curve"/>
      <point x="285" y="-87"/>
      <point x="408" y="-73"/>
      <point x="558" y="-73" type="curve"/>
      <point x="558" y="-25"/>
      <point x="545" y="50"/>
      <point x="535" y="81" type="curve"/>
      <point x="471" y="81"/>
      <point x="357" y="67"/>
      <point x="290" y="47" type="curve"/>
      <point x="275" y="137"/>
      <point x="275" y="257"/>
      <point x="275" y="362" type="curve" smooth="yes"/>
      <point x="275" y="489"/>
      <point x="282" y="607"/>
      <point x="293" y="673" type="curve"/>
      <point x="275" y="675"/>
      <point x="258" y="676"/>
      <point x="241" y="676" type="curve" smooth="yes"/>
      <point x="175" y="676"/>
      <point x="115" y="666"/>
      <point x="62" y="652" type="curve"/>
      <point x="62" y="434"/>
      <point x="94" y="77"/>
    </contour>
  </outline>
</glyph>
<glyph name="M" format="1">
  <advance width="871"/>
  <unicode hex="004D"/>
  <outline>
    <contour>
      <point x="408" y="198"/>
      <point x="445" y="201"/>
      <point x="481" y="212" type="curve"/>
      <point x="574" y="324"/>
      <point x="688" y="512"/>
      <point x="797" y="710" type="curve"/>
      <point x="747" y="735"/>
      <point x="693" y="744"/>
      <point x="627" y="756" type="curve"/>
      <point x="573" y="605"/>
      <point x="521" y="501"/>
      <point x="445" y="387" type="curve"/>
      <point x="482" y="384" type="line"/>
      <point x="426" y="533"/>
      <point x="346" y="664"/>
      <point x="267" y="767" type="curve"/>
      <point x="191" y="758"/>
      <point x="114" y="726"/>
      <point x="60" y="689" type="curve"/>
      <point x="196" y="546"/>
      <point x="285" y="377"/>
      <point x="371" y="198" type="curve"/>
    </contour>
    <contour>
      <point x="167" y="-4"/>
      <point x="255" y="5"/>
      <point x="291" y="16" type="curve"/>
      <point x="261" y="121"/>
      <point x="241" y="291"/>
      <point x="241" y="455" type="curve" smooth="yes"/>
      <point x="241" y="501"/>
      <point x="244" y="591"/>
      <point x="260" y="684" type="curve"/>
      <point x="60" y="689" type="line"/>
      <point x="60" y="484"/>
      <point x="80" y="172"/>
      <point x="105" y="-4" type="curve"/>
    </contour>
    <contour>
      <point x="700" y="-61"/>
      <point x="754" y="-46"/>
      <point x="811" y="-24" type="curve"/>
      <point x="811" y="169"/>
      <point x="808" y="484"/>
      <point x="797" y="710" type="curve"/>
      <point x="630" y="710" type="line"/>
      <point x="630" y="523"/>
      <point x="613" y="137"/>
      <point x="603" y="-61" type="curve"/>
    </contour>
  </outline>
</glyph>
<glyph name="N" format="1">
  <advance width="740"/>
  <unicode hex="004E"/>
  <outline>
    <contour>
      <point x="98" y="-45" type="curve"/>
      <point x="155" y="-45"/>
      <point x="229" y="-35"/>
      <point x="262" y="-25" type="curve"/>
      <point x="262" y="27"/>
      <point x="262" y="95"/>
      <point x="262" y="169" type="curve" smooth="yes"/>
      <point x="262" y="350"/>
      <point x="263" y="565"/>
      <point x="273" y="676" type="curve"/>
      <point x="240" y="685"/>
      <point x="223" y="688"/>
      <point x="189" y="688" type="curve" smooth="yes"/>
      <point x="134" y="688"/>
      <point x="87" y="672"/>
      <point x="60" y="654" type="curve"/>
      <point x="60" y="439"/>
      <point x="82" y="143"/>
    </contour>
    <contour>
      <point x="680" y="762" type="curve"/>
      <point x="605" y="762"/>
      <point x="536" y="748"/>
      <point x="476" y="729" type="curve"/>
      <point x="490" y="637"/>
      <point x="495" y="494"/>
      <point x="495" y="351" type="curve" smooth="yes"/>
      <point x="495" y="225"/>
      <point x="491" y="100"/>
      <point x="484" y="12" type="curve"/>
      <point x="551" y="15"/>
      <point x="610" y="24"/>
      <point x="665" y="33" type="curve"/>
      <point x="676" y="177"/>
      <point x="685" y="366"/>
      <point x="685" y="549" type="curve" smooth="yes"/>
      <point x="685" y="622"/>
      <point x="683" y="694"/>
    </contour>
    <contour>
      <point x="60" y="654" type="curve"/>
      <point x="256" y="467"/>
      <point x="374" y="260"/>
      <point x="484" y="12" type="curve"/>
      <point x="590" y="85" type="line"/>
      <point x="505" y="322"/>
      <point x="417" y="517"/>
      <point x="275" y="712" type="curve"/>
      <point x="188" y="709"/>
      <point x="111" y="686"/>
    </contour>
  </outline>
</glyph>
<glyph name="O" format="1">
  <advance width="679"/>
  <unicode hex="004F"/>
  <outline>
    <contour>
      <point x="383" y="733" type="curve" smooth="yes"/>
      <point x="170" y="733"/>
      <point x="30" y="558"/>
      <point x="30" y="323" type="curve" smooth="yes"/>
      <point x="30" y="149"/>
      <point x="101" y="-20"/>
      <point x="294" y="-20" type="curve" smooth="yes"/>
      <point x="567" y="-20"/>
      <point x="649" y="269"/>
      <point x="649" y="432" type="curve" smooth="yes"/>
      <point x="649" y="627"/>
      <point x="550" y="733"/>
    </contour>
    <contour>
      <point x="340" y="603" type="curve" smooth="yes"/>
      <point x="405" y="603"/>
      <point x="440" y="540"/>
      <point x="440" y="377" type="curve" smooth="yes"/>
      <point x="440" y="264"/>
      <point x="418" y="110"/>
      <point x="337" y="110" type="curve" smooth="yes"/>
      <point x="264" y="110"/>
      <point x="235" y="242"/>
      <point x="235" y="351" type="curve" smooth="yes"/>
      <point x="235" y="502"/>
      <point x="279" y="603"/>
    </contour>
  </outline>
</glyph>
<glyph name="P" format="1">
  <advance width="634"/>
  <unicode hex="0050"/>
  <outline>
    <contour>
      <point x="68" y="684" type="curve"/>
      <point x="64" y="635"/>
      <point x="61" y="586"/>
      <point x="61" y="538" type="curve" smooth="yes"/>
      <point x="61" y="340"/>
      <point x="75" y="142"/>
      <point x="98" y="-55" type="curve"/>
      <point x="149" y="-64"/>
      <point x="217" y="-68"/>
      <point x="270" y="-68" type="curve"/>
      <point x="266" y="27"/>
      <point x="261" y="123"/>
      <point x="261" y="221" type="curve" smooth="yes"/>
      <point x="261" y="376"/>
      <point x="268" y="529"/>
      <point x="283" y="675" type="curve"/>
      <point x="250" y="684"/>
      <point x="224" y="690"/>
      <point x="182" y="690" type="curve" smooth="yes"/>
      <point x="151" y="690"/>
      <point x="100" y="689"/>
    </contour>
    <contour>
      <point x="121" y="561" type="curve"/>
      <point x="163" y="588"/>
      <point x="232" y="629"/>
      <point x="300" y="629" type="curve" smooth="yes"/>
      <point x="376" y="629"/>
      <point x="409" y="564"/>
      <point x="409" y="499" type="curve" smooth="yes"/>
      <point x="409" y="408"/>
      <point x="336" y="347"/>
      <point x="231" y="332" type="curve"/>
      <point x="250" y="206" type="line"/>
      <point x="477" y="265"/>
      <point x="614" y="396"/>
      <point x="614" y="547" type="curve" smooth="yes"/>
      <point x="614" y="660"/>
      <point x="527" y="742"/>
      <point x="344" y="742" type="curve" smooth="yes"/>
      <point x="247" y="742"/>
      <point x="132" y="722"/>
      <point x="68" y="684" type="curve"/>
      <point x="74" y="643"/>
      <point x="94" y="603"/>
    </contour>
  </outline>
</glyph>
<glyph name="U" format="1">
  <advance width="624"/>
  <unicode hex="0055"/>
  <outline>
    <contour>
      <point x="71" y="587"/>
      <point x="35" y="426"/>
      <point x="35" y="265" type="curve" smooth="yes"/>
      <point x="35" y="93"/>
      <point x="88" y="-80"/>
      <point x="281" y="-80" type="curve" smooth="yes"/>
      <point x="541" y="-80"/>
      <point x="594" y="187"/>
      <point x="594" y="412" type="curve" smooth="yes"/>
      <point x="594" y="524"/>
      <point x="572" y="632"/>
      <point x="555" y="712" type="curve"/>
      <point x="498" y="712"/>
      <point x="403" y="699"/>
      <point x="344" y="674" type="curve"/>
      <point x="353" y="635"/>
      <point x="385" y="497"/>
      <point x="385" y="350" type="curve" smooth="yes"/>
      <point x="385" y="204"/>
      <point x="370" y="50"/>
      <point x="312" y="50" type="curve" smooth="yes"/>
      <point x="268" y="50"/>
      <point x="250" y="165"/>
      <point x="250" y="305" type="curve" smooth="yes"/>
      <point x="250" y="407"/>
      <point x="261" y="518"/>
      <point x="278" y="619" type="curve"/>
      <point x="263" y="628"/>
      <point x="234" y="634"/>
      <point x="190" y="634" type="curve" smooth="yes"/>
      <point x="151" y="634"/>
      <point x="112" y="628"/>
      <point x="90" y="622" type="curve"/>
    </contour>
  </outline>
</glyph>
<glyph name="V" format="1">
  <advance width="649"/>
  <unicode hex="0056"/>
  <outline>
    <contour>
      <point x="397" y="-76" type="curve"/>
      <point x="516" y="154"/>
      <point x="620" y="458"/>
      <point x="659" y="730" type="curve"/>
      <point x="604" y="752"/>
      <point x="539" y="765"/>
      <point x="478" y="769" type="curve"/>
      <point x="450" y="553"/>
      <point x="396" y="303"/>
      <point x="333" y="120" type="curve"/>
      <point x="283" y="269"/>
      <point x="239" y="476"/>
      <point x="217" y="640" type="curve"/>
      <point x="137" y="639"/>
      <point x="60" y="624"/>
      <point x="0" y="597" type="curve"/>
      <point x="50" y="353"/>
      <point x="131" y="119"/>
      <point x="217" y="-98" type="curve"/>
      <point x="284" y="-98"/>
      <point x="355" y="-93"/>
    </contour>
  </outline>
</glyph>
<glyph name="Y" format="1">
  <advance width="578"/>
  <unicode hex="0059"/>
  <outline>
    <contour>
      <point x="-10" y="673" type="curve"/>
      <point x="30" y="497"/>
      <point x="104" y="322"/>
      <point x="222" y="188" type="curve"/>
      <point x="324" y="329" type="line"/>
      <point x="253" y="465"/>
      <point x="210" y="575"/>
      <point x="189" y="737" type="curve"/>
      <point x="109" y="733"/>
      <point x="46" y="713"/>
    </contour>
    <contour>
      <point x="387" y="729" type="curve"/>
      <point x="337" y="429"/>
      <point x="251" y="214"/>
      <point x="102" y="-33" type="curve"/>
      <point x="138" y="-62"/>
      <point x="208" y="-91"/>
      <point x="256" y="-103" type="curve"/>
      <point x="410" y="140"/>
      <point x="511" y="383"/>
      <point x="583" y="661" type="curve"/>
      <point x="528" y="698"/>
      <point x="466" y="719"/>
    </contour>
  </outline>
</glyph>
<glyph name="bracketleft" format="1">
  <advance width="435"/>
  <unicode hex="005B"/>
  <outline>
    <contour>
      <point x="132" y="-143" type="curve"/>
      <point x="230" y="-143"/>
      <point x="328" y="-136"/>
      <point x="420" y="-125" type="curve"/>
      <point x="420" y="-85"/>
      <point x="410" y="-21"/>
      <point x="401" y="5" type="curve"/>
      <point x="363" y="-2"/>
      <point x="296" y="-13"/>
      <point x="252" y="-13" type="curve"/>
      <point x="228" y="251"/>
      <point x="218" y="528"/>
      <point x="245" y="748" type="curve"/>
      <point x="170" y="748"/>
      <point x="121" y="758"/>
      <point x="64" y="756" type="curve"/>
      <point x="68" y="490"/>
      <point x="97" y="75"/>
    </contour>
    <contour>
      <point x="388" y="798" type="curve"/>
      <point x="260" y="794"/>
      <point x="170" y="777"/>
      <point x="64" y="756" type="curve"/>
      <point x="64" y="723"/>
      <point x="78" y="690"/>
      <point x="92" y="654" type="curve"/>
      <point x="186" y="668"/>
      <point x="283" y="671"/>
      <point x="378" y="671" type="curve"/>
      <point x="385" y="704"/>
      <point x="388" y="750"/>
    </contour>
  </outline>
</glyph>
<glyph name="c" format="1">
  <advance width="526"/>
  <unicode hex="0063"/>
  <outline>
    <contour>
      <point x="343" y="342" type="curve"/>
      <point x="411" y="342"/>
      <point x="469" y="349"/>
      <point x="516" y="372" type="curve"/>
      <point x="516" y="468"/>
      <point x="454" y="543"/>
      <point x="318" y="543" type="curve" smooth="yes"/>
      <point x="132" y="543"/>
      <point x="30" y="355"/>
      <point x="30" y="203" type="curve" smooth="yes"/>
      <point x="30" y="82"/>
      <point x="97" y="-25"/>
      <point x="251" y="-25" type="curve" smooth="yes"/>
      <point x="420" y="-25"/>
      <point x="494" y="79"/>
      <point x="505" y="114" type="curve"/>
      <point x="481" y="149"/>
      <point x="439" y="176"/>
      <point x="402" y="183" type="curve"/>
      <point x="379" y="150"/>
      <point x="337" y="86"/>
      <point x="288" y="86" type="curve" smooth="yes"/>
      <point x="247" y="86"/>
      <point x="231" y="143"/>
      <point x="231" y="210" type="curve" smooth="yes"/>
      <point x="231" y="326"/>
      <point x="264" y="446"/>
      <point x="304" y="446" type="curve" smooth="yes"/>
      <point x="334" y="446"/>
      <point x="343" y="403"/>
    </contour>
  </outline>
</glyph>
<glyph name="e" format="1">
  <advance width="545"/>
  <unicode hex="0065"/>
  <outline>
    <contour>
      <point x="164" y="234" type="line"/>
      <point x="208" y="216"/>
      <point x="256" y="208"/>
      <point x="299" y="208" type="curve" smooth="yes"/>
      <point x="372" y="208"/>
      <point x="437" y="215"/>
      <point x="484" y="238" type="curve"/>
      <point x="498" y="277"/>
      <point x="507" y="334"/>
      <point x="507" y="375" type="curve" smooth="yes"/>
      <point x="507" y="466"/>
      <point x="439" y="531"/>
      <point x="323" y="531" type="curve" smooth="yes"/>
      <point x="169" y="531"/>
      <point x="30" y="362"/>
      <point x="30" y="169" type="curve" smooth="yes"/>
      <point x="30" y="46"/>
      <point x="97" y="-56"/>
      <point x="251" y="-56" type="curve" smooth="yes"/>
      <point x="420" y="-56"/>
      <point x="494" y="48"/>
      <point x="505" y="83" type="curve"/>
      <point x="471" y="118"/>
      <point x="413" y="148"/>
      <point x="363" y="157" type="curve"/>
      <point x="352" y="121"/>
      <point x="320" y="55"/>
      <point x="288" y="55" type="curve" smooth="yes"/>
      <point x="246" y="55"/>
      <point x="228" y="106"/>
      <point x="228" y="179" type="curve" smooth="yes"/>
      <point x="228" y="293"/>
      <point x="263" y="431"/>
      <point x="309" y="431" type="curve" smooth="yes"/>
      <point x="326" y="431"/>
      <point x="331" y="413"/>
      <point x="331" y="390" type="curve" smooth="yes"/>
      <point x="331" y="363"/>
      <point x="325" y="333"/>
      <point x="318" y="307" type="curve"/>
      <point x="313" y="306"/>
      <point x="295" y="305"/>
      <point x="285" y="305" type="curve" smooth="yes"/>
      <point x="259" y="305"/>
      <point x="215" y="315"/>
      <point x="173" y="338" type="curve"/>
    </contour>
  </outline>
</glyph>
<glyph name="f" format="1">
  <advance width="474"/>
  <unicode hex="0066"/>
  <outline>
    <contour>
      <point x="277" y="-8"/>
      <point x="190" y="-21"/>
      <point x="120" y="-21" type="curve"/>
      <point x="107" y="38"/>
      <point x="81" y="236"/>
      <point x="81" y="391" type="curve" smooth="yes"/>
      <point x="81" y="618"/>
      <point x="170" y="727"/>
      <point x="305" y="727" type="curve" smooth="yes"/>
      <point x="417" y="727"/>
      <point x="464" y="656"/>
      <point x="464" y="584" type="curve" smooth="yes"/>
      <point x="464" y="567"/>
      <point x="461" y="549"/>
      <point x="455" y="534" type="curve"/>
      <point x="404" y="534"/>
      <point x="354" y="544"/>
      <point x="313" y="555" type="curve"/>
      <point x="317" y="566"/>
      <point x="318" y="577"/>
      <point x="318" y="586" type="curve" smooth="yes"/>
      <point x="318" y="610"/>
      <point x="312" y="616"/>
      <point x="302" y="616" type="curve" smooth="yes"/>
      <point x="272" y="616"/>
      <point x="264" y="544"/>
      <point x="264" y="449" type="curve" smooth="yes"/>
      <point x="264" y="282"/>
      <point x="317" y="52"/>
      <point x="329" y="11" type="curve"/>
    </contour>
    <contour>
      <point x="82" y="483"/>
      <point x="221" y="476"/>
      <point x="330" y="476" type="curve" smooth="yes"/>
      <point x="379" y="476"/>
      <point x="421" y="477"/>
      <point x="448" y="482" type="curve"/>
      <point x="448" y="447"/>
      <point x="442" y="396"/>
      <point x="436" y="368" type="curve"/>
      <point x="416" y="361"/>
      <point x="387" y="359"/>
      <point x="345" y="359" type="curve" smooth="yes"/>
      <point x="186" y="359"/>
      <point x="53" y="382"/>
      <point x="10" y="400" type="curve"/>
      <point x="10" y="423"/>
      <point x="21" y="480"/>
      <point x="31" y="490" type="curve"/>
    </contour>
  </outline>
</glyph>
<glyph name="g" format="1">
  <advance width="577"/>
  <unicode hex="0067"/>
  <outline>
    <contour>
      <point x="337" y="417" type="curve"/>
      <point x="496" y="515" type="line"/>
      <point x="442" y="530"/>
      <point x="371" y="541"/>
      <point x="321" y="541" type="curve" smooth="yes"/>
      <point x="124" y="541"/>
      <point x="30" y="433"/>
      <point x="30" y="243" type="curve" smooth="yes"/>
      <point x="30" y="103"/>
      <point x="111" y="4"/>
      <point x="241" y="4" type="curve" smooth="yes"/>
      <point x="325" y="4"/>
      <point x="370" y="74"/>
      <point x="401" y="172" type="curve"/>
      <point x="357" y="202" type="line"/>
      <point x="349" y="157"/>
      <point x="327" y="125"/>
      <point x="306" y="125" type="curve" smooth="yes"/>
      <point x="268" y="125"/>
      <point x="225" y="172"/>
      <point x="225" y="285" type="curve" smooth="yes"/>
      <point x="225" y="376"/>
      <point x="244" y="424"/>
      <point x="289" y="424" type="curve" smooth="yes"/>
      <point x="306" y="424"/>
      <point x="324" y="421"/>
    </contour>
    <contour>
      <point x="424" y="515"/>
      <point x="342" y="506"/>
      <point x="292" y="488" type="curve"/>
      <point x="307" y="438"/>
      <point x="333" y="273"/>
      <point x="333" y="150" type="curve" smooth="yes"/>
      <point x="333" y="-10"/>
      <point x="324" y="-135"/>
      <point x="267" y="-135" type="curve" smooth="yes"/>
      <point x="238" y="-135"/>
      <point x="225" y="-98"/>
      <point x="214" y="-24" type="curve"/>
      <point x="157" y="-31"/>
      <point x="95" y="-53"/>
      <point x="51" y="-87" type="curve"/>
      <point x="51" y="-128"/>
      <point x="79" y="-247"/>
      <point x="250" y="-247" type="curve" smooth="yes"/>
      <point x="398" y="-247"/>
      <point x="533" y="-147"/>
      <point x="533" y="169" type="curve" smooth="yes"/>
      <point x="533" y="298"/>
      <point x="513" y="457"/>
      <point x="496" y="515" type="curve"/>
    </contour>
  </outline>
</glyph>
<glyph name="h" format="1">
  <advance width="598"/>
  <unicode hex="0068"/>
  <outline>
    <contour>
      <point x="548" y="343" type="curve" smooth="yes"/>
      <point x="548" y="492"/>
      <point x="487" y="543"/>
      <point x="392" y="543" type="curve" smooth="yes"/>
      <point x="292" y="543"/>
      <point x="234" y="465"/>
      <point x="199" y="375" type="curve"/>
      <point x="220" y="291" type="line"/>
      <point x="262" y="378"/>
      <point x="296" y="412"/>
      <point x="319" y="412" type="curve" smooth="yes"/>
      <point x="344" y="412"/>
      <point x="350" y="394"/>
      <point x="350" y="342" type="curve" smooth="yes"/>
      <point x="350" y="227"/>
      <point x="322" y="102"/>
      <point x="294" y="3" type="curve"/>
      <point x="347" y="-17"/>
      <point x="408" y="-32"/>
      <point x="469" y="-32" type="curve"/>
      <point x="491" y="18"/>
      <point x="548" y="201"/>
    </contour>
    <contour>
      <point x="72" y="27" type="curve"/>
      <point x="132" y="27"/>
      <point x="218" y="36"/>
      <point x="251" y="47" type="curve"/>
      <point x="249" y="86"/>
      <point x="248" y="123"/>
      <point x="248" y="160" type="curve" smooth="yes"/>
      <point x="248" y="407"/>
      <point x="265" y="610"/>
      <point x="293" y="747" type="curve"/>
      <point x="266" y="754"/>
      <point x="246" y="755"/>
      <point x="216" y="755" type="curve" smooth="yes"/>
      <point x="158" y="755"/>
      <point x="93" y="747"/>
      <point x="62" y="729" type="curve"/>
      <point x="56" y="662"/>
      <point x="55" y="581"/>
      <point x="55" y="496" type="curve" smooth="yes"/>
      <point x="55" y="334"/>
      <point x="63" y="157"/>
    </contour>
  </outline>
</glyph>
<glyph name="i" format="1">
  <advance width="331"/>
  <unicode hex="0069"/>
  <outline>
    <contour>
      <point x="159" y="531"/>
      <point x="122" y="520"/>
      <point x="93" y="505" type="curve"/>
      <point x="71" y="410"/>
      <point x="55" y="228"/>
      <point x="55" y="84" type="curve" smooth="yes"/>
      <point x="55" y="51"/>
      <point x="55" y="19"/>
      <point x="58" y="-7" type="curve"/>
      <point x="75" y="-12"/>
      <point x="90" y="-14"/>
      <point x="118" y="-14" type="curve" smooth="yes"/>
      <point x="166" y="-14"/>
      <point x="201" y="-6"/>
      <point x="225" y="5" type="curve"/>
      <point x="245" y="244"/>
      <point x="281" y="439"/>
      <point x="312" y="519" type="curve"/>
      <point x="283" y="526"/>
      <point x="249" y="531"/>
      <point x="222" y="531" type="curve" smooth="yes"/>
    </contour>
    <contour>
      <point x="319" y="644"/>
      <point x="336" y="708"/>
      <point x="348" y="737" type="curve"/>
      <point x="328" y="747"/>
      <point x="293" y="756"/>
      <point x="248" y="756" type="curve" smooth="yes"/>
      <point x="202" y="756"/>
      <point x="164" y="748"/>
      <point x="133" y="731" type="curve"/>
      <point x="128" y="715"/>
      <point x="127" y="697"/>
      <point x="127" y="681" type="curve" smooth="yes"/>
      <point x="127" y="649"/>
      <point x="133" y="619"/>
      <point x="141" y="594" type="curve"/>
      <point x="219" y="593"/>
      <point x="271" y="597"/>
      <point x="312" y="604" type="curve"/>
    </contour>
  </outline>
</glyph>
<glyph name="m" format="1">
  <advance width="872"/>
  <unicode hex="006D"/>
  <outline>
    <contour>
      <point x="503" y="58"/>
      <point x="530" y="217"/>
      <point x="530" y="343" type="curve" smooth="yes"/>
      <point x="530" y="484"/>
      <point x="476" y="532"/>
      <point x="406" y="532" type="curve" smooth="yes"/>
      <point x="314" y="532"/>
      <point x="252" y="469"/>
      <point x="217" y="375" type="curve"/>
      <point x="236" y="267" type="line"/>
      <point x="252" y="339"/>
      <point x="281" y="381"/>
      <point x="307" y="381" type="curve" smooth="yes"/>
      <point x="331" y="381"/>
      <point x="340" y="361"/>
      <point x="340" y="326" type="curve" smooth="yes"/>
      <point x="340" y="242"/>
      <point x="318" y="110"/>
      <point x="304" y="29" type="curve"/>
      <point x="369" y="18"/>
      <point x="432" y="10"/>
      <point x="490" y="10" type="curve"/>
    </contour>
    <contour>
      <point x="30" y="381"/>
      <point x="59" y="125"/>
      <point x="76" y="2" type="curve"/>
      <point x="131" y="2"/>
      <point x="204" y="11"/>
      <point x="241" y="22" type="curve"/>
      <point x="240" y="51"/>
      <point x="241" y="73"/>
      <point x="241" y="99" type="curve" smooth="yes"/>
      <point x="241" y="253"/>
      <point x="245" y="472"/>
      <point x="258" y="562" type="curve"/>
      <point x="230" y="568"/>
      <point x="204" y="570"/>
      <point x="181" y="570" type="curve" smooth="yes"/>
      <point x="124" y="570"/>
      <point x="62" y="560"/>
      <point x="30" y="544" type="curve"/>
    </contour>
    <contour>
      <point x="779" y="20"/>
      <point x="822" y="226"/>
      <point x="822" y="390" type="curve" smooth="yes"/>
      <point x="822" y="539"/>
      <point x="765" y="590"/>
      <point x="690" y="590" type="curve" smooth="yes"/>
      <point x="589" y="590"/>
      <point x="520" y="525"/>
      <point x="483" y="425" type="curve"/>
      <point x="520" y="314" type="line"/>
      <point x="538" y="393"/>
      <point x="565" y="439"/>
      <point x="591" y="439" type="curve" smooth="yes"/>
      <point x="615" y="439"/>
      <point x="624" y="419"/>
      <point x="624" y="384" type="curve" smooth="yes"/>
      <point x="624" y="269"/>
      <point x="586" y="91"/>
      <point x="561" y="-23" type="curve"/>
      <point x="632" y="-39"/>
      <point x="700" y="-43"/>
      <point x="762" y="-43" type="curve"/>
    </contour>
  </outline>
</glyph>
<glyph name="n" format="1">
  <advance width="598"/>
  <unicode hex="006E"/>
  <outline>
    <contour>
      <point x="521" y="58"/>
      <point x="548" y="217"/>
      <point x="548" y="343" type="curve" smooth="yes"/>
      <point x="548" y="492"/>
      <point x="487" y="543"/>
      <point x="406" y="543" type="curve" smooth="yes"/>
      <point x="314" y="543"/>
      <point x="254" y="475"/>
      <point x="217" y="375" type="curve"/>
      <point x="236" y="267" type="line"/>
      <point x="254" y="347"/>
      <point x="287" y="392"/>
      <point x="317" y="392" type="curve" smooth="yes"/>
      <point x="341" y="392"/>
      <point x="350" y="372"/>
      <point x="350" y="337" type="curve" smooth="yes"/>
      <point x="350" y="250"/>
      <point x="329" y="113"/>
      <point x="314" y="29" type="curve"/>
      <point x="382" y="18"/>
      <point x="448" y="10"/>
      <point x="508" y="10" type="curve"/>
    </contour>
    <contour>
      <point x="41" y="355"/>
      <point x="62" y="86"/>
      <point x="79" y="-42" type="curve"/>
      <point x="134" y="-42"/>
      <point x="207" y="-33"/>
      <point x="244" y="-22" type="curve"/>
      <point x="242" y="24"/>
      <point x="241" y="58"/>
      <point x="241" y="99" type="curve" smooth="yes"/>
      <point x="241" y="247"/>
      <point x="256" y="456"/>
      <point x="269" y="543" type="curve"/>
      <point x="241" y="549"/>
      <point x="215" y="551"/>
      <point x="192" y="551" type="curve" smooth="yes"/>
      <point x="135" y="551"/>
      <point x="73" y="541"/>
      <point x="41" y="525" type="curve"/>
    </contour>
    <contour>
      <point x="312" y="560" type="move" name="top"/>
    </contour>
  </outline>
</glyph>
<glyph name="o" format="1">
  <advance width="559"/>
  <unicode hex="006F"/>
  <outline>
    <contour>
      <point x="323" y="553" type="curve" smooth="yes"/>
      <point x="146" y="553"/>
      <point x="30" y="416"/>
      <point x="30" y="233" type="curve" smooth="yes"/>
      <point x="30" y="110"/>
      <point x="85" y="-10"/>
      <point x="234" y="-10" type="curve" smooth="yes"/>
      <point x="461" y="-10"/>
      <point x="529" y="215"/>
      <point x="529" y="342" type="curve" smooth="yes"/>
      <point x="529" y="479"/>
      <point x="452" y="553"/>
    </contour>
    <contour>
      <point x="280" y="438" type="curve" smooth="yes"/>
      <point x="313" y="438"/>
      <point x="330" y="396"/>
      <point x="330" y="287" type="curve" smooth="yes"/>
      <point x="330" y="213"/>
      <point x="319" y="105"/>
      <point x="277" y="105" type="curve" smooth="yes"/>
      <point x="240" y="105"/>
      <point x="225" y="193"/>
      <point x="225" y="261" type="curve" smooth="yes"/>
      <point x="225" y="367"/>
      <point x="248" y="438"/>
    </contour>
  </outline>
</glyph>
<glyph name="q" format="1">
  <advance width="599"/>
  <unicode hex="0071"/>
  <outline>
    <contour>
      <point x="355" y="412" type="curve"/>
      <point x="367" y="518" type="line"/>
      <point x="356" y="524"/>
      <point x="323" y="529"/>
      <point x="302" y="529" type="curve" smooth="yes"/>
      <point x="134" y="529"/>
      <point x="30" y="397"/>
      <point x="30" y="196" type="curve" smooth="yes"/>
      <point x="30" y="63"/>
      <point x="81" y="-50"/>
      <point x="214" y="-50" type="curve" smooth="yes"/>
      <point x="291" y="-50"/>
      <point x="348" y="35"/>
      <point x="383" y="152" type="curve"/>
      <point x="338" y="195" type="line"/>
      <point x="321" y="114"/>
      <point x="297" y="89"/>
      <point x="276" y="89" type="curve" smooth="yes"/>
      <point x="241" y="89"/>
      <point x="225" y="136"/>
      <point x="225" y="230" type="curve" smooth="yes"/>
      <point x="225" y="366"/>
      <point x="264" y="420"/>
      <point x="314" y="420" type="curve" smooth="yes"/>
      <point x="329" y="420"/>
      <point x="344" y="416"/>
    </contour>
    <contour>
      <point x="426" y="581"/>
      <point x="389" y="570"/>
      <point x="360" y="555" type="curve"/>
      <point x="338" y="460"/>
      <point x="315" y="228"/>
      <point x="315" y="84" type="curve" smooth="yes"/>
      <point x="315" y="51"/>
      <point x="317" y="-209"/>
      <point x="320" y="-235" type="curve"/>
      <point x="337" y="-240"/>
      <point x="352" y="-242"/>
      <point x="380" y="-242" type="curve" smooth="yes"/>
      <point x="428" y="-242"/>
      <point x="463" y="-234"/>
      <point x="487" y="-223" type="curve"/>
      <point x="487" y="72"/>
      <point x="548" y="489"/>
      <point x="579" y="569" type="curve"/>
      <point x="550" y="576"/>
      <point x="516" y="581"/>
      <point x="489" y="581" type="curve" smooth="yes"/>
    </contour>
  </outline>
</glyph>
<glyph name="s" format="1">
  <advance width="519"/>
  <unicode hex="0073"/>
  <outline>
    <contour>
      <point x="276" y="101" type="curve" smooth="yes"/>
      <point x="276" y="70"/>
      <point x="255" y="58"/>
      <point x="225" y="58" type="curve" smooth="yes"/>
      <point x="170" y="58"/>
      <point x="154" y="114"/>
      <point x="154" y="156" type="curve"/>
      <point x="123" y="156"/>
      <point x="61" y="148"/>
      <point x="25" y="130" type="curve"/>
      <point x="25" y="44"/>
      <point x="104" y="-45"/>
      <point x="227" y="-45" type="curve" smooth="yes"/>
      <point x="354" y="-45"/>
      <point x="468" y="29"/>
      <point x="468" y="143" type="curve" smooth="yes"/>
      <point x="468" y="313"/>
      <point x="234" y="340"/>
      <point x="234" y="416" type="curve" smooth="yes"/>
      <point x="234" y="436"/>
      <point x="246" y="453"/>
      <point x="270" y="453" type="curve" smooth="yes"/>
      <point x="304" y="453"/>
      <point x="322" y="424"/>
      <point x="331" y="363" type="curve"/>
      <point x="401" y="368"/>
      <point x="451" y="378"/>
      <point x="494" y="407" type="curve"/>
      <point x="475" y="498"/>
      <point x="403" y="567"/>
      <point x="264" y="567" type="curve" smooth="yes"/>
      <point x="132" y="567"/>
      <point x="45" y="486"/>
      <point x="45" y="382" type="curve" smooth="yes"/>
      <point x="45" y="212"/>
      <point x="276" y="195"/>
    </contour>
  </outline>
</glyph>
<glyph name="t" format="1">
  <advance width="460"/>
  <unicode hex="0074"/>
  <outline>
    <contour>
      <point x="262" y="614"/>
      <point x="176" y="623"/>
      <point x="104" y="623" type="curve"/>
      <point x="86" y="563"/>
      <point x="60" y="402"/>
      <point x="60" y="270" type="curve" smooth="yes"/>
      <point x="60" y="73"/>
      <point x="163" y="11"/>
      <point x="272" y="11" type="curve" smooth="yes"/>
      <point x="418" y="11"/>
      <point x="442" y="139"/>
      <point x="442" y="183" type="curve"/>
      <point x="406" y="211"/>
      <point x="356" y="232"/>
      <point x="309" y="237" type="curve"/>
      <point x="307" y="159"/>
      <point x="296" y="123"/>
      <point x="285" y="123" type="curve" smooth="yes"/>
      <point x="266" y="123"/>
      <point x="264" y="179"/>
      <point x="264" y="251" type="curve" smooth="yes"/>
      <point x="264" y="377"/>
      <point x="297" y="545"/>
      <point x="312" y="596" type="curve"/>
    </contour>
    <contour>
      <point x="17" y="511"/>
      <point x="10" y="465"/>
      <point x="10" y="429" type="curve"/>
      <point x="53" y="416"/>
      <point x="153" y="399"/>
      <point x="256" y="399" type="curve" smooth="yes"/>
      <point x="333" y="399"/>
      <point x="397" y="401"/>
      <point x="431" y="408" type="curve"/>
      <point x="443" y="442"/>
      <point x="450" y="484"/>
      <point x="450" y="513" type="curve"/>
      <point x="444" y="512"/>
      <point x="423" y="510"/>
      <point x="396" y="510" type="curve" smooth="yes"/>
      <point x="324" y="510"/>
      <point x="106" y="513"/>
      <point x="33" y="535" type="curve"/>
    </contour>
  </outline>
</glyph>
<glyph name="u" format="1">
  <advance width="549"/>
  <unicode hex="0075"/>
  <outline>
    <contour>
      <point x="62" y="500"/>
      <point x="30" y="383"/>
      <point x="30" y="265" type="curve" smooth="yes"/>
      <point x="30" y="128"/>
      <point x="77" y="-10"/>
      <point x="246" y="-10" type="curve" smooth="yes"/>
      <point x="473" y="-10"/>
      <point x="519" y="203"/>
      <point x="519" y="382" type="curve" smooth="yes"/>
      <point x="519" y="433"/>
      <point x="516" y="485"/>
      <point x="509" y="519" type="curve"/>
      <point x="452" y="519"/>
      <point x="365" y="509"/>
      <point x="306" y="484" type="curve"/>
      <point x="310" y="466"/>
      <point x="318" y="396"/>
      <point x="318" y="323" type="curve" smooth="yes"/>
      <point x="318" y="221"/>
      <point x="307" y="110"/>
      <point x="277" y="110" type="curve" smooth="yes"/>
      <point x="247" y="110"/>
      <point x="235" y="198"/>
      <point x="235" y="305" type="curve" smooth="yes"/>
      <point x="235" y="376"/>
      <point x="242" y="453"/>
      <point x="254" y="523" type="curve"/>
      <point x="239" y="532"/>
      <point x="210" y="538"/>
      <point x="166" y="538" type="curve" smooth="yes"/>
      <point x="131" y="538"/>
      <point x="96" y="531"/>
      <point x="76" y="526" type="curve"/>
    </contour>
  </outline>
</glyph>
<glyph name="v" format="1">
  <advance width="528"/>
  <unicode hex="0076"/>
  <outline>
    <contour>
      <point x="323" y="27" type="curve"/>
      <point x="411" y="174"/>
      <point x="489" y="357"/>
      <point x="531" y="520" type="curve"/>
      <point x="477" y="541"/>
      <point x="414" y="555"/>
      <point x="355" y="559" type="curve"/>
      <point x="339" y="437"/>
      <point x="309" y="298"/>
      <point x="273" y="195" type="curve"/>
      <point x="259" y="314"/>
      <point x="231" y="471"/>
      <point x="191" y="586" type="curve"/>
      <point x="111" y="585"/>
      <point x="34" y="570"/>
      <point x="-26" y="543" type="curve"/>
      <point x="58" y="364"/>
      <point x="115" y="185"/>
      <point x="149" y="7" type="curve"/>
      <point x="214" y="7"/>
      <point x="282" y="10"/>
    </contour>
  </outline>
</glyph>
<glyph name="w" format="1">
  <advance width="816"/>
  <unicode hex="0077"/>
  <outline>
    <contour>
      <point x="629" y="-8" type="curve"/>
      <point x="715" y="129"/>
      <point x="777" y="318"/>
      <point x="821" y="477" type="curve"/>
      <point x="773" y="505"/>
      <point x="729" y="516"/>
      <point x="656" y="521" type="curve"/>
      <point x="645" y="415"/>
      <point x="631" y="306"/>
      <point x="596" y="173" type="curve"/>
      <point x="609" y="173" type="line"/>
      <point x="586" y="314"/>
      <point x="565" y="422"/>
      <point x="533" y="527" type="curve"/>
      <point x="477" y="529"/>
      <point x="404" y="516"/>
      <point x="346" y="503" type="curve"/>
      <point x="323" y="396"/>
      <point x="294" y="290"/>
      <point x="250" y="156" type="curve"/>
      <point x="265" y="155" type="line"/>
      <point x="235" y="303"/>
      <point x="228" y="424"/>
      <point x="222" y="550" type="curve"/>
      <point x="144" y="547"/>
      <point x="70" y="535"/>
      <point x="-2" y="513" type="curve"/>
      <point x="30" y="329"/>
      <point x="73" y="162"/>
      <point x="134" y="-3" type="curve"/>
      <point x="185" y="-2"/>
      <point x="260" y="8"/>
      <point x="303" y="21" type="curve"/>
      <point x="350" y="118"/>
      <point x="389" y="223"/>
      <point x="434" y="346" type="curve"/>
      <point x="402" y="347" type="line"/>
      <point x="435" y="203"/>
      <point x="458" y="80"/>
      <point x="476" y="-37" type="curve"/>
      <point x="529" y="-34"/>
      <point x="595" y="-22"/>
    </contour>
  </outline>
</glyph>
<glyph name="x" format="1">
  <advance width="554"/>
  <unicode hex="0078"/>
  <outline>
    <contour>
      <point x="-2" y="449" type="curve"/>
      <point x="142" y="295"/>
      <point x="254" y="125"/>
      <point x="369" y="-56" type="curve"/>
      <point x="419" y="-32"/>
      <point x="479" y="3"/>
      <point x="510" y="37" type="curve"/>
      <point x="415" y="221"/>
      <point x="309" y="399"/>
      <point x="184" y="561" type="curve"/>
      <point x="118" y="537"/>
      <point x="48" y="492"/>
    </contour>
    <contour>
      <point x="217" y="297" type="line"/>
      <point x="140" y="215"/>
      <point x="59" y="135"/>
      <point x="-24" y="58" type="curve"/>
      <point x="-6" y="24"/>
      <point x="23" y="-18"/>
      <point x="53" y="-42" type="curve"/>
      <point x="137" y="23"/>
      <point x="215" y="95"/>
      <point x="294" y="169" type="curve"/>
    </contour>
    <contour>
      <point x="447" y="561" type="curve"/>
      <point x="374" y="460"/>
      <point x="312" y="377"/>
      <point x="235" y="295" type="curve"/>
      <point x="311" y="164" type="line"/>
      <point x="401" y="247"/>
      <point x="487" y="335"/>
      <point x="569" y="429" type="curve"/>
      <point x="541" y="481"/>
      <point x="496" y="530"/>
    </contour>
  </outline>
</glyph>
<glyph name="y" format="1">
  <advance width="579"/>
  <unicode hex="0079"/>
  <outline>
    <contour>
      <point x="2" y="439" type="curve"/>
      <point x="46" y="281"/>
      <point x="125" y="128"/>
      <point x="231" y="-4" type="curve"/>
      <point x="325" y="78" type="line"/>
      <point x="268" y="218"/>
      <point x="220" y="354"/>
      <point x="199" y="516" type="curve"/>
      <point x="115" y="505"/>
      <point x="60" y="482"/>
    </contour>
    <contour>
      <point x="395" y="551" type="curve"/>
      <point x="299" y="282"/>
      <point x="210" y="56"/>
      <point x="75" y="-173" type="curve"/>
      <point x="105" y="-198"/>
      <point x="163" y="-224"/>
      <point x="202" y="-234" type="curve"/>
      <point x="358" y="-9"/>
      <point x="465" y="212"/>
      <point x="572" y="464" type="curve"/>
      <point x="527" y="507"/>
      <point x="467" y="534"/>
    </contour>
  </outline>
</glyph>
<glyph name="bn_danda" format="1">
  <advance width="586"/>
  <unicode hex="0964"/>
  <outline>
    <contour>
      <point x="360" y="-106"/>
      <point x="427" y="-98"/>
      <point x="469" y="-81" type="curve"/>
      <point x="450" y="2"/>
      <point x="440" y="126"/>
      <point x="440" y="262" type="curve" smooth="yes"/>
      <point x="440.0" y="387.178832117"/>
      <point x="447.521943094" y="489.238909474"/>
      <point x="455" y="595" type="curve"/>
      <point x="324" y="580" type="line"/>
      <point x="303.136698252" y="387.014458828"/>
      <point x="302.0" y="257.698412698"/>
      <point x="302" y="56" type="curve" smooth="yes"/>
      <point x="302" y="-2"/>
      <point x="309" y="-56"/>
      <point x="311" y="-106" type="curve"/>
    </contour>
  </outline>
</glyph>
<glyph name="bn_chandrabindu" format="1">
  <advance width="300"/>
  <unicode hex="0981"/>
  <outline>
    <contour>
      <point x="237" y="686"/>
      <point x="311" y="754"/>
      <point x="328" y="848" type="curve"/>
      <point x="252" y="872" type="line"/>
      <point x="240" y="833"/>
      <point x="212" y="804"/>
      <point x="168" y="804" type="curve" smooth="yes"/>
      <point x="132" y="804"/>
      <point x="96" y="828"/>
      <point x="88" y="859" type="curve"/>
      <point x="-20" y="832" type="line"/>
      <point x="-13" y="750"/>
      <point x="56" y="686"/>
      <point x="146" y="686" type="curve" smooth="yes"/>
    </contour>
    <contour>
      <point x="201" y="838"/>
      <point x="229" y="867"/>
      <point x="229" y="902" type="curve" smooth="yes"/>
      <point x="229" y="938"/>
      <point x="204" y="968"/>
      <point x="165" y="968" type="curve" smooth="yes"/>
      <point x="130" y="968"/>
      <point x="103" y="939"/>
      <point x="103" y="902" type="curve" smooth="yes"/>
      <point x="103" y="868"/>
      <point x="128" y="838"/>
      <point x="167" y="838" type="curve" smooth="yes"/>
    </contour>
  </outline>
</glyph>
<glyph name="bn_anusvar" format="1">
  <advance width="459"/>
  <unicode hex="0982"/>
  <outline>
    <contour>
      <point x="392" y="-43"/>
      <point x="427" y="-7"/>
      <point x="444" y="28" type="curve"/>
      <point x="379" y="150"/>
      <point x="217" y="278"/>
      <point x="77" y="327" type="curve"/>
      <point x="43" y="289"/>
      <point x="17" y="241"/>
      <point x="-1" y="183" type="curve"/>
      <point x="125" y="153"/>
      <point x="275" y="64"/>
      <point x="350" y="-63" type="curve"/>
    </contour>
    <contour>
      <point x="311" y="320"/>
      <point x="391" y="397"/>
      <point x="393" y="493" type="curve" smooth="yes"/>
      <point x="395" y="582"/>
      <point x="328" y="648"/>
      <point x="237" y="648" type="curve" smooth="yes"/>
      <point x="138" y="648"/>
      <point x="60" y="571"/>
      <point x="58" y="472" type="curve" smooth="yes"/>
      <point x="56" y="386"/>
      <point x="124" y="320"/>
      <point x="213" y="320" type="curve" smooth="yes"/>
    </contour>
    <contour>
      <point x="203" y="423"/>
      <point x="161" y="460"/>
      <point x="161" y="505" type="curve" smooth="yes"/>
      <point x="161" y="530"/>
      <point x="179" y="546"/>
      <point x="206" y="546" type="curve" smooth="yes"/>
      <point x="249" y="546"/>
      <point x="290" y="508"/>
      <point x="290" y="461" type="curve" smooth="yes"/>
      <point x="290" y="438"/>
      <point x="272" y="423"/>
      <point x="246" y="423" type="curve" smooth="yes"/>
    </contour>
  </outline>
</glyph>
<glyph name="bn_bisarga" format="1">
  <advance width="435"/>
  <unicode hex="0983"/>
  <outline>
    <contour>
      <point x="308" y="320"/>
      <point x="389" y="397"/>
      <point x="390" y="493" type="curve" smooth="yes"/>
      <point x="392" y="582"/>
      <point x="325" y="648"/>
      <point x="234" y="648" type="curve" smooth="yes"/>
      <point x="135" y="648"/>
      <point x="57" y="571"/>
      <point x="55" y="472" type="curve" smooth="yes"/>
      <point x="53" y="386"/>
      <point x="121" y="320"/>
      <point x="210" y="320" type="curve" smooth="yes"/>
    </contour>
    <contour>
      <point x="306" y="-26"/>
      <point x="383" y="49"/>
      <point x="383" y="143" type="curve" smooth="yes"/>
      <point x="383" y="228"/>
      <point x="316" y="293"/>
      <point x="229" y="293" type="curve" smooth="yes"/>
      <point x="133" y="293"/>
      <point x="58" y="218"/>
      <point x="58" y="122" type="curve" smooth="yes"/>
      <point x="58" y="38"/>
      <point x="124" y="-26"/>
      <point x="211" y="-26" type="curve" smooth="yes"/>
    </contour>
    <contour>
      <point x="198" y="76"/>
      <point x="161" y="112"/>
      <point x="161" y="152" type="curve" smooth="yes"/>
      <point x="161" y="176"/>
      <point x="176" y="191"/>
      <point x="202" y="191" type="curve" smooth="yes"/>
      <point x="245" y="191"/>
      <point x="280" y="155"/>
      <point x="280" y="112" type="curve" smooth="yes"/>
      <point x="280" y="90"/>
      <point x="265" y="76"/>
      <point x="240" y="76" type="curve" smooth="yes"/>
    </contour>
    <contour>
      <point x="200" y="423"/>
      <point x="158" y="460"/>
      <point x="158" y="505" type="curve" smooth="yes"/>
      <point x="158" y="530"/>
      <point x="176" y="546"/>
      <point x="203" y="546" type="curve" smooth="yes"/>
      <point x="246" y="546"/>
      <point x="287" y="508"/>
      <point x="287" y="461" type="curve" smooth="yes"/>
      <point x="287" y="438"/>
      <point x="269" y="423"/>
      <point x="243" y="423" type="curve" smooth="yes"/>
    </contour>
  </outline>
</glyph>
<glyph name="bn_a" format="1">
  <advance width="742"/>
  <unicode hex="0985"/>
  <note>
	uni0985
  </note>
  <outline>
    <contour>
      <point x="406" y="45"/>
      <point x="466" y="129"/>
      <point x="466" y="235" type="curve" smooth="yes"/>
      <point x="466" y="363"/>
      <point x="395" y="494"/>
      <point x="282" y="494" type="curve" smooth="yes"/>
      <point x="213" y="494"/>
      <point x="169" y="435"/>
      <point x="164" y="346" type="curve"/>
      <point x="177" y="325"/>
      <point x="239" y="303"/>
      <point x="281" y="301" type="curve"/>
      <point x="274" y="345"/>
      <point x="282" y="383"/>
      <point x="312" y="383" type="curve" smooth="yes"/>
      <point x="342" y="383"/>
      <point x="361" y="345"/>
      <point x="361" y="302" type="curve" smooth="yes"/>
      <point x="361" y="236"/>
      <point x="335" y="197"/>
      <point x="287" y="197" type="curve" smooth="yes"/>
      <point x="218" y="197"/>
      <point x="139" y="304"/>
      <point x="88" y="441" type="curve"/>
      <point x="58" y="432"/>
      <point x="29" y="417"/>
      <point x="6" y="402" type="curve"/>
      <point x="57" y="221"/>
      <point x="146" y="45"/>
      <point x="306" y="45" type="curve" smooth="yes"/>
    </contour>
    <contour>
      <point x="521" y="46" type="line"/>
      <point x="492" y="107"/>
      <point x="451" y="162"/>
      <point x="406" y="203" type="curve"/>
      <point x="282" y="142" type="line"/>
      <point x="358" y="110"/>
      <point x="420" y="61"/>
      <point x="470" y="-14" type="curve"/>
    </contour>
    <contour>
      <point x="495" y="573" type="line"/>
      <point x="511" y="499"/>
      <point x="517" y="423"/>
      <point x="517" y="292" type="curve" smooth="yes"/>
      <point x="517" y="164"/>
      <point x="506" y="73"/>
      <point x="470" y="-14" type="curve"/>
      <point x="499" y="-28"/>
      <point x="555" y="-38"/>
      <point x="597" y="-38" type="curve"/>
      <point x="634" y="55"/>
      <point x="652" y="218"/>
      <point x="652" y="350" type="curve" smooth="yes"/>
      <point x="652" y="438"/>
      <point x="645" y="514"/>
      <point x="638" y="579" type="curve"/>
    </contour>
    <contour>
      <point x="95" y="523"/>
      <point x="233" y="538"/>
      <point x="395" y="538" type="curve" smooth="yes"/>
      <point x="544" y="538"/>
      <point x="661" y="523"/>
      <point x="742" y="506" type="curve"/>
      <point x="746" y="521"/>
      <point x="750" y="546"/>
      <point x="750" y="571" type="curve" smooth="yes"/>
      <point x="750" y="591"/>
      <point x="747" y="612"/>
      <point x="742" y="625" type="curve"/>
      <point x="668" y="645"/>
      <point x="549" y="661"/>
      <point x="400" y="661" type="curve" smooth="yes"/>
      <point x="235" y="661"/>
      <point x="92" y="645"/>
      <point x="0" y="625" type="curve"/>
      <point x="-7" y="613"/>
      <point x="-10" y="594"/>
      <point x="-10" y="573" type="curve" smooth="yes"/>
      <point x="-10" y="549"/>
      <point x="-6" y="522"/>
      <point x="0" y="506" type="curve"/>
    </contour>
  </outline>
</glyph>
<glyph name="bn_aa" format="1">
  <advance width="1036"/>
  <unicode hex="0986"/>
  <outline>
    <contour>
      <point x="919" y="533" type="line"/>
      <point x="858" y="640"/>
      <point x="629" y="680"/>
      <point x="435" y="680" type="curve" smooth="yes"/>
      <point x="258" y="680"/>
      <point x="97" y="662"/>
      <point x="0" y="639" type="curve"/>
      <point x="-16" y="611"/>
      <point x="-11" y="539"/>
      <point x="0" y="504" type="curve"/>
      <point x="101" y="524"/>
      <point x="257" y="541"/>
      <point x="430" y="541" type="curve" smooth="yes"/>
      <point x="626" y="541"/>
      <point x="828" y="529"/>
      <point x="828" y="392" type="curve"/>
    </contour>
    <contour>
      <point x="829" y="-58"/>
      <point x="907" y="-58"/>
      <point x="964" y="-50" type="curve"/>
      <point x="950" y="105"/>
      <point x="950" y="292"/>
      <point x="975" y="488" type="curve"/>
      <point x="859" y="477" type="line"/>
      <point x="830" y="473" type="line"/>
      <point x="802" y="247"/>
      <point x="797" y="87"/>
      <point x="792" y="-55" type="curve"/>
    </contour>
    <contour>
      <point x="967" y="468"/>
      <point x="992" y="496"/>
      <point x="1036" y="504" type="curve"/>
      <point x="1048" y="542"/>
      <point x="1053" y="614"/>
      <point x="1036" y="639" type="curve"/>
      <point x="953" y="624"/>
      <point x="873" y="580"/>
      <point x="837" y="500" type="curve"/>
      <point x="954" y="434" type="line"/>
    </contour>
    <contour>
      <point x="566" y="-37"/>
      <point x="636" y="-28"/>
      <point x="681" y="-4" type="curve"/>
      <point x="662" y="68"/>
      <point x="654" y="170"/>
      <point x="654" y="303" type="curve" smooth="yes"/>
      <point x="654" y="393"/>
      <point x="661" y="489"/>
      <point x="677" y="572" type="curve"/>
      <point x="557" y="560" type="line"/>
      <point x="520" y="442"/>
      <point x="509" y="282"/>
      <point x="509" y="107" type="curve" smooth="yes"/>
      <point x="509" y="56"/>
      <point x="507" y="4"/>
      <point x="515" y="-37" type="curve"/>
    </contour>
    <contour>
      <point x="540" y="29" type="line"/>
      <point x="518" y="99"/>
      <point x="457" y="159"/>
      <point x="390" y="204" type="curve"/>
      <point x="331" y="112" type="line"/>
      <point x="402" y="85"/>
      <point x="467" y="38"/>
      <point x="515" y="-37" type="curve"/>
    </contour>
    <contour>
      <point x="406" y="35"/>
      <point x="467" y="122"/>
      <point x="467" y="230" type="curve" smooth="yes"/>
      <point x="467" y="362"/>
      <point x="395" y="495"/>
      <point x="280" y="495" type="curve" smooth="yes"/>
      <point x="214" y="495"/>
      <point x="169" y="435"/>
      <point x="169" y="368" type="curve" smooth="yes"/>
      <point x="169" y="345"/>
      <point x="172" y="333"/>
      <point x="176" y="318" type="curve"/>
      <point x="205" y="305"/>
      <point x="261" y="295"/>
      <point x="305" y="295" type="curve"/>
      <point x="296" y="316"/>
      <point x="293" y="331"/>
      <point x="293" y="345" type="curve" smooth="yes"/>
      <point x="293" y="363"/>
      <point x="301" y="379"/>
      <point x="316" y="379" type="curve" smooth="yes"/>
      <point x="338" y="379"/>
      <point x="358" y="354"/>
      <point x="358" y="301" type="curve" smooth="yes"/>
      <point x="358" y="239"/>
      <point x="332" y="208"/>
      <point x="285" y="208" type="curve" smooth="yes"/>
      <point x="219" y="208"/>
      <point x="139" y="306"/>
      <point x="88" y="440" type="curve"/>
      <point x="57" y="431"/>
      <point x="27" y="415"/>
      <point x="3" y="400" type="curve"/>
      <point x="54" y="215"/>
      <point x="143" y="35"/>
      <point x="305" y="35" type="curve" smooth="yes"/>
    </contour>
  </outline>
</glyph>
<glyph name="bn_i" format="1">
  <advance width="526"/>
  <unicode hex="0987"/>
  <outline>
    <contour>
      <point x="526" y="639" type="line"/>
      <point x="503" y="763"/>
      <point x="439" y="857"/>
      <point x="337" y="857" type="curve" smooth="yes"/>
      <point x="277" y="857"/>
      <point x="191" y="824"/>
      <point x="144" y="824" type="curve" smooth="yes"/>
      <point x="93" y="824"/>
      <point x="65" y="862"/>
      <point x="38" y="910" type="curve"/>
      <point x="15" y="892"/>
      <point x="-18" y="862"/>
      <point x="-43" y="823" type="curve"/>
      <point x="-7" y="758"/>
      <point x="47" y="697"/>
      <point x="131" y="697" type="curve" smooth="yes"/>
      <point x="193" y="697"/>
      <point x="277" y="730"/>
      <point x="334" y="730" type="curve" smooth="yes"/>
      <point x="413" y="730"/>
      <point x="439" y="668"/>
      <point x="453" y="609" type="curve"/>
    </contour>
    <component base="bn_ha"/>
  </outline>
</glyph>
<glyph name="bn_uu" format="1">
  <advance width="702"/>
  <unicode hex="098A"/>
  <outline>
    <contour>
      <point x="604" y="-45"/>
      <point x="681" y="65"/>
      <point x="681" y="218" type="curve" smooth="yes"/>
      <point x="681" y="286"/>
      <point x="666" y="352"/>
      <point x="642" y="402" type="curve"/>
      <point x="604" y="420"/>
      <point x="557" y="436"/>
      <point x="518" y="445" type="curve"/>
      <point x="489" y="385"/>
      <point x="460" y="331"/>
      <point x="438" y="331" type="curve" smooth="yes"/>
      <point x="430" y="331"/>
      <point x="421" y="337"/>
      <point x="421" y="353" type="curve" smooth="yes"/>
      <point x="421" y="383"/>
      <point x="452" y="500"/>
      <point x="483" y="577" type="curve"/>
      <point x="327" y="613" type="line"/>
      <point x="311" y="546"/>
      <point x="298" y="463"/>
      <point x="298" y="419" type="curve" smooth="yes"/>
      <point x="298" y="321"/>
      <point x="363" y="196"/>
      <point x="478" y="198" type="curve" smooth="yes"/>
      <point x="551" y="200"/>
      <point x="588" y="250"/>
      <point x="617" y="305" type="curve"/>
      <point x="572" y="349" type="line"/>
      <point x="578" y="320"/>
      <point x="583" y="285"/>
      <point x="583" y="255" type="curve" smooth="yes"/>
      <point x="583" y="177"/>
      <point x="549" y="136"/>
      <point x="474" y="134" type="curve" smooth="yes"/>
      <point x="336" y="130"/>
      <point x="278" y="263"/>
      <point x="213" y="461" type="curve"/>
      <point x="186" y="454"/>
      <point x="154" y="443"/>
      <point x="130" y="430" type="curve"/>
      <point x="182" y="251"/>
      <point x="243" y="119"/>
      <point x="351" y="28" type="curve"/>
      <point x="370" y="45" type="line"/>
      <point x="250" y="114"/>
      <point x="157" y="226"/>
      <point x="89" y="415" type="curve"/>
      <point x="60" y="407"/>
      <point x="33" y="397"/>
      <point x="6" y="384" type="curve"/>
      <point x="66" y="195"/>
      <point x="195" y="-45"/>
      <point x="439" y="-45" type="curve" smooth="yes"/>
    </contour>
    <contour>
      <point x="87" y="519"/>
      <point x="200" y="532"/>
      <point x="354" y="532" type="curve" smooth="yes"/>
      <point x="502" y="532"/>
      <point x="615" y="520"/>
      <point x="702" y="504" type="curve"/>
      <point x="714" y="549"/>
      <point x="719" y="611"/>
      <point x="702" y="639" type="curve"/>
      <point x="618" y="656"/>
      <point x="506" y="671"/>
      <point x="353" y="671" type="curve" smooth="yes"/>
      <point x="200" y="671"/>
      <point x="85" y="656"/>
      <point x="0" y="639" type="curve"/>
      <point x="-17" y="611"/>
      <point x="-11" y="539"/>
      <point x="0" y="504" type="curve"/>
    </contour>
    <contour>
      <point x="702" y="639" type="line"/>
      <point x="679" y="763"/>
      <point x="615" y="857"/>
      <point x="513" y="857" type="curve" smooth="yes"/>
      <point x="444" y="857"/>
      <point x="337" y="827"/>
      <point x="280" y="827" type="curve" smooth="yes"/>
      <point x="229" y="827"/>
      <point x="197" y="864"/>
      <point x="170" y="910" type="curve"/>
      <point x="147" y="892"/>
      <point x="114" y="862"/>
      <point x="89" y="823" type="curve"/>
      <point x="125" y="760"/>
      <point x="183" y="700"/>
      <point x="267" y="700" type="curve" smooth="yes"/>
      <point x="341" y="700"/>
      <point x="445" y="730"/>
      <point x="510" y="730" type="curve" smooth="yes"/>
      <point x="589" y="730"/>
      <point x="615" y="668"/>
      <point x="629" y="609" type="curve"/>
    </contour>
  </outline>
</glyph>
<glyph name="bn_ri" format="1">
  <advance width="800"/>
  <unicode hex="098B"/>
  <outline>
    <contour>
      <point x="413" y="30" type="line"/>
      <point x="390" y="119"/>
      <point x="304" y="194"/>
      <point x="217" y="244" type="curve"/>
      <point x="198" y="192" type="line"/>
      <point x="269" y="250"/>
      <point x="367" y="300"/>
      <point x="448" y="318" type="curve"/>
      <point x="427" y="485" type="line"/>
      <point x="276" y="444"/>
      <point x="171" y="387"/>
      <point x="90" y="316" type="curve"/>
      <point x="90" y="251"/>
      <point x="107" y="206"/>
      <point x="143" y="143" type="curve"/>
      <point x="242" y="119"/>
      <point x="325" y="62"/>
      <point x="384" y="-36" type="curve"/>
    </contour>
    <contour>
      <point x="640" y="47" type="line"/>
      <point x="615" y="118"/>
      <point x="553" y="182"/>
      <point x="487" y="223" type="curve"/>
      <point x="454" y="112" type="line"/>
      <point x="516" y="90"/>
      <point x="571" y="51"/>
      <point x="617" y="-13" type="curve"/>
    </contour>
    <contour>
      <point x="431" y="-37"/>
      <point x="477" y="-35"/>
      <point x="508" y="-27" type="curve"/>
      <point x="506" y="11"/>
      <point x="505" y="58"/>
      <point x="505" y="110" type="curve" smooth="yes"/>
      <point x="505" y="294"/>
      <point x="526" y="459"/>
      <point x="589" y="628" type="curve"/>
      <point x="544" y="649"/>
      <point x="496" y="662"/>
      <point x="446" y="666" type="curve"/>
      <point x="429" y="598"/>
      <point x="414" y="510"/>
      <point x="411" y="417" type="curve"/>
      <point x="403" y="369" type="line"/>
      <point x="383" y="270"/>
      <point x="370" y="169"/>
      <point x="370" y="84" type="curve" smooth="yes"/>
      <point x="370" y="12"/>
      <point x="374" y="-16"/>
      <point x="384" y="-36" type="curve"/>
    </contour>
    <contour>
      <point x="668" y="-16"/>
      <point x="739" y="-5"/>
      <point x="774" y="14" type="curve"/>
      <point x="742" y="106"/>
      <point x="724" y="231"/>
      <point x="724" y="332" type="curve" smooth="yes"/>
      <point x="724" y="427"/>
      <point x="755" y="545"/>
      <point x="786" y="617" type="curve"/>
      <point x="759" y="630"/>
      <point x="704" y="641"/>
      <point x="663" y="641" type="curve"/>
      <point x="623" y="529"/>
      <point x="594" y="401"/>
      <point x="594" y="231" type="curve" smooth="yes"/>
      <point x="594" y="159"/>
      <point x="601" y="54"/>
      <point x="617" y="-13" type="curve"/>
    </contour>
    <contour>
      <point x="404" y="446" type="line"/>
      <point x="405" y="504"/>
      <point x="397" y="549"/>
      <point x="384" y="583" type="curve"/>
      <point x="313" y="634" type="line"/>
      <point x="296" y="613"/>
      <point x="258" y="576"/>
      <point x="214" y="576" type="curve" smooth="yes"/>
      <point x="179" y="576"/>
      <point x="167" y="602"/>
      <point x="167" y="628" type="curve" smooth="yes"/>
      <point x="168" y="636"/>
      <point x="168" y="646"/>
      <point x="174" y="656" type="curve"/>
      <point x="123" y="657"/>
      <point x="72" y="648"/>
      <point x="34" y="624" type="curve"/>
      <point x="29" y="613"/>
      <point x="28" y="603"/>
      <point x="28" y="585" type="curve" smooth="yes"/>
      <point x="28" y="492"/>
      <point x="76" y="430"/>
      <point x="165" y="430" type="curve" smooth="yes"/>
      <point x="238" y="430"/>
      <point x="304" y="486"/>
      <point x="333" y="535" type="curve"/>
      <point x="252" y="552" type="line"/>
      <point x="292" y="538"/>
      <point x="321" y="481"/>
      <point x="320" y="428" type="curve"/>
    </contour>
  </outline>
</glyph>
<glyph name="bn_li" format="1">
  <advance width="550"/>
  <unicode hex="098C"/>
  <outline>
    <contour>
      <point x="481" y="67"/>
      <point x="521" y="198"/>
      <point x="521" y="315" type="curve" smooth="yes"/>
      <point x="521" y="442"/>
      <point x="474" y="538"/>
      <point x="341" y="571" type="curve" smooth="yes"/>
      <point x="276" y="587" type="line" smooth="yes"/>
      <point x="199" y="606"/>
      <point x="164" y="621"/>
      <point x="148" y="720" type="curve"/>
      <point x="119" y="711"/>
      <point x="77" y="696"/>
      <point x="39" y="670" type="curve"/>
      <point x="63" y="514"/>
      <point x="132" y="474"/>
      <point x="270" y="443" type="curve" smooth="yes"/>
      <point x="363" y="422"/>
      <point x="446" y="415"/>
      <point x="446" y="340" type="curve" smooth="yes"/>
      <point x="446" y="276"/>
      <point x="386" y="174"/>
      <point x="309" y="83" type="curve"/>
      <point x="296" y="-17" type="line"/>
      <point x="335" y="-31"/>
      <point x="381" y="-38"/>
      <point x="424" y="-38" type="curve"/>
    </contour>
    <contour>
      <point x="208" y="-36"/>
      <point x="233" y="-20"/>
      <point x="250" y="0" type="curve"/>
      <point x="245" y="50"/>
      <point x="224" y="122"/>
      <point x="199" y="170" type="curve"/>
      <point x="182" y="146"/>
      <point x="165" y="130"/>
      <point x="140" y="130" type="curve" smooth="yes"/>
      <point x="123" y="130"/>
      <point x="103" y="137"/>
      <point x="103" y="165" type="curve" smooth="yes"/>
      <point x="103" y="195"/>
      <point x="126" y="216"/>
      <point x="166" y="216" type="curve" smooth="yes"/>
      <point x="223" y="216"/>
      <point x="296" y="173"/>
      <point x="296" y="-17" type="curve"/>
      <point x="361" y="102" type="line"/>
      <point x="361" y="278"/>
      <point x="298" y="397"/>
      <point x="184" y="397" type="curve" smooth="yes"/>
      <point x="82" y="397"/>
      <point x="25" y="306"/>
      <point x="25" y="186" type="curve" smooth="yes"/>
      <point x="25" y="62"/>
      <point x="86" y="-36"/>
      <point x="173" y="-36" type="curve" smooth="yes"/>
    </contour>
  </outline>
</glyph>
<glyph name="bn_e" format="1">
  <advance width="654"/>
  <unicode hex="098F"/>
  <note>
	uni098F
  </note>
  <outline>
    <contour>
      <point x="283" y="668"/>
      <point x="164" y="532"/>
      <point x="164" y="417" type="curve" smooth="yes"/>
      <point x="164" y="314"/>
      <point x="242" y="267"/>
      <point x="329" y="254" type="curve"/>
      <point x="364" y="269"/>
      <point x="408" y="340"/>
      <point x="414" y="386" type="curve"/>
      <point x="359" y="386"/>
      <point x="322" y="394"/>
      <point x="322" y="429" type="curve" smooth="yes"/>
      <point x="322" y="475"/>
      <point x="377" y="568"/>
      <point x="423" y="568" type="curve" smooth="yes"/>
      <point x="443" y="568"/>
      <point x="454" y="555"/>
      <point x="454" y="530" type="curve" smooth="yes"/>
      <point x="454" y="367"/>
      <point x="441" y="183"/>
      <point x="415" y="59" type="curve"/>
      <point x="469" y="0" type="line"/>
      <point x="422" y="129"/>
      <point x="387" y="198"/>
      <point x="321" y="198" type="curve" smooth="yes"/>
      <point x="273" y="198"/>
      <point x="214" y="162"/>
      <point x="175" y="162" type="curve" smooth="yes"/>
      <point x="150" y="162"/>
      <point x="130" y="175"/>
      <point x="130" y="211" type="curve" smooth="yes"/>
      <point x="130" y="230"/>
      <point x="136" y="260"/>
      <point x="147" y="287" type="curve"/>
      <point x="121" y="296"/>
      <point x="86" y="302"/>
      <point x="40" y="303" type="curve"/>
      <point x="21" y="257"/>
      <point x="7" y="201"/>
      <point x="7" y="154" type="curve" smooth="yes"/>
      <point x="7" y="61"/>
      <point x="61" y="2"/>
      <point x="145" y="2" type="curve" smooth="yes"/>
      <point x="216" y="2"/>
      <point x="285" y="44"/>
      <point x="342" y="44" type="curve" smooth="yes"/>
      <point x="402" y="44"/>
      <point x="414" y="-2"/>
      <point x="434" y="-39" type="curve"/>
      <point x="475" y="-39"/>
      <point x="523" y="-33"/>
      <point x="562" y="-19" type="curve"/>
      <point x="579" y="124"/>
      <point x="589" y="282"/>
      <point x="589" y="478" type="curve" smooth="yes"/>
      <point x="589" y="595"/>
      <point x="506" y="668"/>
      <point x="406" y="668" type="curve" smooth="yes"/>
    </contour>
  </outline>
</glyph>
<glyph name="bn_o" format="1">
  <advance width="745"/>
  <unicode hex="0993"/>
  <outline>
    <contour>
      <point x="613" y="-40"/>
      <point x="690" y="49"/>
      <point x="690" y="157" type="curve" smooth="yes"/>
      <point x="690" y="253"/>
      <point x="631" y="339"/>
      <point x="524" y="373" type="curve"/>
      <point x="545" y="286" type="line"/>
      <point x="629" y="309"/>
      <point x="679" y="387"/>
      <point x="679" y="473" type="curve" smooth="yes"/>
      <point x="679" y="590"/>
      <point x="581" y="675"/>
      <point x="461" y="675" type="curve" smooth="yes"/>
      <point x="327" y="675"/>
      <point x="218" y="567"/>
      <point x="220" y="430" type="curve"/>
      <point x="252" y="401"/>
      <point x="332" y="378"/>
      <point x="385" y="378" type="curve"/>
      <point x="383" y="387"/>
      <point x="382" y="397"/>
      <point x="382" y="409" type="curve" smooth="yes"/>
      <point x="382" y="497"/>
      <point x="436" y="568"/>
      <point x="496" y="568" type="curve" smooth="yes"/>
      <point x="532" y="568"/>
      <point x="554" y="546"/>
      <point x="554" y="507" type="curve" smooth="yes"/>
      <point x="554" y="453"/>
      <point x="505" y="406"/>
      <point x="433" y="378" type="curve"/>
      <point x="564" y="351" type="line"/>
      <point x="526" y="389"/>
      <point x="464" y="414"/>
      <point x="421" y="414" type="curve"/>
      <point x="406" y="379"/>
      <point x="395" y="301"/>
      <point x="400" y="261" type="curve"/>
      <point x="484" y="261"/>
      <point x="570" y="245"/>
      <point x="570" y="187" type="curve" smooth="yes"/>
      <point x="570" y="152"/>
      <point x="539" y="129"/>
      <point x="485" y="129" type="curve" smooth="yes"/>
      <point x="319" y="129"/>
      <point x="176" y="371"/>
      <point x="114" y="599" type="curve"/>
      <point x="77" y="588"/>
      <point x="42" y="574"/>
      <point x="9" y="558" type="curve"/>
      <point x="75" y="306"/>
      <point x="193" y="-40"/>
      <point x="472" y="-40" type="curve" smooth="yes"/>
    </contour>
  </outline>
</glyph>
<glyph name="bn_au" format="1">
  <advance width="812"/>
  <unicode hex="0994"/>
  <outline>
    <contour>
      <point x="732" y="419"/>
      <point x="792" y="518"/>
      <point x="792" y="628" type="curve" smooth="yes"/>
      <point x="792" y="738"/>
      <point x="733" y="810"/>
      <point x="607" y="828" type="curve" smooth="yes"/>
      <point x="524" y="840" type="line" smooth="yes"/>
      <point x="448" y="851"/>
      <point x="416" y="867"/>
      <point x="400" y="967" type="curve"/>
      <point x="372" y="957"/>
      <point x="331" y="941"/>
      <point x="294" y="912" type="curve"/>
      <point x="316" y="766"/>
      <point x="386" y="734"/>
      <point x="531" y="715" type="curve" smooth="yes"/>
      <point x="653" y="699"/>
      <point x="718" y="690"/>
      <point x="718" y="629" type="curve" smooth="yes"/>
      <point x="718" y="589"/>
      <point x="690" y="545"/>
      <point x="651" y="516" type="curve"/>
      <point x="629" y="323" type="line"/>
    </contour>
    <component base="bn_o"/>
  </outline>
</glyph>
<glyph name="bn_ka" format="1">
  <advance width="688"/>
  <unicode hex="0995"/>
  <outline>
    <contour>
      <point x="321" y="125"/>
      <point x="241" y="208"/>
      <point x="149" y="260" type="curve"/>
      <point x="136" y="208" type="line"/>
      <point x="195" y="270"/>
      <point x="281" y="326"/>
      <point x="356" y="350" type="curve"/>
      <point x="318" y="516" type="line"/>
      <point x="177" y="465"/>
      <point x="81" y="403"/>
      <point x="12" y="327" type="curve"/>
      <point x="20" y="264"/>
      <point x="44" y="210"/>
      <point x="87" y="150" type="curve"/>
      <point x="176" y="130"/>
      <point x="256" y="73"/>
      <point x="320" y="-38" type="curve"/>
      <point x="361" y="18" type="line"/>
    </contour>
    <contour>
      <point x="370" y="-38"/>
      <point x="438" y="-32"/>
      <point x="479" y="-16" type="curve"/>
      <point x="447" y="87"/>
      <point x="429" y="238"/>
      <point x="429" y="436" type="curve" smooth="yes"/>
      <point x="429" y="466"/>
      <point x="429" y="514"/>
      <point x="430" y="538" type="curve"/>
      <point x="315" y="560" type="line"/>
      <point x="309" y="466"/>
      <point x="305" y="364"/>
      <point x="305" y="274" type="curve" smooth="yes"/>
      <point x="305" y="49"/>
      <point x="316" y="1"/>
      <point x="320" y="-38" type="curve"/>
    </contour>
    <contour>
      <point x="616" y="140"/>
      <point x="653" y="189"/>
      <point x="653" y="264" type="curve" smooth="yes"/>
      <point x="653" y="385"/>
      <point x="525" y="504"/>
      <point x="385" y="519" type="curve"/>
      <point x="400" y="343" type="line"/>
      <point x="481" y="344"/>
      <point x="554" y="344"/>
      <point x="554" y="308" type="curve" smooth="yes"/>
      <point x="554" y="276"/>
      <point x="504" y="236"/>
      <point x="458" y="221" type="curve"/>
      <point x="486" y="162"/>
      <point x="536" y="119"/>
      <point x="577" y="111" type="curve"/>
    </contour>
    <contour>
      <point x="79" y="520"/>
      <point x="199" y="535"/>
      <point x="338" y="535" type="curve" smooth="yes"/>
      <point x="476" y="535"/>
      <point x="610" y="520"/>
      <point x="688" y="504" type="curve"/>
      <point x="698" y="535"/>
      <point x="702" y="606"/>
      <point x="688" y="639" type="curve"/>
      <point x="619" y="658"/>
      <point x="482" y="674"/>
      <point x="342" y="674" type="curve" smooth="yes"/>
      <point x="202" y="674"/>
      <point x="77" y="658"/>
      <point x="0" y="639" type="curve"/>
      <point x="-17" y="611"/>
      <point x="-11" y="539"/>
      <point x="0" y="504" type="curve"/>
    </contour>
  </outline>
</glyph>
<glyph name="bn_kha" format="1">
  <advance width="658"/>
  <unicode hex="0996"/>
  <outline>
    <contour>
      <point x="310" y="614" type="line"/>
      <point x="294" y="593"/>
      <point x="255" y="554"/>
      <point x="210" y="554" type="curve" smooth="yes"/>
      <point x="177" y="554"/>
      <point x="165" y="580"/>
      <point x="165" y="606" type="curve" smooth="yes"/>
      <point x="165" y="614"/>
      <point x="165" y="624"/>
      <point x="171" y="634" type="curve"/>
      <point x="120" y="634"/>
      <point x="69" y="624"/>
      <point x="32" y="599" type="curve"/>
      <point x="28" y="589"/>
      <point x="26" y="580"/>
      <point x="26" y="566" type="curve" smooth="yes"/>
      <point x="26" y="471"/>
      <point x="74" y="408"/>
      <point x="164" y="408" type="curve" smooth="yes"/>
      <point x="238" y="408"/>
      <point x="304" y="466"/>
      <point x="332" y="515" type="curve"/>
      <point x="282" y="531" type="line"/>
      <point x="297" y="527"/>
      <point x="308" y="510"/>
      <point x="308" y="494" type="curve" smooth="yes"/>
      <point x="308" y="451"/>
      <point x="286" y="410"/>
      <point x="206" y="369" type="curve" smooth="yes"/>
      <point x="115" y="323" type="line"/>
      <point x="122" y="267"/>
      <point x="140" y="218"/>
      <point x="171" y="164" type="curve"/>
      <point x="262" y="146"/>
      <point x="330" y="89"/>
      <point x="384" y="-19" type="curve"/>
      <point x="430" y="49" type="line"/>
      <point x="412" y="152"/>
      <point x="347" y="231"/>
      <point x="243" y="283" type="curve"/>
      <point x="246" y="193" type="line"/>
      <point x="307" y="224" type="line" smooth="yes"/>
      <point x="394" y="268"/>
      <point x="420" y="349"/>
      <point x="420" y="428" type="curve" smooth="yes"/>
      <point x="420" y="486"/>
      <point x="406" y="531"/>
      <point x="382" y="564" type="curve"/>
    </contour>
    <contour>
      <point x="584" y="77"/>
      <point x="595" y="287"/>
      <point x="595" y="460" type="curve" smooth="yes"/>
      <point x="595" y="460"/>
      <point x="595" y="487"/>
      <point x="593" y="525" type="curve"/>
      <point x="489" y="524" type="line"/>
      <point x="595" y="438" type="line"/>
      <point x="595" y="472"/>
      <point x="602" y="484"/>
      <point x="618" y="491" type="curve" smooth="yes"/>
      <point x="636" y="499"/>
      <point x="648" y="501"/>
      <point x="658" y="504" type="curve"/>
      <point x="664" y="523"/>
      <point x="669" y="551"/>
      <point x="669" y="578" type="curve" smooth="yes"/>
      <point x="669" y="602"/>
      <point x="665" y="626"/>
      <point x="658" y="639" type="curve"/>
      <point x="610" y="633"/>
      <point x="527" y="607"/>
      <point x="506" y="599" type="curve" smooth="yes"/>
      <point x="472" y="586"/>
      <point x="446" y="562"/>
      <point x="446" y="502" type="curve" smooth="yes"/>
      <point x="446" y="478"/>
      <point x="450" y="460"/>
      <point x="450" y="380" type="curve" smooth="yes"/>
      <point x="450" y="262"/>
      <point x="441" y="154"/>
      <point x="416" y="66" type="curve"/>
      <point x="384" y="-19" type="line"/>
      <point x="420" y="-32"/>
      <point x="488" y="-42"/>
      <point x="539" y="-42" type="curve"/>
    </contour>
  </outline>
</glyph>
<glyph name="bn_ga" format="1">
  <advance width="567"/>
  <unicode hex="0997"/>
  <outline>
    <contour>
      <point x="290" y="182"/>
      <point x="326" y="246"/>
      <point x="326" y="309" type="curve" smooth="yes"/>
      <point x="326" y="397"/>
      <point x="269" y="464"/>
      <point x="203" y="464" type="curve" smooth="yes"/>
      <point x="147" y="464"/>
      <point x="101" y="434"/>
      <point x="64" y="402" type="curve"/>
      <point x="167" y="397" type="line"/>
      <point x="148" y="413"/>
      <point x="136" y="436"/>
      <point x="136" y="455" type="curve" smooth="yes"/>
      <point x="136" y="490"/>
      <point x="170" y="506"/>
      <point x="216" y="506" type="curve" smooth="yes"/>
      <point x="278" y="506"/>
      <point x="355" y="449"/>
      <point x="355" y="345" type="curve" smooth="yes"/>
      <point x="355" y="324"/>
      <point x="355" y="290"/>
      <point x="349" y="241" type="curve"/>
      <point x="404" y="273" type="line"/>
      <point x="412" y="486"/>
      <point x="335" y="657"/>
      <point x="203" y="657" type="curve" smooth="yes"/>
      <point x="92" y="657"/>
      <point x="22" y="560"/>
      <point x="22" y="440" type="curve" smooth="yes"/>
      <point x="22" y="418"/>
      <point x="26" y="395"/>
      <point x="31" y="373" type="curve"/>
      <point x="77" y="293" type="line"/>
      <point x="131" y="331"/>
      <point x="185" y="354"/>
      <point x="225" y="354" type="curve" smooth="yes"/>
      <point x="233" y="354"/>
      <point x="238" y="350"/>
      <point x="238" y="340" type="curve" smooth="yes"/>
      <point x="238" y="320"/>
      <point x="160" y="264"/>
      <point x="88" y="221" type="curve"/>
      <point x="114" y="174"/>
      <point x="153" y="131"/>
      <point x="207" y="93" type="curve"/>
    </contour>
    <contour>
      <point x="492" y="69"/>
      <point x="506" y="275"/>
      <point x="506" y="450" type="curve" smooth="yes"/>
      <point x="506" y="471"/>
      <point x="515" y="487"/>
      <point x="536" y="494" type="curve" smooth="yes"/>
      <point x="549" y="498"/>
      <point x="559" y="501"/>
      <point x="568" y="504" type="curve"/>
      <point x="574" y="523"/>
      <point x="579" y="552"/>
      <point x="579" y="576" type="curve" smooth="yes"/>
      <point x="579" y="603"/>
      <point x="575" y="626"/>
      <point x="568" y="639" type="curve"/>
      <point x="526" y="632"/>
      <point x="485" y="622"/>
      <point x="443" y="607" type="curve" smooth="yes"/>
      <point x="407" y="595"/>
      <point x="378" y="558"/>
      <point x="378" y="523" type="curve" smooth="yes"/>
      <point x="378" y="503"/>
      <point x="380" y="480"/>
      <point x="382" y="460" type="curve"/>
      <point x="357" y="478" type="line"/>
      <point x="358" y="277"/>
      <point x="340" y="112"/>
      <point x="307" y="-24" type="curve"/>
      <point x="345" y="-35"/>
      <point x="421" y="-43"/>
      <point x="473" y="-43" type="curve"/>
    </contour>
  </outline>
</glyph>
<glyph name="bn_gha" format="1">
  <advance width="571"/>
  <unicode hex="0998"/>
  <outline>
    <contour>
      <point x="386" y="30" type="line"/>
      <point x="329" y="126"/>
      <point x="240" y="200"/>
      <point x="146" y="245" type="curve"/>
      <point x="148" y="168" type="line"/>
      <point x="307" y="298" type="line"/>
      <point x="299" y="349"/>
      <point x="280" y="411"/>
      <point x="258" y="444" type="curve"/>
      <point x="227" y="411"/>
      <point x="204" y="400"/>
      <point x="185" y="400" type="curve" smooth="yes"/>
      <point x="164" y="400"/>
      <point x="143" y="413"/>
      <point x="143" y="442" type="curve" smooth="yes"/>
      <point x="143" y="474"/>
      <point x="169" y="510"/>
      <point x="248" y="534" type="curve"/>
      <point x="59" y="559" type="line"/>
      <point x="30" y="535"/>
      <point x="17" y="496"/>
      <point x="17" y="460" type="curve" smooth="yes"/>
      <point x="17" y="372"/>
      <point x="94" y="335"/>
      <point x="171" y="335" type="curve" smooth="yes"/>
      <point x="228" y="335"/>
      <point x="248" y="355"/>
      <point x="261" y="368" type="curve"/>
      <point x="153" y="379" type="line"/>
      <point x="41" y="272" type="line"/>
      <point x="39" y="223"/>
      <point x="61" y="169"/>
      <point x="106" y="128" type="curve"/>
      <point x="197" y="111"/>
      <point x="274" y="60"/>
      <point x="334" y="-33" type="curve"/>
    </contour>
    <contour>
      <point x="381" y="-33"/>
      <point x="445" y="-27"/>
      <point x="485" y="-10" type="curve"/>
      <point x="471" y="64"/>
      <point x="465" y="173"/>
      <point x="465" y="295" type="curve" smooth="yes"/>
      <point x="465" y="382"/>
      <point x="468" y="456"/>
      <point x="474" y="532" type="curve"/>
      <point x="359" y="561" type="line"/>
      <point x="338" y="396"/>
      <point x="330" y="286"/>
      <point x="330" y="113" type="curve" smooth="yes"/>
      <point x="330" y="58"/>
      <point x="330" y="7"/>
      <point x="334" y="-33" type="curve"/>
    </contour>
    <contour>
      <point x="68" y="520"/>
      <point x="170" y="533"/>
      <point x="283" y="533" type="curve" smooth="yes"/>
      <point x="396" y="533"/>
      <point x="512" y="520"/>
      <point x="571" y="506" type="curve"/>
      <point x="580" y="536"/>
      <point x="585" y="602"/>
      <point x="571" y="635" type="curve"/>
      <point x="516" y="652"/>
      <point x="404" y="666"/>
      <point x="289" y="666" type="curve" smooth="yes"/>
      <point x="173" y="666"/>
      <point x="67" y="652"/>
      <point x="0" y="635" type="curve"/>
      <point x="-15" y="608"/>
      <point x="-11" y="540"/>
      <point x="0" y="506" type="curve"/>
    </contour>
  </outline>
</glyph>
<glyph name="bn_ca" format="1">
  <advance width="502"/>
  <unicode hex="099A"/>
  <outline>
    <contour>
      <point x="361" y="-37"/>
      <point x="469" y="122"/>
      <point x="469" y="279" type="curve" smooth="yes"/>
      <point x="469" y="319"/>
      <point x="461" y="360"/>
      <point x="445" y="388" type="curve"/>
      <point x="359" y="407"/>
      <point x="258" y="465"/>
      <point x="245" y="550" type="curve"/>
      <point x="215" y="460" type="line"/>
      <point x="218" y="384"/>
      <point x="268" y="317"/>
      <point x="327" y="301" type="curve"/>
      <point x="292" y="356" type="line"/>
      <point x="296" y="339"/>
      <point x="298" y="323"/>
      <point x="298" y="305" type="curve" smooth="yes"/>
      <point x="298" y="217"/>
      <point x="249" y="68"/>
      <point x="202" y="68" type="curve" smooth="yes"/>
      <point x="189" y="68"/>
      <point x="185" y="82"/>
      <point x="185" y="112" type="curve" smooth="yes"/>
      <point x="185" y="230"/>
      <point x="218" y="447"/>
      <point x="260" y="572" type="curve"/>
      <point x="109" y="636" type="line"/>
      <point x="73" y="499"/>
      <point x="46" y="285"/>
      <point x="46" y="164" type="curve" smooth="yes"/>
      <point x="46" y="36"/>
      <point x="129" y="-37"/>
      <point x="222" y="-37" type="curve" smooth="yes"/>
    </contour>
    <contour>
      <point x="58" y="518"/>
      <point x="158" y="531"/>
      <point x="251" y="531" type="curve" smooth="yes"/>
      <point x="344" y="531"/>
      <point x="442" y="518"/>
      <point x="500" y="504" type="curve"/>
      <point x="505" y="521"/>
      <point x="511" y="549"/>
      <point x="511" y="579" type="curve" smooth="yes"/>
      <point x="511" y="600"/>
      <point x="508" y="624"/>
      <point x="502" y="639" type="curve"/>
      <point x="451" y="656"/>
      <point x="345" y="670"/>
      <point x="251" y="670" type="curve" smooth="yes"/>
      <point x="157" y="670"/>
      <point x="51" y="656"/>
      <point x="0" y="639" type="curve"/>
      <point x="-6" y="624"/>
      <point x="-9" y="601"/>
      <point x="-9" y="578" type="curve" smooth="yes"/>
      <point x="-9" y="550"/>
      <point x="-5" y="521"/>
      <point x="0" y="504" type="curve"/>
    </contour>
  </outline>
</glyph>
<glyph name="bn_ja" format="1">
  <advance width="760"/>
  <unicode hex="099C"/>
  <outline>
    <contour>
      <point x="477" y="-39"/>
      <point x="546" y="59"/>
      <point x="546" y="202" type="curve" smooth="yes"/>
      <point x="546" y="244"/>
      <point x="540" y="285"/>
      <point x="529" y="320" type="curve"/>
      <point x="492" y="348"/>
      <point x="443" y="378"/>
      <point x="403" y="397" type="curve"/>
      <point x="379" y="359"/>
      <point x="342" y="325"/>
      <point x="321" y="325" type="curve" smooth="yes"/>
      <point x="313" y="325"/>
      <point x="304" y="330"/>
      <point x="304" y="346" type="curve" smooth="yes"/>
      <point x="304" y="379"/>
      <point x="345" y="491"/>
      <point x="396" y="557" type="curve"/>
      <point x="233" y="559" type="line"/>
      <point x="221" y="519"/>
      <point x="199" y="448"/>
      <point x="199" y="387" type="curve" smooth="yes"/>
      <point x="199" y="271"/>
      <point x="280" y="198"/>
      <point x="360" y="198" type="curve" smooth="yes"/>
      <point x="409" y="198"/>
      <point x="443" y="226"/>
      <point x="479" y="250" type="curve"/>
      <point x="445" y="333" type="line"/>
      <point x="449" y="304"/>
      <point x="453" y="279"/>
      <point x="453" y="248" type="curve" smooth="yes"/>
      <point x="453" y="183"/>
      <point x="435" y="128"/>
      <point x="365" y="128" type="curve" smooth="yes"/>
      <point x="254" y="128"/>
      <point x="166" y="264"/>
      <point x="116" y="456" type="curve"/>
      <point x="80" y="445"/>
      <point x="44" y="431"/>
      <point x="11" y="414" type="curve"/>
      <point x="55" y="218"/>
      <point x="143" y="-39"/>
      <point x="349" y="-39" type="curve" smooth="yes"/>
    </contour>
    <contour>
      <point x="618" y="-33"/>
      <point x="692" y="-24"/>
      <point x="718" y="-13" type="curve"/>
      <point x="690" y="138"/>
      <point x="701" y="262"/>
      <point x="737" y="375" type="curve"/>
      <point x="717" y="431"/>
      <point x="683" y="473"/>
      <point x="647" y="496" type="curve"/>
      <point x="631" y="488"/>
      <point x="613" y="479"/>
      <point x="580" y="479" type="curve" smooth="yes"/>
      <point x="521" y="479"/>
      <point x="474" y="509"/>
      <point x="450" y="558" type="curve"/>
      <point x="367" y="544" type="line"/>
      <point x="402" y="424"/>
      <point x="516" y="343"/>
      <point x="633" y="343" type="curve" smooth="yes"/>
      <point x="693" y="343"/>
      <point x="708" y="364"/>
      <point x="712" y="384" type="curve"/>
      <point x="630" y="377" type="line"/>
      <point x="578" y="269"/>
      <point x="560" y="89"/>
      <point x="586" y="-33" type="curve"/>
    </contour>
    <contour>
      <point x="88" y="522"/>
      <point x="220" y="538"/>
      <point x="375" y="538" type="curve" smooth="yes"/>
      <point x="529" y="538"/>
      <point x="673" y="522"/>
      <point x="760" y="504" type="curve"/>
      <point x="770" y="535"/>
      <point x="774" y="606"/>
      <point x="760" y="639" type="curve"/>
      <point x="683" y="660"/>
      <point x="535" y="677"/>
      <point x="379" y="677" type="curve" smooth="yes"/>
      <point x="223" y="677"/>
      <point x="86" y="660"/>
      <point x="0" y="639" type="curve"/>
      <point x="-17" y="611"/>
      <point x="-11" y="539"/>
      <point x="0" y="504" type="curve"/>
    </contour>
  </outline>
</glyph>
<glyph name="bn_jha" format="1">
  <advance width="727"/>
  <unicode hex="099D"/>
  <outline>
    <contour>
      <point x="353" y="-37"/>
      <point x="414" y="-31"/>
      <point x="456" y="-11" type="curve"/>
      <point x="446" y="37"/>
      <point x="441" y="101"/>
      <point x="441" y="175" type="curve" smooth="yes"/>
      <point x="441" y="398"/>
      <point x="468" y="564"/>
      <point x="468" y="590" type="curve" smooth="yes"/>
      <point x="468" y="629"/>
      <point x="447" y="654"/>
      <point x="410" y="661" type="curve" smooth="yes"/>
      <point x="378" y="667"/>
      <point x="328" y="672"/>
      <point x="286" y="672" type="curve" smooth="yes"/>
      <point x="177" y="672"/>
      <point x="60" y="657"/>
      <point x="0" y="639" type="curve"/>
      <point x="-6" y="625"/>
      <point x="-9" y="604"/>
      <point x="-9" y="582" type="curve" smooth="yes"/>
      <point x="-9" y="552"/>
      <point x="-5" y="522"/>
      <point x="0" y="504" type="curve"/>
      <point x="66" y="519"/>
      <point x="176" y="533"/>
      <point x="286" y="533" type="curve" smooth="yes"/>
      <point x="325" y="533"/>
      <point x="369" y="529"/>
      <point x="408" y="524" type="curve"/>
      <point x="363" y="561" type="line"/>
      <point x="313" y="381"/>
      <point x="287" y="197"/>
      <point x="287" y="66" type="curve" smooth="yes"/>
      <point x="287" y="-1"/>
      <point x="288" y="-21"/>
      <point x="290" y="-37" type="curve"/>
    </contour>
    <contour>
      <point x="318" y="30" type="line"/>
      <point x="297" y="126"/>
      <point x="222" y="208"/>
      <point x="147" y="260" type="curve"/>
      <point x="130" y="205" type="line"/>
      <point x="200" y="269"/>
      <point x="297" y="324"/>
      <point x="378" y="346" type="curve"/>
      <point x="354" y="519" type="line"/>
      <point x="204" y="473"/>
      <point x="100" y="411"/>
      <point x="20" y="334" type="curve"/>
      <point x="21" y="269"/>
      <point x="39" y="214"/>
      <point x="75" y="151" type="curve"/>
      <point x="163" y="127"/>
      <point x="237" y="68"/>
      <point x="290" y="-37" type="curve"/>
    </contour>
    <contour>
      <point x="567" y="73" type="line"/>
      <point x="542" y="152"/>
      <point x="480" y="223"/>
      <point x="414" y="269" type="curve"/>
      <point x="381" y="158" type="line"/>
      <point x="443" y="133"/>
      <point x="498" y="87"/>
      <point x="544" y="13" type="curve"/>
    </contour>
    <contour>
      <point x="595" y="10"/>
      <point x="666" y="21"/>
      <point x="701" y="40" type="curve"/>
      <point x="669" y="135"/>
      <point x="646" y="264"/>
      <point x="646" y="378" type="curve" smooth="yes"/>
      <point x="646" y="396"/>
      <point x="646" y="420"/>
      <point x="646" y="444" type="curve" smooth="yes"/>
      <point x="646" y="465"/>
      <point x="655" y="481"/>
      <point x="676" y="488" type="curve" smooth="yes"/>
      <point x="696" y="495"/>
      <point x="713" y="500"/>
      <point x="727" y="504" type="curve"/>
      <point x="733" y="523"/>
      <point x="738" y="552"/>
      <point x="738" y="576" type="curve" smooth="yes"/>
      <point x="738" y="603"/>
      <point x="734" y="626"/>
      <point x="727" y="639" type="curve"/>
      <point x="685" y="632"/>
      <point x="644" y="622"/>
      <point x="602" y="607" type="curve" smooth="yes"/>
      <point x="566" y="595"/>
      <point x="537" y="557"/>
      <point x="533" y="518" type="curve" smooth="yes"/>
      <point x="526" y="454"/>
      <point x="521" y="364"/>
      <point x="521" y="277" type="curve" smooth="yes"/>
      <point x="521" y="199"/>
      <point x="528" y="86"/>
      <point x="544" y="13" type="curve"/>
    </contour>
  </outline>
</glyph>
<glyph name="bn_nya" format="1">
  <advance width="907"/>
  <unicode hex="099E"/>
  <outline>
    <contour>
      <point x="821" y="77"/>
      <point x="882" y="123"/>
      <point x="882" y="203" type="curve" smooth="yes"/>
      <point x="882" y="260"/>
      <point x="846" y="300"/>
      <point x="791" y="326" type="curve"/>
      <point x="791" y="285" type="line"/>
      <point x="840" y="314"/>
      <point x="881" y="369"/>
      <point x="881" y="440" type="curve" smooth="yes"/>
      <point x="881" y="529"/>
      <point x="820" y="572"/>
      <point x="748" y="572" type="curve" smooth="yes"/>
      <point x="667" y="572"/>
      <point x="599" y="515"/>
      <point x="569" y="452" type="curve"/>
      <point x="579" y="311" type="line"/>
      <point x="627" y="409"/>
      <point x="705" y="457"/>
      <point x="760" y="457" type="curve" smooth="yes"/>
      <point x="779" y="457"/>
      <point x="791" y="451"/>
      <point x="791" y="438" type="curve" smooth="yes"/>
      <point x="791" y="415"/>
      <point x="758" y="392"/>
      <point x="690" y="371" type="curve"/>
      <point x="690" y="332"/>
      <point x="702" y="286"/>
      <point x="714" y="257" type="curve"/>
      <point x="724" y="264"/>
      <point x="737" y="269"/>
      <point x="751" y="269" type="curve" smooth="yes"/>
      <point x="770" y="269"/>
      <point x="788" y="260"/>
      <point x="788" y="243" type="curve" smooth="yes"/>
      <point x="788" y="224"/>
      <point x="767" y="208"/>
      <point x="732" y="208" type="curve" smooth="yes"/>
      <point x="689" y="208"/>
      <point x="622" y="234"/>
      <point x="579" y="294" type="curve"/>
      <point x="569" y="189" type="line"/>
      <point x="597" y="134"/>
      <point x="663" y="77"/>
      <point x="746" y="77" type="curve" smooth="yes"/>
    </contour>
    <component base="bn_e"/>
  </outline>
</glyph>
<glyph name="bn_tta" format="1">
  <advance width="549"/>
  <unicode hex="099F"/>
  <outline>
    <contour>
      <point x="410" y="-36"/>
      <point x="529" y="107"/>
      <point x="529" y="229" type="curve" smooth="yes"/>
      <point x="529" y="331"/>
      <point x="450" y="381"/>
      <point x="364" y="395" type="curve"/>
      <point x="327" y="378"/>
      <point x="279" y="306"/>
      <point x="271" y="255" type="curve"/>
      <point x="322" y="254"/>
      <point x="357" y="245"/>
      <point x="357" y="209" type="curve" smooth="yes"/>
      <point x="357" y="160"/>
      <point x="311" y="64"/>
      <point x="269" y="65" type="curve" smooth="yes"/>
      <point x="248" y="66"/>
      <point x="237" y="79"/>
      <point x="237" y="112" type="curve" smooth="yes"/>
      <point x="237" y="269"/>
      <point x="262" y="452"/>
      <point x="293" y="572" type="curve"/>
      <point x="138" y="636" type="line"/>
      <point x="115" y="499"/>
      <point x="95" y="327"/>
      <point x="95" y="160" type="curve" smooth="yes"/>
      <point x="95" y="40"/>
      <point x="179" y="-36"/>
      <point x="283" y="-36" type="curve" smooth="yes"/>
    </contour>
    <contour>
      <point x="52" y="517"/>
      <point x="147" y="531"/>
      <point x="265" y="531" type="curve" smooth="yes"/>
      <point x="367" y="531"/>
      <point x="479" y="518"/>
      <point x="548" y="504" type="curve"/>
      <point x="555" y="521"/>
      <point x="559" y="549"/>
      <point x="559" y="574" type="curve" smooth="yes"/>
      <point x="559" y="600"/>
      <point x="556" y="624"/>
      <point x="548" y="639" type="curve"/>
      <point x="480" y="657"/>
      <point x="365" y="670"/>
      <point x="262" y="670" type="curve" smooth="yes"/>
      <point x="145" y="670"/>
      <point x="49" y="656"/>
      <point x="0" y="639" type="curve"/>
      <point x="-5" y="623"/>
      <point x="-8" y="597"/>
      <point x="-8" y="572" type="curve" smooth="yes"/>
      <point x="-8" y="546"/>
      <point x="-4" y="520"/>
      <point x="0" y="504" type="curve"/>
    </contour>
    <contour>
      <point x="548" y="639" type="line"/>
      <point x="520" y="762"/>
      <point x="436" y="857"/>
      <point x="318" y="857" type="curve" smooth="yes"/>
      <point x="260" y="857"/>
      <point x="185" y="832"/>
      <point x="148" y="832" type="curve" smooth="yes"/>
      <point x="93" y="832"/>
      <point x="54" y="882"/>
      <point x="32" y="920" type="curve"/>
      <point x="7" y="902"/>
      <point x="-29" y="872"/>
      <point x="-56" y="833" type="curve"/>
      <point x="-19" y="766"/>
      <point x="40" y="697"/>
      <point x="134" y="697" type="curve" smooth="yes"/>
      <point x="195" y="697"/>
      <point x="280" y="723"/>
      <point x="327" y="723" type="curve" smooth="yes"/>
      <point x="416" y="723"/>
      <point x="449" y="662"/>
      <point x="464" y="609" type="curve"/>
    </contour>
  </outline>
</glyph>
<glyph name="bn_dda" format="1">
  <advance width="627"/>
  <unicode hex="09A1"/>
  <note>
	uni09A1
  </note>
  <outline>
    <contour>
      <point x="528" y="-39"/>
      <point x="605" y="67"/>
      <point x="605" y="216" type="curve" smooth="yes"/>
      <point x="605" y="287"/>
      <point x="590" y="352"/>
      <point x="566" y="402" type="curve"/>
      <point x="528" y="420"/>
      <point x="481" y="436"/>
      <point x="442" y="445" type="curve"/>
      <point x="414" y="386"/>
      <point x="382" y="331"/>
      <point x="364" y="331" type="curve" smooth="yes"/>
      <point x="353" y="331"/>
      <point x="345" y="337"/>
      <point x="345" y="352" type="curve" smooth="yes"/>
      <point x="345" y="383"/>
      <point x="375" y="497"/>
      <point x="407" y="577" type="curve"/>
      <point x="251" y="613" type="line"/>
      <point x="235" y="546"/>
      <point x="222" y="464"/>
      <point x="222" y="416" type="curve" smooth="yes"/>
      <point x="222" y="322"/>
      <point x="287" y="196"/>
      <point x="402" y="198" type="curve" smooth="yes"/>
      <point x="476" y="199"/>
      <point x="515" y="255"/>
      <point x="541" y="305" type="curve"/>
      <point x="496" y="349" type="line"/>
      <point x="502" y="320"/>
      <point x="507" y="285"/>
      <point x="507" y="256" type="curve" smooth="yes"/>
      <point x="507" y="183"/>
      <point x="482" y="135"/>
      <point x="405" y="134" type="curve" smooth="yes"/>
      <point x="279" y="132"/>
      <point x="177" y="274"/>
      <point x="116" y="460" type="curve"/>
      <point x="79" y="448"/>
      <point x="44" y="433"/>
      <point x="10" y="414" type="curve"/>
      <point x="62" y="214"/>
      <point x="160" y="-39"/>
      <point x="388" y="-39" type="curve" smooth="yes"/>
    </contour>
    <contour>
      <point x="80" y="521"/>
      <point x="184" y="535"/>
      <point x="314" y="535" type="curve" smooth="yes"/>
      <point x="442" y="535"/>
      <point x="547" y="522"/>
      <point x="627" y="504" type="curve"/>
      <point x="639" y="549"/>
      <point x="644" y="611"/>
      <point x="627" y="639" type="curve"/>
      <point x="550" y="658"/>
      <point x="445" y="674"/>
      <point x="315" y="674" type="curve" smooth="yes"/>
      <point x="183" y="674"/>
      <point x="78" y="658"/>
      <point x="0" y="639" type="curve"/>
      <point x="-17" y="611"/>
      <point x="-11" y="539"/>
      <point x="0" y="504" type="curve"/>
    </contour>
  </outline>
</glyph>
<glyph name="bn_ddha" format="1">
  <advance width="522"/>
  <unicode hex="09A2"/>
  <outline>
    <contour>
      <point x="376" y="-37"/>
      <point x="495" y="106"/>
      <point x="495" y="228" type="curve" smooth="yes"/>
      <point x="495" y="332"/>
      <point x="416" y="383"/>
      <point x="330" y="397" type="curve"/>
      <point x="294" y="380"/>
      <point x="247" y="306"/>
      <point x="239" y="254" type="curve"/>
      <point x="289" y="253"/>
      <point x="323" y="244"/>
      <point x="323" y="208" type="curve" smooth="yes"/>
      <point x="323" y="159"/>
      <point x="277" y="63"/>
      <point x="235" y="64" type="curve" smooth="yes"/>
      <point x="216" y="65"/>
      <point x="207" y="78"/>
      <point x="207" y="111" type="curve" smooth="yes"/>
      <point x="207" y="268"/>
      <point x="232" y="452"/>
      <point x="263" y="572" type="curve"/>
      <point x="102" y="636" type="line"/>
      <point x="79" y="499"/>
      <point x="59" y="326"/>
      <point x="59" y="159" type="curve" smooth="yes"/>
      <point x="59" y="39"/>
      <point x="144" y="-37"/>
      <point x="249" y="-37" type="curve" smooth="yes"/>
    </contour>
    <contour>
      <point x="52" y="517"/>
      <point x="143" y="531"/>
      <point x="256" y="531" type="curve" smooth="yes"/>
      <point x="345" y="531"/>
      <point x="453" y="518"/>
      <point x="522" y="504" type="curve"/>
      <point x="529" y="521"/>
      <point x="533" y="549"/>
      <point x="533" y="574" type="curve" smooth="yes"/>
      <point x="533" y="600"/>
      <point x="530" y="624"/>
      <point x="522" y="639" type="curve"/>
      <point x="454" y="657"/>
      <point x="343" y="670"/>
      <point x="253" y="670" type="curve" smooth="yes"/>
      <point x="141" y="670"/>
      <point x="49" y="656"/>
      <point x="0" y="639" type="curve"/>
      <point x="-5" y="623"/>
      <point x="-8" y="597"/>
      <point x="-8" y="572" type="curve" smooth="yes"/>
      <point x="-8" y="546"/>
      <point x="-4" y="520"/>
      <point x="0" y="504" type="curve"/>
    </contour>
  </outline>
</glyph>
<glyph name="bn_nna" format="1">
  <advance width="546"/>
  <unicode hex="09A3"/>
  <outline>
    <contour>
      <point x="344" y="279"/>
      <point x="324" y="122"/>
      <point x="281" y="-9" type="curve"/>
      <point x="316" y="-28"/>
      <point x="384" y="-41"/>
      <point x="431" y="-41" type="curve"/>
      <point x="465" y="85"/>
      <point x="479" y="325"/>
      <point x="479" y="480" type="curve" smooth="yes"/>
      <point x="479" y="500"/>
      <point x="479" y="519"/>
      <point x="479" y="536" type="curve"/>
      <point x="363" y="515" type="line"/>
      <point x="364" y="496"/>
      <point x="365" y="465"/>
      <point x="365" y="457" type="curve"/>
      <point x="343" y="474" type="line"/>
    </contour>
    <contour>
      <point x="413" y="453" type="line"/>
      <point x="445" y="473"/>
      <point x="512" y="497"/>
      <point x="546" y="506" type="curve"/>
      <point x="552" y="522"/>
      <point x="557" y="549"/>
      <point x="557" y="573" type="curve" smooth="yes"/>
      <point x="557" y="594"/>
      <point x="553" y="613"/>
      <point x="546" y="625" type="curve"/>
      <point x="503" y="618"/>
      <point x="461" y="607"/>
      <point x="421" y="593" type="curve" smooth="yes"/>
      <point x="389" y="582"/>
      <point x="363" y="551"/>
      <point x="363" y="515" type="curve"/>
    </contour>
    <contour>
      <point x="479" y="476"/>
      <point x="489" y="486"/>
      <point x="518" y="498" type="curve"/>
      <point x="485" y="513" type="line"/>
      <point x="440" y="463" type="line"/>
      <point x="479" y="441" type="line"/>
    </contour>
    <contour>
      <point x="389" y="273" type="line"/>
      <point x="397" y="480"/>
      <point x="322" y="645"/>
      <point x="189" y="645" type="curve" smooth="yes"/>
      <point x="86" y="645"/>
      <point x="25" y="554"/>
      <point x="25" y="442" type="curve" smooth="yes"/>
      <point x="25" y="323"/>
      <point x="100" y="238"/>
      <point x="207" y="238" type="curve"/>
      <point x="242" y="273"/>
      <point x="260" y="332"/>
      <point x="263" y="400" type="curve"/>
      <point x="253" y="398"/>
      <point x="237" y="396"/>
      <point x="225" y="396" type="curve" smooth="yes"/>
      <point x="182" y="396"/>
      <point x="139" y="414"/>
      <point x="139" y="445" type="curve" smooth="yes"/>
      <point x="139" y="473"/>
      <point x="168" y="487"/>
      <point x="206" y="487" type="curve" smooth="yes"/>
      <point x="272" y="487"/>
      <point x="341" y="438"/>
      <point x="341" y="346" type="curve" smooth="yes"/>
      <point x="341" y="325"/>
      <point x="338" y="290"/>
      <point x="332" y="240" type="curve"/>
    </contour>
  </outline>
</glyph>
<glyph name="bn_ta" format="1">
  <advance width="634"/>
  <unicode hex="09A4"/>
  <outline>
    <contour>
      <point x="546" y="-42"/>
      <point x="616" y="53"/>
      <point x="616" y="188" type="curve" smooth="yes"/>
      <point x="616" y="357"/>
      <point x="507" y="497"/>
      <point x="391" y="497" type="curve" smooth="yes"/>
      <point x="307" y="497"/>
      <point x="250" y="424"/>
      <point x="250" y="332" type="curve" smooth="yes"/>
      <point x="250" y="307"/>
      <point x="254" y="282"/>
      <point x="262" y="256" type="curve"/>
      <point x="278" y="243"/>
      <point x="323" y="236"/>
      <point x="355" y="236" type="curve" smooth="yes"/>
      <point x="381" y="236"/>
      <point x="411" y="241"/>
      <point x="427" y="248" type="curve"/>
      <point x="409" y="278"/>
      <point x="403" y="296"/>
      <point x="403" y="311" type="curve" smooth="yes"/>
      <point x="403" y="339"/>
      <point x="416" y="358"/>
      <point x="437" y="358" type="curve" smooth="yes"/>
      <point x="467" y="358"/>
      <point x="502" y="323"/>
      <point x="502" y="247" type="curve" smooth="yes"/>
      <point x="502" y="183"/>
      <point x="469" y="144"/>
      <point x="406" y="144" type="curve" smooth="yes"/>
      <point x="277" y="144"/>
      <point x="162" y="324"/>
      <point x="114" y="452" type="curve"/>
      <point x="78" y="439"/>
      <point x="42" y="424"/>
      <point x="10" y="405" type="curve"/>
      <point x="66" y="219"/>
      <point x="176" y="-42"/>
      <point x="409" y="-42" type="curve" smooth="yes"/>
    </contour>
    <contour>
      <point x="79" y="518"/>
      <point x="195" y="531"/>
      <point x="317" y="531" type="curve" smooth="yes"/>
      <point x="439" y="531"/>
      <point x="555" y="518"/>
      <point x="634" y="504" type="curve"/>
      <point x="645" y="535"/>
      <point x="651" y="609"/>
      <point x="634" y="639" type="curve"/>
      <point x="556" y="656"/>
      <point x="441" y="670"/>
      <point x="317" y="670" type="curve" smooth="yes"/>
      <point x="193" y="670"/>
      <point x="77" y="656"/>
      <point x="0" y="639" type="curve"/>
      <point x="-16" y="611"/>
      <point x="-11" y="540"/>
      <point x="0" y="504" type="curve"/>
    </contour>
  </outline>
</glyph>
<glyph name="bn_tha" format="1">
  <advance width="647"/>
  <unicode hex="09A5"/>
  <outline>
    <contour>
      <point x="377" y="56" type="line"/>
      <point x="355" y="149"/>
      <point x="291" y="224"/>
      <point x="200" y="269" type="curve"/>
      <point x="198" y="183" type="line"/>
      <point x="265" y="225" type="line" smooth="yes"/>
      <point x="366" y="289"/>
      <point x="400" y="370"/>
      <point x="400" y="464" type="curve" smooth="yes"/>
      <point x="400" y="569"/>
      <point x="339" y="649"/>
      <point x="231" y="649" type="curve" smooth="yes"/>
      <point x="113" y="649"/>
      <point x="42" y="560"/>
      <point x="42" y="464" type="curve" smooth="yes"/>
      <point x="42" y="443"/>
      <point x="45" y="417"/>
      <point x="52" y="398" type="curve"/>
      <point x="112" y="396"/>
      <point x="158" y="406"/>
      <point x="207" y="432" type="curve"/>
      <point x="197" y="442"/>
      <point x="193" y="453"/>
      <point x="193" y="468" type="curve" smooth="yes"/>
      <point x="193" y="498"/>
      <point x="215" y="532"/>
      <point x="250" y="532" type="curve" smooth="yes"/>
      <point x="273" y="532"/>
      <point x="288" y="518"/>
      <point x="288" y="492" type="curve" smooth="yes"/>
      <point x="288" y="451"/>
      <point x="261" y="402"/>
      <point x="185" y="359" type="curve" smooth="yes"/>
      <point x="85" y="303" type="line"/>
      <point x="85" y="250"/>
      <point x="95" y="205"/>
      <point x="118" y="155" type="curve"/>
      <point x="209" y="138"/>
      <point x="273" y="88"/>
      <point x="315" y="-9" type="curve"/>
    </contour>
    <contour>
      <point x="521" y="78"/>
      <point x="558" y="283"/>
      <point x="578" y="451" type="curve" smooth="yes"/>
      <point x="584" y="499"/>
      <point x="588" y="541"/>
      <point x="589" y="578" type="curve"/>
      <point x="446" y="563" type="line"/>
      <point x="445" y="518"/>
      <point x="442" y="468"/>
      <point x="433" y="394" type="curve" smooth="yes"/>
      <point x="416" y="260"/>
      <point x="395" y="157"/>
      <point x="357" y="63" type="curve"/>
      <point x="315" y="-9" type="line"/>
      <point x="347" y="-27"/>
      <point x="411" y="-40"/>
      <point x="461" y="-40" type="curve"/>
    </contour>
    <contour>
      <point x="561" y="570" type="line"/>
      <point x="589" y="621" type="line"/>
      <point x="571" y="616"/>
      <point x="548" y="608"/>
      <point x="515" y="608" type="curve" smooth="yes"/>
      <point x="494" y="608"/>
      <point x="461" y="610"/>
      <point x="445" y="611" type="curve"/>
      <point x="446" y="601"/>
      <point x="445" y="586"/>
      <point x="446" y="563" type="curve"/>
    </contour>
    <contour>
      <point x="553" y="473"/>
      <point x="615" y="497"/>
      <point x="647" y="506" type="curve"/>
      <point x="654" y="522"/>
      <point x="657" y="549"/>
      <point x="657" y="573" type="curve" smooth="yes"/>
      <point x="657" y="594"/>
      <point x="655" y="623"/>
      <point x="647" y="635" type="curve"/>
      <point x="574" y="620"/>
      <point x="509" y="598"/>
      <point x="451" y="563" type="curve"/>
      <point x="522" y="453" type="line"/>
    </contour>
  </outline>
</glyph>
<glyph name="bn_da" format="1">
  <advance width="535"/>
  <unicode hex="09A6"/>
  <outline>
    <contour>
      <point x="405" y="-36"/>
      <point x="452" y="-30"/>
      <point x="482" y="-18" type="curve"/>
      <point x="455" y="137"/>
      <point x="471" y="264"/>
      <point x="503" y="381" type="curve"/>
      <point x="462" y="436"/>
      <point x="420" y="472"/>
      <point x="362" y="494" type="curve"/>
      <point x="262" y="431"/>
      <point x="166" y="328"/>
      <point x="71" y="167" type="curve"/>
      <point x="206" y="233" type="line"/>
      <point x="217" y="344"/>
      <point x="224" y="462"/>
      <point x="220" y="554" type="curve"/>
      <point x="113" y="541" type="line"/>
      <point x="111" y="422"/>
      <point x="86" y="280"/>
      <point x="48" y="157" type="curve"/>
      <point x="81" y="132"/>
      <point x="145" y="111"/>
      <point x="193" y="105" type="curve"/>
      <point x="248" y="198"/>
      <point x="347" y="302"/>
      <point x="443" y="361" type="curve"/>
      <point x="362" y="361" type="line"/>
      <point x="342" y="231"/>
      <point x="340" y="98"/>
      <point x="370" y="-36" type="curve"/>
    </contour>
    <contour>
      <point x="70" y="520"/>
      <point x="163" y="533"/>
      <point x="293" y="533" type="curve" smooth="yes"/>
      <point x="377" y="533"/>
      <point x="484" y="520"/>
      <point x="535" y="506" type="curve"/>
      <point x="543" y="536"/>
      <point x="549" y="604"/>
      <point x="535" y="635" type="curve"/>
      <point x="489" y="652"/>
      <point x="380" y="666"/>
      <point x="297" y="666" type="curve" smooth="yes"/>
      <point x="166" y="666"/>
      <point x="69" y="652"/>
      <point x="0" y="635" type="curve"/>
      <point x="-16" y="608"/>
      <point x="-11" y="540"/>
      <point x="0" y="506" type="curve"/>
    </contour>
  </outline>
</glyph>
<glyph name="bn_dha" format="1">
  <advance width="561"/>
  <unicode hex="09A7"/>
  <outline>
    <contour>
      <point x="370" y="29" type="line"/>
      <point x="342" y="131"/>
      <point x="261" y="213"/>
      <point x="181" y="265" type="curve"/>
      <point x="168" y="208" type="line"/>
      <point x="238" y="259"/>
      <point x="339" y="303"/>
      <point x="423" y="323" type="curve"/>
      <point x="391" y="496" type="line"/>
      <point x="237" y="452"/>
      <point x="130" y="398"/>
      <point x="51" y="332" type="curve"/>
      <point x="55" y="267"/>
      <point x="76" y="213"/>
      <point x="116" y="152" type="curve"/>
      <point x="206" y="131"/>
      <point x="285" y="75"/>
      <point x="344" y="-37" type="curve"/>
    </contour>
    <contour>
      <point x="277" y="458" type="line"/>
      <point x="254" y="450"/>
      <point x="236" y="441"/>
      <point x="216" y="441" type="curve" smooth="yes"/>
      <point x="187" y="441"/>
      <point x="152" y="460"/>
      <point x="152" y="492" type="curve" smooth="yes"/>
      <point x="152" y="519"/>
      <point x="166" y="534"/>
      <point x="186" y="534" type="curve" smooth="yes"/>
      <point x="206" y="534"/>
      <point x="226" y="520"/>
      <point x="228" y="494" type="curve"/>
      <point x="271" y="511"/>
      <point x="302" y="535"/>
      <point x="335" y="577" type="curve"/>
      <point x="306" y="630"/>
      <point x="250" y="670"/>
      <point x="187" y="670" type="curve" smooth="yes"/>
      <point x="80" y="670"/>
      <point x="26" y="606"/>
      <point x="26" y="515" type="curve" smooth="yes"/>
      <point x="26" y="414"/>
      <point x="134" y="359"/>
      <point x="250" y="359" type="curve"/>
    </contour>
    <contour>
      <point x="406" y="598"/>
      <point x="390" y="567"/>
      <point x="381" y="509" type="curve" smooth="yes"/>
      <point x="363" y="391"/>
      <point x="347" y="268"/>
      <point x="347" y="80" type="curve" smooth="yes"/>
      <point x="347" y="35"/>
      <point x="347" y="-4"/>
      <point x="344" y="-37" type="curve"/>
      <point x="396" y="-37"/>
      <point x="466" y="-28"/>
      <point x="511" y="-4" type="curve"/>
      <point x="498" y="68"/>
      <point x="493" y="170"/>
      <point x="493" y="303" type="curve" smooth="yes"/>
      <point x="493" y="326"/>
      <point x="494" y="388"/>
      <point x="498" y="442" type="curve" smooth="yes"/>
      <point x="500" y="469"/>
      <point x="502" y="484"/>
      <point x="518" y="490" type="curve" smooth="yes"/>
      <point x="533" y="496"/>
      <point x="549" y="500"/>
      <point x="561" y="504" type="curve"/>
      <point x="567" y="523"/>
      <point x="572" y="552"/>
      <point x="572" y="576" type="curve" smooth="yes"/>
      <point x="572" y="603"/>
      <point x="568" y="626"/>
      <point x="561" y="639" type="curve"/>
      <point x="521" y="633"/>
      <point x="481" y="622"/>
      <point x="444" y="610" type="curve" smooth="yes"/>
    </contour>
  </outline>
</glyph>
<glyph name="bn_na" format="1">
  <advance width="564"/>
  <unicode hex="09A8"/>
  <outline>
    <contour>
      <point x="360" y="196" type="line"/>
      <point x="342" y="348"/>
      <point x="266" y="474"/>
      <point x="159" y="474" type="curve" smooth="yes"/>
      <point x="76" y="474"/>
      <point x="12" y="398"/>
      <point x="12" y="280" type="curve" smooth="yes"/>
      <point x="12" y="162"/>
      <point x="78" y="93"/>
      <point x="155" y="93" type="curve" smooth="yes"/>
      <point x="180" y="93"/>
      <point x="206" y="100"/>
      <point x="230" y="111" type="curve"/>
      <point x="231" y="178"/>
      <point x="222" y="230"/>
      <point x="194" y="282" type="curve"/>
      <point x="183" y="272"/>
      <point x="171" y="268"/>
      <point x="160" y="268" type="curve" smooth="yes"/>
      <point x="140" y="268"/>
      <point x="130" y="281"/>
      <point x="130" y="297" type="curve" smooth="yes"/>
      <point x="130" y="313"/>
      <point x="144" y="324"/>
      <point x="163" y="324" type="curve" smooth="yes"/>
      <point x="223" y="324"/>
      <point x="318" y="212"/>
      <point x="322" y="80" type="curve"/>
    </contour>
    <contour>
      <point x="375" y="-37"/>
      <point x="442" y="-33"/>
      <point x="484" y="-24" type="curve"/>
      <point x="469" y="51"/>
      <point x="462" y="177"/>
      <point x="462" y="286" type="curve" smooth="yes"/>
      <point x="462" y="390"/>
      <point x="468" y="443"/>
      <point x="478" y="530" type="curve"/>
      <point x="361" y="560" type="line"/>
      <point x="332" y="442"/>
      <point x="322" y="299"/>
      <point x="322" y="80" type="curve" smooth="yes"/>
      <point x="322" y="39"/>
      <point x="322" y="-4"/>
      <point x="326" y="-37" type="curve"/>
    </contour>
    <contour>
      <point x="75" y="519"/>
      <point x="190" y="531"/>
      <point x="295" y="531" type="curve" smooth="yes"/>
      <point x="410" y="531"/>
      <point x="510" y="517"/>
      <point x="564" y="504" type="curve"/>
      <point x="569" y="521"/>
      <point x="572" y="550"/>
      <point x="572" y="578" type="curve" smooth="yes"/>
      <point x="572" y="601"/>
      <point x="570" y="624"/>
      <point x="564" y="639" type="curve"/>
      <point x="517" y="655"/>
      <point x="416" y="670"/>
      <point x="299" y="670" type="curve" smooth="yes"/>
      <point x="187" y="670"/>
      <point x="69" y="656"/>
      <point x="0" y="639" type="curve"/>
      <point x="-7" y="626"/>
      <point x="-10" y="604"/>
      <point x="-10" y="581" type="curve" smooth="yes"/>
      <point x="-10" y="553"/>
      <point x="-6" y="524"/>
      <point x="0" y="504" type="curve"/>
    </contour>
  </outline>
</glyph>
<glyph name="bn_pa" format="1">
  <advance width="638"/>
  <unicode hex="09AA"/>
  <outline>
    <contour>
      <point x="483" y="482"/>
      <point x="403" y="657"/>
      <point x="252" y="657" type="curve" smooth="yes"/>
      <point x="174" y="657"/>
      <point x="90" y="605"/>
      <point x="20" y="528" type="curve"/>
      <point x="27" y="486"/>
      <point x="41" y="444"/>
      <point x="64" y="404" type="curve"/>
      <point x="106" y="404"/>
      <point x="142" y="382"/>
      <point x="142" y="339" type="curve" smooth="yes"/>
      <point x="142" y="321"/>
      <point x="137" y="304"/>
      <point x="120" y="291" type="curve"/>
      <point x="199" y="343" type="line"/>
      <point x="213" y="352"/>
      <point x="223" y="373"/>
      <point x="223" y="400" type="curve" smooth="yes"/>
      <point x="223" y="437"/>
      <point x="197" y="477"/>
      <point x="159" y="498" type="curve"/>
      <point x="161" y="435" type="line"/>
      <point x="203" y="486"/>
      <point x="231" y="506"/>
      <point x="276" y="506" type="curve" smooth="yes"/>
      <point x="346" y="506"/>
      <point x="427" y="444"/>
      <point x="427" y="326" type="curve"/>
      <point x="474" y="263" type="line"/>
    </contour>
    <contour>
      <point x="305" y="222"/>
      <point x="401" y="320"/>
      <point x="448" y="410" type="curve"/>
      <point x="387" y="541" type="line"/>
      <point x="298" y="426"/>
      <point x="191" y="341"/>
      <point x="92" y="271" type="curve"/>
      <point x="119" y="219"/>
      <point x="156" y="175"/>
      <point x="205" y="141" type="curve"/>
    </contour>
    <contour>
      <point x="484" y="-37"/>
      <point x="550" y="-32"/>
      <point x="587" y="-24" type="curve"/>
      <point x="573" y="42"/>
      <point x="565" y="161"/>
      <point x="565" y="288" type="curve" smooth="yes"/>
      <point x="565" y="352"/>
      <point x="566" y="386"/>
      <point x="573" y="450" type="curve" smooth="yes"/>
      <point x="575" y="471"/>
      <point x="583" y="487"/>
      <point x="606" y="494" type="curve" smooth="yes"/>
      <point x="619" y="498"/>
      <point x="629" y="501"/>
      <point x="638" y="504" type="curve"/>
      <point x="644" y="523"/>
      <point x="649" y="552"/>
      <point x="649" y="576" type="curve" smooth="yes"/>
      <point x="649" y="603"/>
      <point x="645" y="626"/>
      <point x="638" y="639" type="curve"/>
      <point x="596" y="632"/>
      <point x="555" y="622"/>
      <point x="513" y="607" type="curve" smooth="yes"/>
      <point x="477" y="595"/>
      <point x="457" y="560"/>
      <point x="449" y="523" type="curve" smooth="yes"/>
      <point x="427" y="417"/>
      <point x="419" y="284"/>
      <point x="419" y="80" type="curve" smooth="yes"/>
      <point x="419" y="18"/>
      <point x="420" y="-12"/>
      <point x="423" y="-37" type="curve"/>
    </contour>
  </outline>
</glyph>
<glyph name="bn_pha" format="1">
  <advance width="746"/>
  <unicode hex="09AB"/>
  <outline>
    <contour>
      <point x="407" y="-40"/>
      <point x="478" y="-30"/>
      <point x="523" y="-7" type="curve"/>
      <point x="500" y="66"/>
      <point x="491" y="169"/>
      <point x="491" y="303" type="curve" smooth="yes"/>
      <point x="491" y="321"/>
      <point x="491" y="340"/>
      <point x="492" y="359" type="curve"/>
      <point x="457" y="328" type="line"/>
      <point x="537" y="329"/>
      <point x="608" y="332"/>
      <point x="608" y="301" type="curve" smooth="yes"/>
      <point x="608" y="277"/>
      <point x="558" y="240"/>
      <point x="512" y="228" type="curve"/>
      <point x="536" y="169"/>
      <point x="583" y="126"/>
      <point x="622" y="118" type="curve"/>
      <point x="663" y="148"/>
      <point x="703" y="198"/>
      <point x="703" y="278" type="curve" smooth="yes"/>
      <point x="703" y="406"/>
      <point x="579" y="507"/>
      <point x="369" y="507" type="curve"/>
      <point x="351" y="370"/>
      <point x="345" y="262"/>
      <point x="345" y="107" type="curve" smooth="yes"/>
      <point x="345" y="54"/>
      <point x="343" y="3"/>
      <point x="355" y="-40" type="curve"/>
    </contour>
    <contour>
      <point x="392" y="24" type="line"/>
      <point x="356" y="117"/>
      <point x="281" y="190"/>
      <point x="191" y="236" type="curve"/>
      <point x="172" y="157" type="line"/>
      <point x="337" y="359" type="line"/>
      <point x="192" y="453" type="line"/>
      <point x="30" y="282" type="line"/>
      <point x="34" y="225"/>
      <point x="67" y="165"/>
      <point x="117" y="123" type="curve"/>
      <point x="212" y="106"/>
      <point x="293" y="56"/>
      <point x="355" y="-40" type="curve"/>
    </contour>
    <contour>
      <point x="337" y="359" type="line"/>
      <point x="301" y="394" type="line" smooth="yes"/>
      <point x="252" y="440"/>
      <point x="221" y="491"/>
      <point x="219" y="530" type="curve"/>
      <point x="30" y="517" type="line"/>
      <point x="30" y="461"/>
      <point x="146" y="427"/>
      <point x="202" y="389" type="curve"/>
    </contour>
    <contour>
      <point x="93" y="518"/>
      <point x="224" y="531"/>
      <point x="399" y="531" type="curve" smooth="yes"/>
      <point x="526" y="531"/>
      <point x="668" y="518"/>
      <point x="746" y="504" type="curve"/>
      <point x="755" y="539"/>
      <point x="759" y="602"/>
      <point x="746" y="639" type="curve"/>
      <point x="677" y="656"/>
      <point x="533" y="670"/>
      <point x="403" y="670" type="curve" smooth="yes"/>
      <point x="227" y="670"/>
      <point x="91" y="656"/>
      <point x="0" y="639" type="curve"/>
      <point x="-16" y="611"/>
      <point x="-11" y="539"/>
      <point x="0" y="504" type="curve"/>
    </contour>
  </outline>
</glyph>
<glyph name="bn_ba" format="1">
  <advance width="554"/>
  <unicode hex="09AC"/>
  <outline>
    <contour>
      <point x="319" y="-59" type="line"/>
      <point x="291" y="63"/>
      <point x="210" y="151"/>
      <point x="127" y="204" type="curve"/>
      <point x="113" y="142" type="line"/>
      <point x="184" y="223"/>
      <point x="287" y="288"/>
      <point x="371" y="318" type="curve"/>
      <point x="348" y="507" type="line"/>
      <point x="191" y="444"/>
      <point x="81" y="359"/>
      <point x="-1" y="266" type="curve"/>
      <point x="1" y="201"/>
      <point x="20" y="147"/>
      <point x="58" y="87" type="curve"/>
      <point x="152" y="64"/>
      <point x="232" y="-1"/>
      <point x="289" y="-127" type="curve"/>
    </contour>
    <contour>
      <point x="339" y="-127"/>
      <point x="408" y="-118"/>
      <point x="452" y="-94" type="curve"/>
      <point x="439" y="-31"/>
      <point x="434" y="69"/>
      <point x="434" y="170" type="curve" smooth="yes"/>
      <point x="434" y="307"/>
      <point x="444" y="407"/>
      <point x="456" y="530" type="curve"/>
      <point x="355" y="561" type="line"/>
      <point x="313" y="381"/>
      <point x="286" y="254"/>
      <point x="286" y="-36" type="curve" smooth="yes"/>
      <point x="286" y="-67"/>
      <point x="286" y="-106"/>
      <point x="289" y="-127" type="curve"/>
    </contour>
    <contour>
      <point x="72" y="520"/>
      <point x="175" y="535"/>
      <point x="307" y="535" type="curve" smooth="yes"/>
      <point x="391" y="535"/>
      <point x="502" y="520"/>
      <point x="554" y="504" type="curve"/>
      <point x="565" y="536"/>
      <point x="567" y="605"/>
      <point x="554" y="639" type="curve"/>
      <point x="512" y="657"/>
      <point x="400" y="674"/>
      <point x="316" y="674" type="curve" smooth="yes"/>
      <point x="185" y="674"/>
      <point x="71" y="658"/>
      <point x="0" y="639" type="curve"/>
      <point x="-18" y="610"/>
      <point x="-9" y="540"/>
      <point x="0" y="504" type="curve"/>
    </contour>
  </outline>
</glyph>
<glyph name="bn_bha" format="1">
  <advance width="650"/>
  <unicode hex="09AD"/>
  <outline>
    <contour>
      <point x="545" y="-39"/>
      <point x="629" y="63"/>
      <point x="629" y="209" type="curve" smooth="yes"/>
      <point x="629" y="262"/>
      <point x="618" y="315"/>
      <point x="600" y="360" type="curve"/>
      <point x="570" y="390"/>
      <point x="530" y="423"/>
      <point x="497" y="445" type="curve"/>
      <point x="437" y="379"/>
      <point x="379" y="323"/>
      <point x="343" y="323" type="curve" smooth="yes"/>
      <point x="330" y="323"/>
      <point x="321" y="330"/>
      <point x="321" y="343" type="curve" smooth="yes"/>
      <point x="321" y="370"/>
      <point x="368" y="412"/>
      <point x="417" y="442" type="curve"/>
      <point x="375" y="477"/>
      <point x="316" y="496"/>
      <point x="262" y="496" type="curve"/>
      <point x="238" y="454"/>
      <point x="223" y="415"/>
      <point x="223" y="369" type="curve" smooth="yes"/>
      <point x="223" y="270"/>
      <point x="299" y="203"/>
      <point x="380" y="203" type="curve" smooth="yes"/>
      <point x="450" y="203"/>
      <point x="507" y="246"/>
      <point x="553" y="322" type="curve"/>
      <point x="509" y="357" type="line"/>
      <point x="515" y="326"/>
      <point x="520" y="289"/>
      <point x="520" y="260" type="curve" smooth="yes"/>
      <point x="520" y="186"/>
      <point x="488" y="136"/>
      <point x="407" y="136" type="curve" smooth="yes"/>
      <point x="267" y="136"/>
      <point x="171" y="283"/>
      <point x="112" y="460" type="curve"/>
      <point x="75" y="448"/>
      <point x="40" y="433"/>
      <point x="6" y="414" type="curve"/>
      <point x="55" y="224"/>
      <point x="157" y="-39"/>
      <point x="396" y="-39" type="curve" smooth="yes"/>
    </contour>
    <contour>
      <point x="79" y="518"/>
      <point x="205" y="531"/>
      <point x="323" y="531" type="curve" smooth="yes"/>
      <point x="441" y="531"/>
      <point x="571" y="518"/>
      <point x="650" y="504" type="curve"/>
      <point x="656" y="521"/>
      <point x="661" y="551"/>
      <point x="661" y="580" type="curve" smooth="yes"/>
      <point x="661" y="603"/>
      <point x="658" y="626"/>
      <point x="650" y="639" type="curve"/>
      <point x="572" y="656"/>
      <point x="443" y="670"/>
      <point x="323" y="670" type="curve" smooth="yes"/>
      <point x="203" y="670"/>
      <point x="77" y="656"/>
      <point x="0" y="639" type="curve"/>
      <point x="-7" y="626"/>
      <point x="-10" y="605"/>
      <point x="-10" y="581" type="curve" smooth="yes"/>
      <point x="-10" y="554"/>
      <point x="-6" y="524"/>
      <point x="0" y="504" type="curve"/>
    </contour>
  </outline>
</glyph>
<glyph name="bn_ma" format="1">
  <advance width="559"/>
  <unicode hex="09AE"/>
  <outline>
    <contour>
      <point x="300" y="165"/>
      <point x="328" y="207"/>
      <point x="328" y="266" type="curve" smooth="yes"/>
      <point x="328" y="377"/>
      <point x="229" y="410"/>
      <point x="229" y="492" type="curve" smooth="yes"/>
      <point x="229" y="510"/>
      <point x="234" y="528"/>
      <point x="245" y="545" type="curve"/>
      <point x="64" y="535" type="line"/>
      <point x="50" y="519"/>
      <point x="44" y="501"/>
      <point x="44" y="483" type="curve" smooth="yes"/>
      <point x="44" y="385"/>
      <point x="210" y="407"/>
      <point x="210" y="327" type="curve" smooth="yes"/>
      <point x="210" y="304"/>
      <point x="195" y="289"/>
      <point x="185" y="284" type="curve"/>
      <point x="264" y="141" type="line"/>
    </contour>
    <contour>
      <point x="216" y="60"/>
      <point x="262" y="97"/>
      <point x="285" y="162" type="curve"/>
      <point x="214" y="270" type="line"/>
      <point x="211" y="229"/>
      <point x="188" y="210"/>
      <point x="150" y="210" type="curve" smooth="yes"/>
      <point x="122" y="210"/>
      <point x="101" y="224"/>
      <point x="101" y="247" type="curve" smooth="yes"/>
      <point x="101" y="267"/>
      <point x="116" y="277"/>
      <point x="133" y="277" type="curve" smooth="yes"/>
      <point x="165" y="277"/>
      <point x="201" y="243"/>
      <point x="214" y="176" type="curve"/>
      <point x="257" y="266" type="line"/>
      <point x="236" y="321"/>
      <point x="189" y="352"/>
      <point x="137" y="352" type="curve" smooth="yes"/>
      <point x="64" y="352"/>
      <point x="13" y="291"/>
      <point x="13" y="208" type="curve" smooth="yes"/>
      <point x="13" y="119"/>
      <point x="72" y="60"/>
      <point x="152" y="60" type="curve" smooth="yes"/>
    </contour>
    <contour>
      <point x="395" y="-5" type="line"/>
      <point x="379" y="84"/>
      <point x="299" y="215"/>
      <point x="242" y="239" type="curve"/>
      <point x="160" y="163" type="line"/>
      <point x="248" y="125"/>
      <point x="321" y="46"/>
      <point x="364" y="-39" type="curve"/>
    </contour>
    <contour>
      <point x="416" y="-40"/>
      <point x="474" y="-26"/>
      <point x="532" y="6" type="curve"/>
      <point x="503" y="76"/>
      <point x="491" y="174"/>
      <point x="491" y="304" type="curve" smooth="yes"/>
      <point x="491" y="379"/>
      <point x="495" y="465"/>
      <point x="500" y="540" type="curve"/>
      <point x="378" y="560" type="line"/>
      <point x="350" y="375"/>
      <point x="349" y="299"/>
      <point x="348" y="107" type="curve" smooth="yes"/>
      <point x="348" y="54"/>
      <point x="342" y="3"/>
      <point x="364" y="-40" type="curve"/>
    </contour>
    <contour>
      <point x="70" y="518"/>
      <point x="171" y="531"/>
      <point x="278" y="531" type="curve" smooth="yes"/>
      <point x="384" y="531"/>
      <point x="497" y="518"/>
      <point x="559" y="504" type="curve"/>
      <point x="568" y="539"/>
      <point x="572" y="602"/>
      <point x="559" y="639" type="curve"/>
      <point x="504" y="656"/>
      <point x="389" y="670"/>
      <point x="282" y="670" type="curve" smooth="yes"/>
      <point x="180" y="670"/>
      <point x="72" y="657"/>
      <point x="0" y="639" type="curve"/>
      <point x="-16" y="611"/>
      <point x="-11" y="539"/>
      <point x="0" y="504" type="curve"/>
    </contour>
  </outline>
</glyph>
<glyph name="bn_ya" format="1">
  <advance width="590"/>
  <unicode hex="09AF"/>
  <outline>
    <contour>
      <point x="70" y="520"/>
      <point x="172" y="533"/>
      <point x="302" y="533" type="curve" smooth="yes"/>
      <point x="404" y="533"/>
      <point x="528" y="520"/>
      <point x="590" y="506" type="curve"/>
      <point x="594" y="521"/>
      <point x="598" y="546"/>
      <point x="598" y="571" type="curve" smooth="yes"/>
      <point x="598" y="591"/>
      <point x="595" y="612"/>
      <point x="590" y="625" type="curve"/>
      <point x="535" y="642"/>
      <point x="409" y="656"/>
      <point x="306" y="656" type="curve" smooth="yes"/>
      <point x="175" y="656"/>
      <point x="69" y="642"/>
      <point x="0" y="625" type="curve"/>
      <point x="-7" y="613"/>
      <point x="-10" y="594"/>
      <point x="-10" y="573" type="curve" smooth="yes"/>
      <point x="-10" y="549"/>
      <point x="-6" y="522"/>
      <point x="0" y="506" type="curve"/>
    </contour>
    <contour>
      <point x="357" y="396"/>
      <point x="349" y="286"/>
      <point x="349" y="113" type="curve" smooth="yes"/>
      <point x="349" y="56"/>
      <point x="349" y="4"/>
      <point x="356" y="-38" type="curve"/>
      <point x="404" y="-38"/>
      <point x="470" y="-28"/>
      <point x="511" y="-4" type="curve"/>
      <point x="491" y="69"/>
      <point x="483" y="173"/>
      <point x="483" y="302" type="curve" smooth="yes"/>
      <point x="483" y="380"/>
      <point x="487" y="456"/>
      <point x="493" y="532" type="curve"/>
      <point x="464" y="544"/>
      <point x="415" y="557"/>
      <point x="381" y="561" type="curve"/>
    </contour>
    <contour>
      <point x="410" y="23" type="line"/>
      <point x="354" y="119"/>
      <point x="268" y="192"/>
      <point x="177" y="238" type="curve"/>
      <point x="159" y="152" type="line"/>
      <point x="335" y="358" type="line"/>
      <point x="223" y="465" type="line"/>
      <point x="38" y="262" type="line"/>
      <point x="42" y="214"/>
      <point x="70" y="164"/>
      <point x="116" y="129" type="curve"/>
      <point x="212" y="111"/>
      <point x="293" y="60"/>
      <point x="356" y="-38" type="curve"/>
    </contour>
    <contour>
      <point x="273" y="417"/>
      <point x="209" y="482"/>
      <point x="206" y="532" type="curve"/>
      <point x="30" y="520" type="line"/>
      <point x="30" y="452"/>
      <point x="186" y="418"/>
      <point x="202" y="367" type="curve"/>
      <point x="267" y="321" type="line"/>
      <point x="335" y="358" type="line"/>
    </contour>
  </outline>
</glyph>
<glyph name="bn_ra" format="1">
  <advance width="525"/>
  <unicode hex="09B0"/>
  <outline>
    <contour>
      <point x="243" y="11"/>
      <point x="205" y="55"/>
      <point x="151" y="55" type="curve" smooth="yes"/>
      <point x="105" y="55"/>
      <point x="70" y="19"/>
      <point x="70" y="-28" type="curve" smooth="yes"/>
      <point x="70" y="-78"/>
      <point x="107" y="-122"/>
      <point x="163" y="-122" type="curve" smooth="yes"/>
      <point x="208" y="-122"/>
      <point x="243" y="-86"/>
      <point x="243" y="-40" type="curve" smooth="yes"/>
    </contour>
    <component base="bn_ba"/>
  </outline>
</glyph>
<glyph name="bn_la" format="1">
  <advance width="656"/>
  <unicode hex="09B2"/>
  <outline>
    <contour>
      <point x="224" y="101"/>
      <point x="243" y="173"/>
      <point x="243" y="230" type="curve"/>
      <point x="229" y="225"/>
      <point x="210" y="221"/>
      <point x="191" y="221" type="curve" smooth="yes"/>
      <point x="152" y="221"/>
      <point x="106" y="237"/>
      <point x="106" y="263" type="curve" smooth="yes"/>
      <point x="106" y="282"/>
      <point x="130" y="294"/>
      <point x="164" y="294" type="curve" smooth="yes"/>
      <point x="211" y="294"/>
      <point x="251" y="270"/>
      <point x="285" y="224" type="curve"/>
      <point x="311" y="293" type="line"/>
      <point x="287" y="401"/>
      <point x="220" y="474"/>
      <point x="146" y="474" type="curve" smooth="yes"/>
      <point x="68" y="474"/>
      <point x="17" y="392"/>
      <point x="17" y="281" type="curve" smooth="yes"/>
      <point x="17" y="150"/>
      <point x="87" y="70"/>
      <point x="193" y="58" type="curve"/>
    </contour>
    <contour>
      <point x="338" y="216"/>
      <point x="367" y="227"/>
      <point x="390" y="238" type="curve"/>
      <point x="301" y="399" type="line"/>
      <point x="216" y="327" type="line"/>
      <point x="297" y="206" type="line"/>
    </contour>
    <contour>
      <point x="477" y="250" type="line"/>
      <point x="469" y="381"/>
      <point x="421" y="474"/>
      <point x="361" y="474" type="curve" smooth="yes"/>
      <point x="314" y="474"/>
      <point x="274" y="415"/>
      <point x="269" y="339" type="curve"/>
      <point x="320" y="243" type="line"/>
      <point x="390" y="238" type="line"/>
      <point x="375" y="260"/>
      <point x="368" y="279"/>
      <point x="368" y="292" type="curve" smooth="yes"/>
      <point x="368" y="307"/>
      <point x="376" y="317"/>
      <point x="390" y="317" type="curve" smooth="yes"/>
      <point x="419" y="317"/>
      <point x="443" y="276"/>
      <point x="442" y="227" type="curve"/>
    </contour>
    <contour>
      <point x="504" y="-37"/>
      <point x="570" y="-32"/>
      <point x="607" y="-24" type="curve"/>
      <point x="593" y="42"/>
      <point x="585" y="160"/>
      <point x="585" y="290" type="curve" smooth="yes"/>
      <point x="585" y="370"/>
      <point x="588" y="417"/>
      <point x="601" y="530" type="curve"/>
      <point x="478" y="560" type="line"/>
      <point x="450" y="448"/>
      <point x="439" y="309"/>
      <point x="439" y="85" type="curve" smooth="yes"/>
      <point x="439" y="17"/>
      <point x="440" y="-12"/>
      <point x="443" y="-37" type="curve"/>
    </contour>
    <contour>
      <point x="97" y="524"/>
      <point x="211" y="535"/>
      <point x="321" y="535" type="curve" smooth="yes"/>
      <point x="435" y="535"/>
      <point x="563" y="523"/>
      <point x="656" y="504" type="curve"/>
      <point x="662" y="525"/>
      <point x="665" y="553"/>
      <point x="665" y="578" type="curve" smooth="yes"/>
      <point x="665" y="603"/>
      <point x="662" y="626"/>
      <point x="656" y="639" type="curve"/>
      <point x="580" y="660"/>
      <point x="448" y="674"/>
      <point x="326" y="674" type="curve" smooth="yes"/>
      <point x="208" y="674"/>
      <point x="89" y="661"/>
      <point x="0" y="639" type="curve"/>
      <point x="-7" y="627"/>
      <point x="-11" y="607"/>
      <point x="-11" y="581" type="curve" smooth="yes"/>
      <point x="-11" y="555"/>
      <point x="-7" y="524"/>
      <point x="0" y="504" type="curve"/>
    </contour>
  </outline>
</glyph>
<glyph name="bn_sha" format="1">
  <advance width="627"/>
  <unicode hex="09B6"/>
  <outline>
    <contour>
      <point x="543" y="96"/>
      <point x="560" y="352"/>
      <point x="560" y="496" type="curve"/>
      <point x="457" y="512" type="line"/>
      <point x="457" y="467" type="line"/>
      <point x="424" y="474" type="line"/>
      <point x="424" y="281"/>
      <point x="403" y="127"/>
      <point x="357" y="-4" type="curve"/>
      <point x="396" y="-24"/>
      <point x="461" y="-35"/>
      <point x="505" y="-35" type="curve"/>
    </contour>
    <contour>
      <point x="203" y="271"/>
      <point x="247" y="352"/>
      <point x="247" y="461" type="curve"/>
      <point x="238" y="499" type="line"/>
      <point x="225" y="580"/>
      <point x="186" y="640"/>
      <point x="98" y="640" type="curve" smooth="yes"/>
      <point x="69" y="640"/>
      <point x="29" y="634"/>
      <point x="0" y="625" type="curve"/>
      <point x="-7" y="613"/>
      <point x="-10" y="594"/>
      <point x="-10" y="573" type="curve" smooth="yes"/>
      <point x="-10" y="549"/>
      <point x="-6" y="522"/>
      <point x="0" y="506" type="curve"/>
      <point x="18" y="511"/>
      <point x="42" y="515"/>
      <point x="61" y="515" type="curve" smooth="yes"/>
      <point x="107" y="515"/>
      <point x="128" y="493"/>
      <point x="128" y="456" type="curve" smooth="yes"/>
      <point x="128" y="401"/>
      <point x="78" y="379"/>
      <point x="29" y="369" type="curve"/>
      <point x="37" y="319"/>
      <point x="64" y="270"/>
      <point x="97" y="244" type="curve"/>
    </contour>
    <contour>
      <point x="332" y="270"/>
      <point x="360" y="319"/>
      <point x="367" y="369" type="curve"/>
      <point x="314" y="379"/>
      <point x="268" y="397"/>
      <point x="268" y="441" type="curve"/>
      <point x="268" y="474"/>
      <point x="291" y="500"/>
      <point x="329" y="500" type="curve" smooth="yes"/>
      <point x="382" y="500"/>
      <point x="423" y="451"/>
      <point x="423" y="386" type="curve"/>
      <point x="473" y="330" type="line"/>
      <point x="479" y="509"/>
      <point x="411" y="646"/>
      <point x="307" y="646" type="curve" smooth="yes"/>
      <point x="230" y="646"/>
      <point x="181" y="582"/>
      <point x="169" y="499" type="curve"/>
      <point x="158" y="461" type="line"/>
      <point x="158" y="352"/>
      <point x="200" y="270"/>
      <point x="300" y="244" type="curve"/>
    </contour>
    <contour>
      <point x="502" y="453" type="line"/>
      <point x="532" y="473"/>
      <point x="595" y="497"/>
      <point x="627" y="506" type="curve"/>
      <point x="633" y="522"/>
      <point x="638" y="549"/>
      <point x="638" y="573" type="curve" smooth="yes"/>
      <point x="638" y="594"/>
      <point x="634" y="613"/>
      <point x="627" y="625" type="curve"/>
      <point x="586" y="618"/>
      <point x="547" y="607"/>
      <point x="509" y="593" type="curve" smooth="yes"/>
      <point x="480" y="582"/>
      <point x="457" y="553"/>
      <point x="457" y="512" type="curve"/>
    </contour>
    <contour>
      <point x="559" y="475"/>
      <point x="569" y="485"/>
      <point x="598" y="497" type="curve"/>
      <point x="565" y="512" type="line"/>
      <point x="520" y="462" type="line"/>
      <point x="559" y="440" type="line"/>
    </contour>
  </outline>
</glyph>
<glyph name="bn_ssa" format="1">
  <advance width="582"/>
  <unicode hex="09B7"/>
  <outline>
    <contour>
      <point x="398" y="26" type="line"/>
      <point x="344" y="122"/>
      <point x="260" y="202"/>
      <point x="173" y="248" type="curve"/>
      <point x="167" y="161" type="line"/>
      <point x="307" y="353" type="line"/>
      <point x="182" y="460" type="line"/>
      <point x="36" y="271" type="line"/>
      <point x="40" y="223"/>
      <point x="68" y="172"/>
      <point x="115" y="137" type="curve"/>
      <point x="205" y="118"/>
      <point x="284" y="65"/>
      <point x="343" y="-38" type="curve"/>
    </contour>
    <contour>
      <point x="411" y="372" type="line"/>
      <point x="318" y="418" type="line" smooth="yes"/>
      <point x="249" y="452"/>
      <point x="205" y="497"/>
      <point x="202" y="535" type="curve"/>
      <point x="23" y="520" type="line"/>
      <point x="23" y="477"/>
      <point x="104" y="413"/>
      <point x="164" y="387" type="curve" smooth="yes"/>
      <point x="373" y="296" type="line"/>
    </contour>
    <contour>
      <point x="391" y="-38"/>
      <point x="457" y="-30"/>
      <point x="498" y="-9" type="curve"/>
      <point x="482" y="65"/>
      <point x="476" y="171"/>
      <point x="476" y="302" type="curve" smooth="yes"/>
      <point x="476" y="380"/>
      <point x="479" y="456"/>
      <point x="485" y="532" type="curve"/>
      <point x="378" y="561" type="line"/>
      <point x="351" y="396"/>
      <point x="341" y="286"/>
      <point x="341" y="113" type="curve" smooth="yes"/>
      <point x="341" y="56"/>
      <point x="341" y="4"/>
      <point x="343" y="-38" type="curve"/>
    </contour>
    <contour>
      <point x="69" y="520"/>
      <point x="167" y="533"/>
      <point x="294" y="533" type="curve" smooth="yes"/>
      <point x="397" y="533"/>
      <point x="521" y="520"/>
      <point x="582" y="506" type="curve"/>
      <point x="591" y="536"/>
      <point x="596" y="602"/>
      <point x="582" y="635" type="curve"/>
      <point x="527" y="652"/>
      <point x="402" y="666"/>
      <point x="299" y="666" type="curve" smooth="yes"/>
      <point x="169" y="666"/>
      <point x="68" y="652"/>
      <point x="0" y="635" type="curve"/>
      <point x="-15" y="608"/>
      <point x="-11" y="540"/>
      <point x="0" y="506" type="curve"/>
    </contour>
  </outline>
</glyph>
<glyph name="bn_sa" format="1">
  <advance width="584"/>
  <unicode hex="09B8"/>
  <outline>
    <contour>
      <point x="245" y="58"/>
      <point x="264" y="269"/>
      <point x="329" y="269" type="curve" smooth="yes"/>
      <point x="358" y="269"/>
      <point x="368" y="243"/>
      <point x="368" y="216" type="curve"/>
      <point x="397" y="331" type="line"/>
      <point x="378" y="357"/>
      <point x="343" y="400"/>
      <point x="289" y="400" type="curve" smooth="yes"/>
      <point x="130" y="400"/>
      <point x="102" y="222"/>
      <point x="55" y="222" type="curve" smooth="yes"/>
      <point x="38" y="222"/>
      <point x="25" y="227"/>
      <point x="11" y="240" type="curve"/>
      <point x="11" y="175"/>
      <point x="22" y="119"/>
      <point x="48" y="73" type="curve"/>
      <point x="76" y="62"/>
      <point x="106" y="58"/>
      <point x="123" y="58" type="curve" smooth="yes"/>
    </contour>
    <contour>
      <point x="246" y="382" type="line"/>
      <point x="252" y="394"/>
      <point x="258" y="410"/>
      <point x="258" y="429" type="curve" smooth="yes"/>
      <point x="258" y="466"/>
      <point x="215" y="492"/>
      <point x="215" y="536" type="curve"/>
      <point x="26" y="523" type="line"/>
      <point x="26" y="468"/>
      <point x="155" y="461"/>
      <point x="155" y="385" type="curve" smooth="yes"/>
      <point x="155" y="342"/>
      <point x="120" y="300"/>
      <point x="93" y="255" type="curve"/>
    </contour>
    <contour>
      <point x="420" y="-34"/>
      <point x="491" y="-31"/>
      <point x="536" y="-21" type="curve"/>
      <point x="519" y="56"/>
      <point x="512" y="164"/>
      <point x="512" y="303" type="curve" smooth="yes"/>
      <point x="512" y="379"/>
      <point x="514" y="465"/>
      <point x="516" y="540" type="curve"/>
      <point x="394" y="560" type="line"/>
      <point x="373" y="392"/>
      <point x="366" y="285"/>
      <point x="366" y="110" type="curve" smooth="yes"/>
      <point x="366" y="57"/>
      <point x="366" y="9"/>
      <point x="368" y="-34" type="curve"/>
    </contour>
    <contour>
      <point x="70" y="518"/>
      <point x="169" y="531"/>
      <point x="291" y="531" type="curve" smooth="yes"/>
      <point x="382" y="531"/>
      <point x="522" y="518"/>
      <point x="584" y="504" type="curve"/>
      <point x="589" y="523"/>
      <point x="592" y="550"/>
      <point x="592" y="577" type="curve" smooth="yes"/>
      <point x="592" y="600"/>
      <point x="590" y="622"/>
      <point x="584" y="639" type="curve"/>
      <point x="529" y="656"/>
      <point x="388" y="670"/>
      <point x="295" y="670" type="curve" smooth="yes"/>
      <point x="172" y="670"/>
      <point x="69" y="656"/>
      <point x="0" y="639" type="curve"/>
      <point x="-7" y="626"/>
      <point x="-10" y="604"/>
      <point x="-10" y="581" type="curve" smooth="yes"/>
      <point x="-10" y="553"/>
      <point x="-6" y="523"/>
      <point x="0" y="504" type="curve"/>
    </contour>
  </outline>
</glyph>
<glyph name="bn_ha" format="1">
  <advance width="526"/>
  <unicode hex="09B9"/>
  <outline>
    <contour>
      <point x="481" y="-124"/>
      <point x="510" y="-92"/>
      <point x="533" y="-62" type="curve"/>
      <point x="425" y="23"/>
      <point x="332" y="91"/>
      <point x="237" y="144" type="curve"/>
      <point x="179" y="90" type="line"/>
      <point x="205" y="87"/>
      <point x="231" y="85"/>
      <point x="255" y="85" type="curve" smooth="yes"/>
      <point x="377" y="85"/>
      <point x="466" y="136"/>
      <point x="466" y="242" type="curve" smooth="yes"/>
      <point x="466" y="368"/>
      <point x="341" y="500"/>
      <point x="215" y="500" type="curve" smooth="yes"/>
      <point x="145" y="500"/>
      <point x="86" y="459"/>
      <point x="86" y="377" type="curve" smooth="yes"/>
      <point x="86" y="351"/>
      <point x="92" y="319"/>
      <point x="112" y="293" type="curve"/>
      <point x="158" y="293"/>
      <point x="216" y="310"/>
      <point x="250" y="333" type="curve"/>
      <point x="242" y="342"/>
      <point x="235" y="348"/>
      <point x="235" y="362" type="curve" smooth="yes"/>
      <point x="235" y="377"/>
      <point x="242" y="388"/>
      <point x="260" y="388" type="curve" smooth="yes"/>
      <point x="292" y="388"/>
      <point x="319" y="356"/>
      <point x="319" y="315" type="curve" smooth="yes"/>
      <point x="319" y="270"/>
      <point x="283" y="252"/>
      <point x="210" y="252" type="curve" smooth="yes"/>
      <point x="164" y="252"/>
      <point x="104" y="259"/>
      <point x="36" y="279" type="curve"/>
      <point x="56" y="94" type="line"/>
      <point x="186" y="54"/>
      <point x="316" y="-22"/>
      <point x="449" y="-150" type="curve"/>
    </contour>
    <contour>
      <point x="65" y="518"/>
      <point x="152" y="531"/>
      <point x="262" y="531" type="curve" smooth="yes"/>
      <point x="372" y="531"/>
      <point x="468" y="518"/>
      <point x="526" y="504" type="curve"/>
      <point x="531" y="521"/>
      <point x="535" y="550"/>
      <point x="535" y="578" type="curve" smooth="yes"/>
      <point x="535" y="601"/>
      <point x="532" y="624"/>
      <point x="526" y="639" type="curve"/>
      <point x="475" y="656"/>
      <point x="376" y="670"/>
      <point x="265" y="670" type="curve" smooth="yes"/>
      <point x="153" y="670"/>
      <point x="64" y="656"/>
      <point x="0" y="639" type="curve"/>
      <point x="-7" y="626"/>
      <point x="-10" y="604"/>
      <point x="-10" y="581" type="curve" smooth="yes"/>
      <point x="-10" y="553"/>
      <point x="-6" y="524"/>
      <point x="0" y="504" type="curve"/>
    </contour>
  </outline>
</glyph>
<glyph name="bn_nukta" format="1">
  <advance width="300"/>
  <unicode hex="09BC"/>
  <outline>
    <contour>
      <point x="249" y="-25"/>
      <point x="207" y="24"/>
      <point x="147" y="24" type="curve" smooth="yes"/>
      <point x="97" y="24"/>
      <point x="58" y="-16"/>
      <point x="58" y="-67" type="curve" smooth="yes"/>
      <point x="58" y="-122"/>
      <point x="99" y="-171"/>
      <point x="161" y="-171" type="curve" smooth="yes"/>
      <point x="210" y="-171"/>
      <point x="249" y="-131"/>
      <point x="249" y="-81" type="curve" smooth="yes"/>
    </contour>
  </outline>
</glyph>
<glyph name="bn_avagraha" format="1">
  <advance width="514"/>
  <unicode hex="09BD"/>
  <outline>
    <contour>
      <point x="469" y="-24"/>
      <point x="498" y="8"/>
      <point x="521" y="38" type="curve"/>
      <point x="413" y="125"/>
      <point x="320" y="195"/>
      <point x="225" y="249" type="curve"/>
      <point x="167" y="195" type="line"/>
      <point x="193" y="192"/>
      <point x="219" y="190"/>
      <point x="243" y="190" type="curve" smooth="yes"/>
      <point x="364" y="190"/>
      <point x="454" y="239"/>
      <point x="454" y="344" type="curve" smooth="yes"/>
      <point x="454" y="468"/>
      <point x="330" y="600"/>
      <point x="195" y="600" type="curve" smooth="yes"/>
      <point x="132" y="600"/>
      <point x="73" y="571"/>
      <point x="73" y="501" type="curve" smooth="yes"/>
      <point x="73" y="410"/>
      <point x="169" y="374"/>
      <point x="247" y="374" type="curve" smooth="yes"/>
      <point x="321" y="374"/>
      <point x="360" y="413"/>
      <point x="360" y="495" type="curve"/>
      <point x="273" y="492" type="line"/>
      <point x="271" y="461"/>
      <point x="249" y="436"/>
      <point x="216" y="436" type="curve" smooth="yes"/>
      <point x="191" y="436"/>
      <point x="173" y="450"/>
      <point x="173" y="470" type="curve" smooth="yes"/>
      <point x="173" y="488"/>
      <point x="188" y="503"/>
      <point x="220" y="503" type="curve" smooth="yes"/>
      <point x="277" y="503"/>
      <point x="319" y="456"/>
      <point x="319" y="403" type="curve" smooth="yes"/>
      <point x="319" y="359"/>
      <point x="289" y="337"/>
      <point x="215" y="337" type="curve" smooth="yes"/>
      <point x="158" y="337"/>
      <point x="89" y="350"/>
      <point x="24" y="379" type="curve"/>
      <point x="44" y="204" type="line"/>
      <point x="174" y="162"/>
      <point x="304" y="82"/>
      <point x="437" y="-50" type="curve"/>
    </contour>
    <contour>
      <point x="406" y="514"/>
      <point x="423" y="580"/>
      <point x="435" y="645" type="curve"/>
      <point x="407" y="664"/>
      <point x="360" y="679"/>
      <point x="321" y="683" type="curve"/>
      <point x="316" y="643"/>
      <point x="305" y="592"/>
      <point x="289" y="540" type="curve"/>
      <point x="378" y="442" type="line"/>
    </contour>
  </outline>
</glyph>
<glyph name="bn_aakaar" format="1">
  <advance width="312"/>
  <unicode hex="09BE"/>
  <outline>
    <contour>
      <point x="228" y="90"/>
      <point x="238" y="286"/>
      <point x="238" y="489" type="curve"/>
      <point x="131" y="478" type="line"/>
      <point x="102" y="474" type="line"/>
      <point x="102" y="248"/>
      <point x="87" y="88"/>
      <point x="57" y="-54" type="curve"/>
      <point x="92" y="-64"/>
      <point x="162" y="-71"/>
      <point x="217" y="-71" type="curve"/>
    </contour>
    <contour>
      <point x="188" y="534" type="line"/>
      <point x="158" y="583"/>
      <point x="77" y="621"/>
      <point x="0" y="635" type="curve"/>
      <point x="-15" y="613"/>
      <point x="-12" y="535"/>
      <point x="0" y="506" type="curve"/>
      <point x="98" y="493"/>
      <point x="101" y="416"/>
      <point x="101" y="375" type="curve"/>
    </contour>
    <contour>
      <point x="233" y="470"/>
      <point x="262" y="498"/>
      <point x="313" y="506" type="curve"/>
      <point x="324" y="542"/>
      <point x="329" y="611"/>
      <point x="313" y="635" type="curve"/>
      <point x="227" y="620"/>
      <point x="145" y="577"/>
      <point x="109" y="500" type="curve"/>
      <point x="218" y="437" type="line"/>
    </contour>
  </outline>
</glyph>
<glyph name="bn_ikaar" format="1">
  <advance width="313"/>
  <unicode hex="09BF"/>
  <outline>
    <contour>
      <point x="93" y="336"/>
      <point x="98" y="82"/>
      <point x="115" y="-68" type="curve"/>
      <point x="167" y="-68"/>
      <point x="235" y="-60"/>
      <point x="270" y="-49" type="curve"/>
      <point x="240" y="118"/>
      <point x="229" y="278"/>
      <point x="236" y="497" type="curve"/>
      <point x="214" y="574" type="line"/>
      <point x="197" y="612"/>
      <point x="180" y="651"/>
      <point x="180" y="695" type="curve" smooth="yes"/>
      <point x="180" y="775"/>
      <point x="233" y="810"/>
      <point x="362" y="810" type="curve" smooth="yes"/>
      <point x="506" y="810"/>
      <point x="686" y="758"/>
      <point x="806" y="705" type="curve"/>
      <point x="827" y="733"/>
      <point x="842" y="762"/>
      <point x="851" y="797" type="curve"/>
      <point x="715" y="863"/>
      <point x="516" y="931"/>
      <point x="342" y="931" type="curve" smooth="yes"/>
      <point x="169" y="931"/>
      <point x="46" y="850"/>
      <point x="46" y="739" type="curve" smooth="yes"/>
      <point x="46" y="656"/>
      <point x="110" y="587"/>
      <point x="177" y="520" type="curve"/>
      <point x="141" y="478" type="line"/>
      <point x="100" y="480" type="line"/>
    </contour>
    <contour>
      <point x="215" y="437" type="line"/>
      <point x="230" y="470"/>
      <point x="260" y="498"/>
      <point x="313" y="506" type="curve"/>
      <point x="320" y="523"/>
      <point x="323" y="550"/>
      <point x="323" y="573" type="curve" smooth="yes"/>
      <point x="323" y="595"/>
      <point x="321" y="613"/>
      <point x="313" y="625" type="curve"/>
      <point x="226" y="610"/>
      <point x="143" y="567"/>
      <point x="106" y="500" type="curve"/>
    </contour>
    <contour>
      <point x="185" y="524" type="line"/>
      <point x="155" y="573"/>
      <point x="76" y="611"/>
      <point x="0" y="625" type="curve"/>
      <point x="-8" y="613"/>
      <point x="-10" y="593"/>
      <point x="-10" y="571" type="curve" smooth="yes"/>
      <point x="-10" y="548"/>
      <point x="-7" y="523"/>
      <point x="0" y="506" type="curve"/>
      <point x="95" y="493"/>
      <point x="98" y="416"/>
      <point x="98" y="375" type="curve"/>
    </contour>
  </outline>
</glyph>
<glyph name="bn_iikaar" format="1">
  <advance width="288"/>
  <unicode hex="09C0"/>
  <outline>
    <contour>
      <point x="225" y="780"/>
      <point x="15" y="977"/>
      <point x="-261" y="977" type="curve" smooth="yes"/>
      <point x="-411" y="977"/>
      <point x="-493" y="919"/>
      <point x="-493" y="825" type="curve" smooth="yes"/>
      <point x="-493" y="742"/>
      <point x="-428" y="693"/>
      <point x="-339" y="693" type="curve" smooth="yes"/>
      <point x="-271" y="693"/>
      <point x="-220" y="721"/>
      <point x="-185" y="721" type="curve" smooth="yes"/>
      <point x="-160" y="721"/>
      <point x="-141" y="708"/>
      <point x="-127" y="688" type="curve"/>
      <point x="-108" y="712"/>
      <point x="-92" y="751"/>
      <point x="-84" y="780" type="curve"/>
      <point x="-105" y="796"/>
      <point x="-135" y="810"/>
      <point x="-172" y="810" type="curve" smooth="yes"/>
      <point x="-224" y="810"/>
      <point x="-257" y="783"/>
      <point x="-334" y="783" type="curve" smooth="yes"/>
      <point x="-367" y="783"/>
      <point x="-400" y="788"/>
      <point x="-400" y="804" type="curve" smooth="yes"/>
      <point x="-400" y="825"/>
      <point x="-347" y="837"/>
      <point x="-246" y="837" type="curve" smooth="yes"/>
      <point x="-24" y="837"/>
      <point x="85" y="779"/>
      <point x="85" y="557" type="curve"/>
      <point x="225" y="494" type="line"/>
    </contour>
    <contour>
      <point x="217" y="116"/>
      <point x="229" y="312"/>
      <point x="227" y="488" type="curve"/>
      <point x="111" y="477" type="line"/>
      <point x="82" y="473" type="line"/>
      <point x="80" y="259"/>
      <point x="62" y="100"/>
      <point x="24" y="-45" type="curve"/>
      <point x="65" y="-60"/>
      <point x="138" y="-72"/>
      <point x="193" y="-72" type="curve"/>
    </contour>
    <contour>
      <point x="171" y="534" type="line"/>
      <point x="144" y="578"/>
      <point x="72" y="622"/>
      <point x="0" y="639" type="curve"/>
      <point x="-14" y="619"/>
      <point x="-14" y="539"/>
      <point x="0" y="504" type="curve"/>
      <point x="54" y="496"/>
      <point x="80" y="452"/>
      <point x="80" y="368" type="curve"/>
    </contour>
    <contour>
      <point x="221" y="473"/>
      <point x="249" y="497"/>
      <point x="288" y="504" type="curve"/>
      <point x="303" y="550"/>
      <point x="303" y="618"/>
      <point x="288" y="639" type="curve"/>
      <point x="194" y="622"/>
      <point x="121" y="571"/>
      <point x="89" y="500" type="curve"/>
      <point x="206" y="434" type="line"/>
    </contour>
  </outline>
</glyph>
<glyph name="bn_ukaar" format="1">
  <advance width="300"/>
  <unicode hex="09C1"/>
  <outline>
    <contour>
      <point x="208" y="-344"/>
      <point x="263" y="-214"/>
      <point x="263" y="-138" type="curve" smooth="yes"/>
      <point x="263" y="-77"/>
      <point x="241" y="-23"/>
      <point x="217" y="7" type="curve"/>
      <point x="126" y="-13" type="line"/>
      <point x="143" y="-47"/>
      <point x="150" y="-78"/>
      <point x="150" y="-115" type="curve" smooth="yes"/>
      <point x="150" y="-165"/>
      <point x="120" y="-237"/>
      <point x="56" y="-237" type="curve" smooth="yes"/>
      <point x="31" y="-237"/>
      <point x="12" y="-224"/>
      <point x="12" y="-203" type="curve" smooth="yes"/>
      <point x="12" y="-183"/>
      <point x="29" y="-170"/>
      <point x="56" y="-170" type="curve" smooth="yes"/>
      <point x="88" y="-170"/>
      <point x="123" y="-194"/>
      <point x="154" y="-233" type="curve"/>
      <point x="203" y="-145" type="line"/>
      <point x="165" y="-96"/>
      <point x="124" y="-59"/>
      <point x="66" y="-59" type="curve" smooth="yes"/>
      <point x="-6" y="-59"/>
      <point x="-64" y="-118"/>
      <point x="-64" y="-197" type="curve" smooth="yes"/>
      <point x="-64" y="-286"/>
      <point x="-8" y="-344"/>
      <point x="83" y="-344" type="curve" smooth="yes"/>
    </contour>
    <contour>
      <point x="361" y="-322"/>
      <point x="384" y="-290"/>
      <point x="398" y="-260" type="curve"/>
      <point x="211" y="-129" type="line"/>
      <point x="171" y="-226" type="line"/>
      <point x="334" y="-348" type="line"/>
    </contour>
  </outline>
</glyph>
<glyph name="bn_uukaar" format="1">
  <advance width="276"/>
  <unicode hex="09C2"/>
  <outline>
    <contour>
      <point x="381" y="-319"/>
      <point x="403" y="-288"/>
      <point x="416" y="-259" type="curve"/>
      <point x="231" y="-129" type="line"/>
      <point x="183" y="-171"/>
      <point x="142" y="-199"/>
      <point x="110" y="-199" type="curve" smooth="yes"/>
      <point x="98" y="-199"/>
      <point x="89" y="-193"/>
      <point x="89" y="-182" type="curve" smooth="yes"/>
      <point x="89" y="-154"/>
      <point x="148" y="-127"/>
      <point x="223" y="-94" type="curve" smooth="yes"/>
      <point x="258" y="-79" type="line"/>
      <point x="233" y="7" type="line"/>
      <point x="114" y="-6" type="line"/>
      <point x="29" y="-58"/>
      <point x="-2" y="-114"/>
      <point x="-2" y="-171" type="curve" smooth="yes"/>
      <point x="-2" y="-250"/>
      <point x="57" y="-319"/>
      <point x="142" y="-319" type="curve" smooth="yes"/>
      <point x="190" y="-319"/>
      <point x="238" y="-297"/>
      <point x="277" y="-249" type="curve"/>
      <point x="238" y="-256" type="line"/>
      <point x="355" y="-344" type="line"/>
    </contour>
  </outline>
</glyph>
<glyph name="bn_rikaar" format="1">
  <advance width="300"/>
  <unicode hex="09C3"/>
  <outline>
    <contour>
      <point x="242" y="-322"/>
      <point x="265" y="-290"/>
      <point x="279" y="-260" type="curve"/>
      <point x="92" y="-129" type="line"/>
      <point x="110" y="-213" type="line"/>
      <point x="260" y="-82" type="line"/>
      <point x="176" y="-15" type="line"/>
      <point x="120" y="-15" type="line"/>
      <point x="120" y="-52" type="line"/>
      <point x="6" y="-160" type="line"/>
      <point x="6" y="-189" type="line"/>
      <point x="215" y="-348" type="line"/>
    </contour>
  </outline>
</glyph>
<glyph name="bn_rrikaar" format="1">
  <advance width="300"/>
  <unicode hex="09C4"/>
  <outline>
    <contour>
      <point x="242" y="-322"/>
      <point x="265" y="-290"/>
      <point x="279" y="-260" type="curve"/>
      <point x="92" y="-129" type="line"/>
      <point x="110" y="-213" type="line"/>
      <point x="260" y="-82" type="line"/>
      <point x="235" y="7" type="line"/>
      <point x="110" y="-7" type="line"/>
      <point x="110" y="-61" type="line"/>
      <point x="6" y="-160" type="line"/>
      <point x="6" y="-189" type="line"/>
      <point x="215" y="-348" type="line"/>
    </contour>
    <contour>
      <point x="163" y="-422"/>
      <point x="182" y="-396"/>
      <point x="194" y="-371" type="curve"/>
      <point x="56" y="-274" type="line"/>
      <point x="78" y="-348" type="line"/>
      <point x="203" y="-239" type="line"/>
      <point x="78" y="-222" type="line"/>
      <point x="-9" y="-304" type="line"/>
      <point x="-9" y="-328" type="line"/>
      <point x="140" y="-444" type="line"/>
    </contour>
  </outline>
</glyph>
<glyph name="bn_ekaar" format="1">
  <advance width="291"/>
  <unicode hex="09C7"/>
  <outline>
    <contour>
      <point x="189" y="523" type="line"/>
      <point x="153" y="577"/>
      <point x="77" y="612"/>
      <point x="0" y="625" type="curve"/>
      <point x="-7" y="613"/>
      <point x="-10" y="594"/>
      <point x="-10" y="573" type="curve" smooth="yes"/>
      <point x="-10" y="549"/>
      <point x="-6" y="522"/>
      <point x="0" y="506" type="curve"/>
      <point x="61" y="495"/>
      <point x="80" y="469"/>
      <point x="80" y="451" type="curve"/>
    </contour>
    <contour>
      <point x="93" y="516" type="line"/>
      <point x="52" y="430"/>
      <point x="24" y="317"/>
      <point x="24" y="204" type="curve" smooth="yes"/>
      <point x="24" y="28"/>
      <point x="105" y="-86"/>
      <point x="209" y="-86" type="curve" smooth="yes"/>
      <point x="257" y="-86"/>
      <point x="299" y="-59"/>
      <point x="333" y="-8" type="curve"/>
      <point x="333" y="31"/>
      <point x="295" y="108"/>
      <point x="255" y="137" type="curve"/>
      <point x="233" y="75"/>
      <point x="214" y="24"/>
      <point x="183" y="24" type="curve" smooth="yes"/>
      <point x="162" y="24"/>
      <point x="149" y="45"/>
      <point x="149" y="111" type="curve" smooth="yes"/>
      <point x="149" y="318"/>
      <point x="184" y="496"/>
      <point x="291" y="506" type="curve"/>
      <point x="297" y="522"/>
      <point x="301" y="549"/>
      <point x="301" y="573" type="curve" smooth="yes"/>
      <point x="301" y="594"/>
      <point x="298" y="613"/>
      <point x="291" y="625" type="curve"/>
      <point x="230" y="615"/>
      <point x="171" y="587"/>
      <point x="130" y="547" type="curve"/>
    </contour>
  </outline>
</glyph>
<glyph name="bn_aikaar" format="1">
  <advance width="355"/>
  <unicode hex="09C8"/>
  <outline>
    <contour>
      <point x="355" y="639" type="line"/>
      <point x="335" y="747"/>
      <point x="283" y="845"/>
      <point x="188" y="845" type="curve" smooth="yes"/>
      <point x="143" y="845"/>
      <point x="96" y="824"/>
      <point x="63" y="824" type="curve" smooth="yes"/>
      <point x="16" y="824"/>
      <point x="-13" y="853"/>
      <point x="-35" y="890" type="curve"/>
      <point x="-60" y="874"/>
      <point x="-97" y="848"/>
      <point x="-124" y="813" type="curve"/>
      <point x="-88" y="753"/>
      <point x="-34" y="696"/>
      <point x="49" y="696" type="curve" smooth="yes"/>
      <point x="95" y="696"/>
      <point x="142" y="717"/>
      <point x="183" y="717" type="curve" smooth="yes"/>
      <point x="252" y="717"/>
      <point x="266" y="662"/>
      <point x="279" y="609" type="curve"/>
    </contour>
    <component base="bn_ekaar"/>
  </outline>
</glyph>
<glyph name="bn_okaar" format="1">
  <advance width="1362"/>
  <unicode hex="09CB"/>
  <outline>
    <contour>
      <point x="497" y="108"/>
      <point x="513" y="126"/>
      <point x="513" y="154" type="curve" smooth="yes"/>
      <point x="513" y="181"/>
      <point x="497" y="198"/>
      <point x="472" y="198" type="curve" smooth="yes"/>
      <point x="445" y="198"/>
      <point x="426" y="180"/>
      <point x="426" y="154" type="curve" smooth="yes"/>
      <point x="426" y="127"/>
      <point x="445" y="108"/>
      <point x="472" y="108" type="curve" smooth="yes"/>
    </contour>
    <contour>
      <point x="600" y="5"/>
      <point x="618" y="22"/>
      <point x="618" y="48" type="curve" smooth="yes"/>
      <point x="618" y="75"/>
      <point x="600" y="93"/>
      <point x="574" y="93" type="curve" smooth="yes"/>
      <point x="548" y="93"/>
      <point x="531" y="75"/>
      <point x="531" y="48" type="curve" smooth="yes"/>
      <point x="531" y="22"/>
      <point x="548" y="5"/>
      <point x="574" y="5" type="curve" smooth="yes"/>
    </contour>
    <contour>
      <point x="460" y="250"/>
      <point x="476" y="267"/>
      <point x="476" y="295" type="curve" smooth="yes"/>
      <point x="476" y="323"/>
      <point x="460" y="339"/>
      <point x="433" y="339" type="curve" smooth="yes"/>
      <point x="406" y="339"/>
      <point x="388" y="321"/>
      <point x="388" y="295" type="curve" smooth="yes"/>
      <point x="388" y="268"/>
      <point x="406" y="250"/>
      <point x="433" y="250" type="curve" smooth="yes"/>
    </contour>
    <contour>
      <point x="746" y="-35"/>
      <point x="763" y="-18"/>
      <point x="763" y="9" type="curve" smooth="yes"/>
      <point x="763" y="37"/>
      <point x="746" y="54"/>
      <point x="719" y="54" type="curve" smooth="yes"/>
      <point x="692" y="54"/>
      <point x="676" y="37"/>
      <point x="676" y="9" type="curve" smooth="yes"/>
      <point x="676" y="-19"/>
      <point x="692" y="-35"/>
      <point x="719" y="-35" type="curve" smooth="yes"/>
    </contour>
    <contour>
      <point x="889" y="5"/>
      <point x="907" y="22"/>
      <point x="907" y="48" type="curve" smooth="yes"/>
      <point x="907" y="75"/>
      <point x="889" y="93"/>
      <point x="862" y="93" type="curve" smooth="yes"/>
      <point x="836" y="93"/>
      <point x="819" y="75"/>
      <point x="819" y="48" type="curve" smooth="yes"/>
      <point x="819" y="22"/>
      <point x="836" y="5"/>
      <point x="862" y="5" type="curve" smooth="yes"/>
    </contour>
    <contour>
      <point x="600" y="497"/>
      <point x="618" y="514"/>
      <point x="618" y="540" type="curve" smooth="yes"/>
      <point x="618" y="567"/>
      <point x="600" y="585"/>
      <point x="574" y="585" type="curve" smooth="yes"/>
      <point x="548" y="585"/>
      <point x="531" y="567"/>
      <point x="531" y="540" type="curve" smooth="yes"/>
      <point x="531" y="514"/>
      <point x="548" y="497"/>
      <point x="574" y="497" type="curve" smooth="yes"/>
    </contour>
    <contour>
      <point x="995" y="108"/>
      <point x="1011" y="126"/>
      <point x="1011" y="154" type="curve" smooth="yes"/>
      <point x="1011" y="181"/>
      <point x="995" y="198"/>
      <point x="969" y="198" type="curve" smooth="yes"/>
      <point x="943" y="198"/>
      <point x="924" y="179"/>
      <point x="924" y="154" type="curve" smooth="yes"/>
      <point x="924" y="127"/>
      <point x="943" y="108"/>
      <point x="969" y="108" type="curve" smooth="yes"/>
    </contour>
    <contour>
      <point x="747" y="536"/>
      <point x="763" y="552"/>
      <point x="763" y="580" type="curve" smooth="yes"/>
      <point x="763" y="608"/>
      <point x="746" y="625"/>
      <point x="719" y="625" type="curve" smooth="yes"/>
      <point x="692" y="625"/>
      <point x="676" y="608"/>
      <point x="676" y="580" type="curve" smooth="yes"/>
      <point x="676" y="552"/>
      <point x="692" y="536"/>
      <point x="719" y="536" type="curve" smooth="yes"/>
    </contour>
    <contour>
      <point x="1034" y="250"/>
      <point x="1050" y="267"/>
      <point x="1050" y="295" type="curve" smooth="yes"/>
      <point x="1050" y="323"/>
      <point x="1034" y="339"/>
      <point x="1007" y="339" type="curve" smooth="yes"/>
      <point x="981" y="339"/>
      <point x="963" y="321"/>
      <point x="963" y="295" type="curve" smooth="yes"/>
      <point x="963" y="269"/>
      <point x="981" y="250"/>
      <point x="1007" y="250" type="curve" smooth="yes"/>
    </contour>
    <contour>
      <point x="995" y="391"/>
      <point x="1011" y="408"/>
      <point x="1011" y="436" type="curve" smooth="yes"/>
      <point x="1011" y="463"/>
      <point x="995" y="480"/>
      <point x="969" y="480" type="curve" smooth="yes"/>
      <point x="943" y="480"/>
      <point x="924" y="461"/>
      <point x="924" y="436" type="curve" smooth="yes"/>
      <point x="924" y="410"/>
      <point x="943" y="391"/>
      <point x="969" y="391" type="curve" smooth="yes"/>
    </contour>
    <contour>
      <point x="889" y="497"/>
      <point x="907" y="514"/>
      <point x="907" y="540" type="curve" smooth="yes"/>
      <point x="907" y="567"/>
      <point x="889" y="585"/>
      <point x="862" y="585" type="curve" smooth="yes"/>
      <point x="836" y="585"/>
      <point x="819" y="567"/>
      <point x="819" y="540" type="curve" smooth="yes"/>
      <point x="819" y="514"/>
      <point x="836" y="497"/>
      <point x="862" y="497" type="curve" smooth="yes"/>
    </contour>
    <contour>
      <point x="496" y="391"/>
      <point x="513" y="409"/>
      <point x="513" y="435" type="curve" smooth="yes"/>
      <point x="513" y="463"/>
      <point x="498" y="480"/>
      <point x="472" y="480" type="curve" smooth="yes"/>
      <point x="445" y="480"/>
      <point x="426" y="462"/>
      <point x="426" y="436" type="curve" smooth="yes"/>
      <point x="426" y="410"/>
      <point x="445" y="391"/>
      <point x="472" y="391" type="curve" smooth="yes"/>
    </contour>
    <component base="bn_ekaar"/>
    <component base="bn_aakaar" xOffset="1074"/>
  </outline>
</glyph>
<glyph name="bn_halanth" format="1">
  <advance width="300"/>
  <unicode hex="09CD"/>
  <outline>
    <contour>
      <point x="242" y="-322"/>
      <point x="265" y="-290"/>
      <point x="279" y="-260" type="curve"/>
      <point x="46" y="-83" type="line"/>
      <point x="17" y="-103"/>
      <point x="-8" y="-133"/>
      <point x="-25" y="-165" type="curve"/>
      <point x="215" y="-348" type="line"/>
    </contour>
  </outline>
</glyph>
<glyph name="bn_rra" format="1">
  <advance width="627"/>
  <unicode hex="09DC"/>
  <outline>
    <contour>
      <point x="387" y="-234"/>
      <point x="432" y="-194"/>
      <point x="432" y="-140" type="curve" smooth="yes"/>
      <point x="432" y="-94"/>
      <point x="397" y="-61"/>
      <point x="350" y="-61" type="curve" smooth="yes"/>
      <point x="300" y="-61"/>
      <point x="255" y="-100"/>
      <point x="255" y="-156" type="curve" smooth="yes"/>
      <point x="255" y="-201"/>
      <point x="290" y="-234"/>
      <point x="336" y="-234" type="curve" smooth="yes"/>
    </contour>
    <component base="bn_dda"/>
  </outline>
</glyph>
<glyph name="bn_rha" format="1">
  <advance width="522"/>
  <unicode hex="09DD"/>
  <outline>
    <contour>
      <point x="281" y="-234"/>
      <point x="325" y="-195"/>
      <point x="325" y="-142" type="curve" smooth="yes"/>
      <point x="325" y="-95"/>
      <point x="289" y="-61"/>
      <point x="241" y="-61" type="curve" smooth="yes"/>
      <point x="192" y="-61"/>
      <point x="148" y="-99"/>
      <point x="148" y="-154" type="curve" smooth="yes"/>
      <point x="148" y="-200"/>
      <point x="184" y="-234"/>
      <point x="231" y="-234" type="curve" smooth="yes"/>
    </contour>
    <component base="bn_ddha"/>
  </outline>
</glyph>
<glyph name="bn_yya" format="1">
  <advance width="564"/>
  <unicode hex="09DF"/>
  <outline>
    <contour>
      <point x="267" y="11"/>
      <point x="229" y="55"/>
      <point x="175" y="55" type="curve" smooth="yes"/>
      <point x="129" y="55"/>
      <point x="94" y="19"/>
      <point x="94" y="-28" type="curve" smooth="yes"/>
      <point x="94" y="-78"/>
      <point x="131" y="-122"/>
      <point x="187" y="-122" type="curve" smooth="yes"/>
      <point x="232" y="-122"/>
      <point x="267" y="-86"/>
      <point x="267" y="-40" type="curve" smooth="yes"/>
    </contour>
    <component base="bn_ya"/>
  </outline>
</glyph>
<glyph name="bn_lli" format="1">
  <advance width="756"/>
  <unicode hex="09E1"/>
  <outline>
    <contour>
      <point x="494" y="142"/>
      <point x="514" y="232"/>
      <point x="514" y="315" type="curve" smooth="yes"/>
      <point x="514" y="442"/>
      <point x="469" y="538"/>
      <point x="337" y="571" type="curve" smooth="yes"/>
      <point x="273" y="587" type="line" smooth="yes"/>
      <point x="198" y="606"/>
      <point x="163" y="621"/>
      <point x="148" y="720" type="curve"/>
      <point x="119" y="711"/>
      <point x="77" y="696"/>
      <point x="39" y="670" type="curve"/>
      <point x="63" y="514"/>
      <point x="130" y="474"/>
      <point x="266" y="443" type="curve" smooth="yes"/>
      <point x="357" y="422"/>
      <point x="439" y="415"/>
      <point x="439" y="340" type="curve" smooth="yes"/>
      <point x="439" y="275"/>
      <point x="380" y="171"/>
      <point x="303" y="78" type="curve"/>
      <point x="463" y="60" type="line"/>
    </contour>
    <contour>
      <point x="205" y="-36"/>
      <point x="230" y="-20"/>
      <point x="246" y="0" type="curve"/>
      <point x="241" y="50"/>
      <point x="220" y="122"/>
      <point x="195" y="170" type="curve"/>
      <point x="179" y="146"/>
      <point x="162" y="130"/>
      <point x="138" y="130" type="curve" smooth="yes"/>
      <point x="122" y="130"/>
      <point x="102" y="137"/>
      <point x="102" y="165" type="curve" smooth="yes"/>
      <point x="102" y="195"/>
      <point x="124" y="216"/>
      <point x="163" y="216" type="curve" smooth="yes"/>
      <point x="213" y="216"/>
      <point x="279" y="180"/>
      <point x="289" y="28" type="curve"/>
      <point x="355" y="102" type="line"/>
      <point x="355" y="278"/>
      <point x="294" y="397"/>
      <point x="181" y="397" type="curve" smooth="yes"/>
      <point x="81" y="397"/>
      <point x="25" y="306"/>
      <point x="25" y="186" type="curve" smooth="yes"/>
      <point x="25" y="62"/>
      <point x="85" y="-36"/>
      <point x="171" y="-36" type="curve" smooth="yes"/>
    </contour>
    <contour>
      <point x="442" y="-227"/>
      <point x="462" y="-215"/>
      <point x="476" y="-201" type="curve"/>
      <point x="471" y="-151"/>
      <point x="451" y="-80"/>
      <point x="426" y="-32" type="curve"/>
      <point x="411" y="-50"/>
      <point x="398" y="-61"/>
      <point x="378" y="-61" type="curve" smooth="yes"/>
      <point x="365" y="-61"/>
      <point x="349" y="-57"/>
      <point x="349" y="-36" type="curve" smooth="yes"/>
      <point x="349" y="-15"/>
      <point x="366" y="1"/>
      <point x="399" y="1" type="curve" smooth="yes"/>
      <point x="446" y="1"/>
      <point x="514" y="-28"/>
      <point x="514" y="-199" type="curve"/>
      <point x="575" y="-90" type="line"/>
      <point x="575" y="66"/>
      <point x="522" y="174"/>
      <point x="418" y="174" type="curve"/>
      <point x="316" y="124" type="line"/>
      <point x="288" y="89"/>
      <point x="275" y="38"/>
      <point x="275" y="-20" type="curve" smooth="yes"/>
      <point x="275" y="-135"/>
      <point x="330" y="-227"/>
      <point x="412" y="-227" type="curve" smooth="yes"/>
    </contour>
    <contour>
      <point x="691" y="-138"/>
      <point x="729" y="-23"/>
      <point x="729" y="83" type="curve" smooth="yes"/>
      <point x="729" y="194"/>
      <point x="687" y="290"/>
      <point x="567" y="327" type="curve" smooth="yes"/>
      <point x="484" y="353" type="line"/>
      <point x="451" y="216" type="line"/>
      <point x="502" y="200" type="line" smooth="yes"/>
      <point x="582" y="175"/>
      <point x="656" y="167"/>
      <point x="656" y="104" type="curve" smooth="yes"/>
      <point x="656" y="52"/>
      <point x="599" y="-27"/>
      <point x="524" y="-111" type="curve"/>
      <point x="514" y="-199" type="line"/>
      <point x="551" y="-217"/>
      <point x="597" y="-227"/>
      <point x="639" y="-229" type="curve"/>
    </contour>
  </outline>
</glyph>
<glyph name="bn_likaar" format="1">
  <advance width="300"/>
  <unicode hex="09E2"/>
  <outline>
    <contour>
      <point x="281" y="-340"/>
      <point x="303" y="-265"/>
      <point x="303" y="-198" type="curve" smooth="yes"/>
      <point x="303" y="-124"/>
      <point x="278" y="-64"/>
      <point x="202" y="-45" type="curve" smooth="yes"/>
      <point x="164" y="-36" type="line" smooth="yes"/>
      <point x="120" y="-25"/>
      <point x="99" y="-16"/>
      <point x="90" y="42" type="curve"/>
      <point x="73" y="36"/>
      <point x="48" y="27"/>
      <point x="24" y="12" type="curve"/>
      <point x="38" y="-87"/>
      <point x="77" y="-115"/>
      <point x="155" y="-134" type="curve" smooth="yes"/>
      <point x="204" y="-146"/>
      <point x="235" y="-157"/>
      <point x="235" y="-201" type="curve" smooth="yes"/>
      <point x="235" y="-237"/>
      <point x="220" y="-291"/>
      <point x="198" y="-336" type="curve"/>
      <point x="172" y="-387" type="line"/>
      <point x="196" y="-395"/>
      <point x="224" y="-400"/>
      <point x="249" y="-400" type="curve"/>
    </contour>
    <contour>
      <point x="120" y="-399"/>
      <point x="136" y="-390"/>
      <point x="147" y="-379" type="curve"/>
      <point x="145" y="-348"/>
      <point x="131" y="-304"/>
      <point x="116" y="-274" type="curve"/>
      <point x="106" y="-287"/>
      <point x="97" y="-296"/>
      <point x="83" y="-296" type="curve" smooth="yes"/>
      <point x="73" y="-296"/>
      <point x="63" y="-292"/>
      <point x="63" y="-278" type="curve" smooth="yes"/>
      <point x="63" y="-262"/>
      <point x="75" y="-252"/>
      <point x="97" y="-252" type="curve" smooth="yes"/>
      <point x="129" y="-252"/>
      <point x="171" y="-274"/>
      <point x="172" y="-387" type="curve"/>
      <point x="219" y="-314" type="line"/>
      <point x="219" y="-210"/>
      <point x="176" y="-139"/>
      <point x="100" y="-139" type="curve" smooth="yes"/>
      <point x="33" y="-139"/>
      <point x="0" y="-195"/>
      <point x="0" y="-267" type="curve" smooth="yes"/>
      <point x="0" y="-340"/>
      <point x="39" y="-399"/>
      <point x="98" y="-399" type="curve" smooth="yes"/>
    </contour>
  </outline>
</glyph>
<glyph name="bn_llikaar" format="1">
  <advance width="500"/>
  <unicode hex="09E3"/>
  <outline>
    <contour>
      <point x="301" y="-355" type="line"/>
      <point x="321" y="-305"/>
      <point x="334" y="-249"/>
      <point x="334" y="-198" type="curve" smooth="yes"/>
      <point x="334" y="-124"/>
      <point x="309" y="-64"/>
      <point x="233" y="-45" type="curve" smooth="yes"/>
      <point x="195" y="-36" type="line" smooth="yes"/>
      <point x="151" y="-25"/>
      <point x="130" y="-16"/>
      <point x="121" y="42" type="curve"/>
      <point x="104" y="36"/>
      <point x="79" y="27"/>
      <point x="55" y="12" type="curve"/>
      <point x="69" y="-87"/>
      <point x="108" y="-115"/>
      <point x="186" y="-134" type="curve" smooth="yes"/>
      <point x="235" y="-146"/>
      <point x="266" y="-157"/>
      <point x="266" y="-201" type="curve" smooth="yes"/>
      <point x="266" y="-237"/>
      <point x="251" y="-291"/>
      <point x="229" y="-336" type="curve"/>
      <point x="203" y="-387" type="line"/>
    </contour>
    <contour>
      <point x="151" y="-399"/>
      <point x="167" y="-390"/>
      <point x="178" y="-379" type="curve"/>
      <point x="176" y="-348"/>
      <point x="162" y="-304"/>
      <point x="147" y="-274" type="curve"/>
      <point x="137" y="-287"/>
      <point x="128" y="-296"/>
      <point x="114" y="-296" type="curve" smooth="yes"/>
      <point x="104" y="-296"/>
      <point x="94" y="-292"/>
      <point x="94" y="-278" type="curve" smooth="yes"/>
      <point x="94" y="-262"/>
      <point x="106" y="-252"/>
      <point x="128" y="-252" type="curve" smooth="yes"/>
      <point x="160" y="-252"/>
      <point x="202" y="-274"/>
      <point x="203" y="-387" type="curve"/>
      <point x="250" y="-314" type="line"/>
      <point x="250" y="-210"/>
      <point x="207" y="-139"/>
      <point x="131" y="-139" type="curve" smooth="yes"/>
      <point x="64" y="-139"/>
      <point x="31" y="-195"/>
      <point x="31" y="-267" type="curve" smooth="yes"/>
      <point x="31" y="-340"/>
      <point x="70" y="-399"/>
      <point x="129" y="-399" type="curve" smooth="yes"/>
    </contour>
    <contour>
      <point x="302" y="-516"/>
      <point x="316" y="-508"/>
      <point x="326" y="-499" type="curve"/>
      <point x="325" y="-471"/>
      <point x="312" y="-432"/>
      <point x="298" y="-405" type="curve"/>
      <point x="289" y="-416"/>
      <point x="281" y="-424"/>
      <point x="269" y="-424" type="curve" smooth="yes"/>
      <point x="260" y="-424"/>
      <point x="251" y="-420"/>
      <point x="251" y="-409" type="curve" smooth="yes"/>
      <point x="251" y="-395"/>
      <point x="262" y="-386"/>
      <point x="281" y="-386" type="curve" smooth="yes"/>
      <point x="310" y="-386"/>
      <point x="348" y="-405"/>
      <point x="349" y="-505" type="curve"/>
      <point x="391" y="-440" type="line"/>
      <point x="391" y="-348"/>
      <point x="352" y="-285"/>
      <point x="284" y="-285" type="curve" smooth="yes"/>
      <point x="224" y="-285"/>
      <point x="194" y="-335"/>
      <point x="194" y="-399" type="curve" smooth="yes"/>
      <point x="194" y="-464"/>
      <point x="229" y="-516"/>
      <point x="282" y="-516" type="curve" smooth="yes"/>
    </contour>
    <contour>
      <point x="448" y="-462"/>
      <point x="469" y="-394"/>
      <point x="469" y="-333" type="curve" smooth="yes"/>
      <point x="469" y="-267"/>
      <point x="447" y="-213"/>
      <point x="378" y="-191" type="curve" smooth="yes"/>
      <point x="316" y="-171" type="line"/>
      <point x="298" y="-256" type="line"/>
      <point x="335" y="-271" type="line" smooth="yes"/>
      <point x="378" y="-289"/>
      <point x="408" y="-296"/>
      <point x="408" y="-336" type="curve" smooth="yes"/>
      <point x="408" y="-369"/>
      <point x="393" y="-418"/>
      <point x="372" y="-460" type="curve"/>
      <point x="349" y="-505" type="line"/>
      <point x="370" y="-513"/>
      <point x="396" y="-517"/>
      <point x="418" y="-517" type="curve"/>
    </contour>
  </outline>
</glyph>
<glyph name="bn_zero" format="1">
  <advance width="550"/>
  <unicode hex="09E6"/>
  <outline>
    <contour>
      <point x="425" y="-40"/>
      <point x="502" y="160"/>
      <point x="502" y="325" type="curve" smooth="yes"/>
      <point x="502" y="504"/>
      <point x="428" y="597"/>
      <point x="296" y="597" type="curve" smooth="yes"/>
      <point x="124" y="597"/>
      <point x="47" y="397"/>
      <point x="47" y="232" type="curve" smooth="yes"/>
      <point x="47" y="53"/>
      <point x="121" y="-40"/>
      <point x="253" y="-40" type="curve" smooth="yes"/>
    </contour>
    <contour>
      <point x="196" y="135"/>
      <point x="157" y="176"/>
      <point x="157" y="256" type="curve" smooth="yes"/>
      <point x="157" y="353"/>
      <point x="214" y="422"/>
      <point x="292" y="422" type="curve" smooth="yes"/>
      <point x="353" y="422"/>
      <point x="392" y="381"/>
      <point x="392" y="301" type="curve" smooth="yes"/>
      <point x="392" y="204"/>
      <point x="335" y="135"/>
      <point x="257" y="135" type="curve" smooth="yes"/>
    </contour>
  </outline>
</glyph>
<glyph name="bn_one" format="1">
  <advance width="550"/>
  <unicode hex="09E7"/>
  <outline>
    <contour>
      <point x="402" y="-42"/>
      <point x="502" y="91"/>
      <point x="502" y="234" type="curve" smooth="yes"/>
      <point x="502" y="471"/>
      <point x="225" y="450"/>
      <point x="199" y="604" type="curve"/>
      <point x="145" y="578"/>
      <point x="95" y="545"/>
      <point x="48" y="506" type="curve"/>
      <point x="84" y="273"/>
      <point x="427" y="382"/>
      <point x="427" y="216" type="curve" smooth="yes"/>
      <point x="427" y="143"/>
      <point x="359" y="96"/>
      <point x="268" y="96" type="curve" smooth="yes"/>
      <point x="210" y="96"/>
      <point x="185" y="115"/>
      <point x="185" y="141" type="curve" smooth="yes"/>
      <point x="185" y="160"/>
      <point x="198" y="174"/>
      <point x="218" y="174" type="curve" smooth="yes"/>
      <point x="235" y="174"/>
      <point x="255" y="163"/>
      <point x="263" y="130" type="curve"/>
      <point x="297" y="149"/>
      <point x="336" y="184"/>
      <point x="357" y="217" type="curve"/>
      <point x="332" y="271"/>
      <point x="291" y="304"/>
      <point x="236" y="304" type="curve" smooth="yes"/>
      <point x="150" y="304"/>
      <point x="102" y="223"/>
      <point x="102" y="139" type="curve" smooth="yes"/>
      <point x="102" y="38"/>
      <point x="172" y="-42"/>
      <point x="272" y="-42" type="curve" smooth="yes"/>
    </contour>
  </outline>
</glyph>
